<?xml version="1.0" encoding="utf-8"?>
<!-- Generator: Adobe Illustrator 27.3.1, SVG Export Plug-In . SVG Version: 6.00 Build 0)  -->
<svg version="1.1" id="katman_1" xmlns="http://www.w3.org/2000/svg" xmlns:xlink="http://www.w3.org/1999/xlink" x="0px" y="0px"
	 viewBox="0 0 32 32" style="enable-background:new 0 0 32 32;" xml:space="preserve">
<style type="text/css">
	.st0{fill:#79797C;}
	.st1{fill:#FFFFFF;}
	.st2{fill:#FFFDFD;}
	.st3{fill:#BCBCBE;}
	.st4{fill:#CCCBCD;}
	.st5{fill:#DCC5B2;}
	.st6{fill:#ADACAF;}
	.st7{fill:#FDFCFD;}
	.st8{fill:#F28F28;}
	.st9{fill:#F8F0CD;}
	.st10{fill:#F9F8F8;}
	.st11{fill:#CDCCCB;}
	.st12{fill:#A07060;}
	.st13{fill:#CDCCCE;}
	.st14{fill:#AD6F56;}
	.st15{fill:#A3705D;}
	.st16{fill:#EDE0CE;}
	.st17{fill:#CDCCCD;}
	.st18{fill:#E4E3E5;}
	.st19{fill:#B6B6B8;}
	.st20{fill:#FFFDFF;}
	.st21{fill:#BF9A67;}
	.st22{fill:#9C7A55;}
	.st23{fill:#AEADAD;}
	.st24{fill:#C7C6C6;}
	.st25{fill:#CFCDCE;}
	.st26{fill:#967145;}
	.st27{fill:#B3AB9D;}
	.st28{fill:#F29028;}
	.st29{fill:#D99D46;}
	.st30{fill:#EA5B2D;}
	.st31{fill:#C77451;}
	.st32{fill:#CB6940;}
	.st33{fill:#C5714E;}
	.st34{fill:#CE6A3F;}
	.st35{fill:#C9714C;}
	.st36{fill:#C07553;}
	.st37{fill:#BF6F4B;}
	.st38{fill:#E8CEB6;}
	.st39{fill:#B1826E;}
	.st40{fill:#C56C4A;}
	.st41{fill:#C37554;}
	.st42{fill:#AD785F;}
	.st43{fill:#C8734D;}
	.st44{fill:#D4B19F;}
	.st45{fill:#C07B50;}
	.st46{fill:#ECECED;}
	.st47{fill:#DEDDDB;}
	.st48{fill:#F9F1CB;}
	.st49{fill:#D69B42;}
	.st50{fill:#DEA153;}
	.st51{fill:#CC9862;}
	.st52{fill:#F5EBCD;}
	.st53{fill:#D9B180;}
	.st54{fill:#CBAD75;}
	.st55{fill:#F4EBC9;}
	.st56{fill:#F6E8C0;}
	.st57{fill:#BE8E62;}
	.st58{fill:#F3E0BC;}
	.st59{fill:#F0CF9B;}
	.st60{fill:#D9AD76;}
	.st61{fill:#D7AF6C;}
	.st62{fill:#C5A465;}
	.st63{fill:#F8D07F;}
	.st64{fill:#D9AE73;}
	.st65{fill:#F5D285;}
	.st66{fill:#FCF8EC;}
	.st67{fill:#F5EFC3;}
	.st68{fill:#D29E62;}
	.st69{fill:#C4C3C3;}
	.st70{fill:#FDFCFC;}
	.st71{fill:#B66C54;}
	.st72{fill:#A7715B;}
	.st73{fill:#F8F7F8;}
	.st74{fill:#E9E2D4;}
	.st75{fill:#FAE8C3;}
	.st76{fill:#F1E4C7;}
	.st77{fill:#CCA36D;}
	.st78{fill:#F7DAC3;}
	.st79{fill:#CA7047;}
	.st80{fill:#F3E0CD;}
	.st81{fill:#BA6D4C;}
	.st82{fill:#C76F4C;}
	.st83{fill:#F2CFB4;}
	.st84{fill:#CF7652;}
	.st85{fill:#EDDBC7;}
	.st86{fill:#F2C3A8;}
	.st87{fill:#F6D8BA;}
	.st88{fill:#F0BA9B;}
	.st89{fill:#F5D0B3;}
	.st90{fill:#EBEAE0;}
	.st91{fill:#EDE5D7;}
	.st92{fill:#CB7D52;}
	.st93{fill:#C17152;}
	.st94{fill:#F7D9C3;}
	.st95{fill:#F4E2C7;}
	.st96{fill:#EAD1B4;}
	.st97{fill:#F7DAC1;}
	.st98{fill:#F8D8BF;}
	.st99{fill:#F6DCA6;}
	.st100{fill:#F8DBC0;}
	.st101{fill:#F4BD92;}
	.st102{fill:#F3BE9D;}
	.st103{fill:#F5D6A3;}
	.st104{fill:#EFE6CC;}
	.st105{fill:#E2B963;}
	.st106{fill:#E0AE72;}
	.st107{fill:#F4F3DA;}
	.st108{fill:#F8E5A8;}
	.st109{fill:#F5F0E4;}
	.st110{fill:#EBB49B;}
	.st111{fill:#CA8F71;}
</style>
<g>
	<path class="st0" d="M14.5,25.9C14.5,25.9,14.5,25.9,14.5,25.9C14.5,25.9,14.5,25.9,14.5,25.9c0.1,0.1,0.2,0.2,0.3,0.2
		c0.1,0,0.1,0,0.2,0c0.1,0,0.1,0,0.1,0.1c0,0.1-0.1,0.1-0.1,0.1c-0.4,0-0.8,0-1.1,0c-0.4,0-0.8,0-1.1,0c-0.2,0-0.4,0-0.5,0
		c-0.1,0-0.2,0-0.3,0c-0.1,0-0.1-0.1-0.1-0.2c0-0.2,0-0.5,0-0.7c0-0.1,0-0.1-0.1-0.1c0,0,0,0,0,0c0-0.1,0-0.2,0-0.3
		c0.1-0.1,0.2-0.1,0.2,0.1c0.1-0.1,0.1-0.2,0-0.3c0-0.2,0.1-0.3,0.2-0.3c0.2,0,0.2,0,0.3-0.3c0-0.1,0-0.2-0.2-0.2c0,0-0.1,0-0.1-0.1
		c0,0,0,0,0,0c0.2-0.1,0.3-0.4,0.4-0.6c0.1-0.1,0.1-0.3,0-0.4c0-0.1,0-0.1,0-0.2c0.1-0.1,0.3-0.1,0.3-0.3c0,0,0-0.1,0-0.1
		c-0.1-0.5,0-1,0-1.4c0-0.1,0-0.2-0.1-0.3c0-0.1,0-0.2,0-0.3c0-0.1,0.1-0.1,0.1-0.2c0-0.1,0-0.2,0.1-0.3c0,0,0-0.1,0-0.1
		c-0.2-0.1-0.2-0.1-0.1-0.4c0,0,0,0,0,0c-0.3-0.1-0.4-0.4-0.4-0.7c0-0.2,0-0.4,0-0.6c0,0,0,0,0,0c0,0,0-0.1-0.1-0.1
		c-0.2-0.1-0.2-0.4-0.5-0.2c-0.1,0-0.2,0.1-0.2,0c0-0.1,0-0.2,0-0.3c0.1,0,0.1,0,0.2,0c0.1,0,0.1,0,0.1-0.1c-0.1-0.5,0-1,0-1.5
		c0-0.1,0-0.2,0-0.2c0,0,0-0.1,0-0.1c0.1-0.6,0.1-1.1,0.1-1.7c0-0.1,0.1-0.2,0.1-0.3c0-0.2,0-0.3-0.1-0.5c0-0.1,0-0.1,0-0.2
		c0.1-0.1,0.2-0.1,0.2,0c0,0,0,0.1,0.1,0c0,0,0,0,0-0.1c-0.1-0.2,0-0.4,0-0.7c0,0,0-0.1,0-0.1c-0.1,0-0.1,0.1-0.1,0.1
		c0,0.1,0,0.2,0,0.3c-0.1,0-0.1-0.1-0.1-0.1c0-0.2-0.1-0.4-0.2-0.5c0-0.1-0.1-0.1,0-0.2c0.1-0.2,0-0.3,0-0.5c0-0.3,0-0.5,0-0.8
		c0-0.1,0-0.3-0.1-0.4c0-0.1-0.1-0.1-0.2-0.2c0,0-0.1,0-0.1,0c-0.1,0-0.1,0-0.2,0c-1.1,0-2.1,0-3.2,0c-0.1,0-0.2,0-0.2,0
		c-0.1,0-0.1-0.1-0.1-0.2c0-0.7,0-1.4,0-2c0-0.2,0-0.4,0-0.6c0-0.2,0-0.2,0.2-0.2c0.1,0,0.1,0,0.2,0c3.6,0,7.1,0,10.7,0
		c0.4,0,0.4,0,0.4,0.4c0,0.8,0,1.6,0,2.3c0,0.1,0,0.2,0,0.3c-0.1,0.1-0.2,0-0.2,0c-1,0-2,0-3,0c-0.1,0-0.2,0-0.2,0
		c-0.1,0-0.1,0-0.2,0.1c0,0,0,0,0,0c0,0,0,0,0,0c-0.1,0-0.1,0.1-0.1,0.1c0,3.3,0,6.6,0,9.9c0,0.1,0,0.2,0,0.2c0,0.1,0,0.2,0,0.3
		c0,0.1,0,0.2,0.1,0.2c0,0,0,0.1,0,0.1c-0.1,0.1-0.1,0.2-0.1,0.3c0,0.7,0,1.4,0,2.1c0,0.1,0,0.2,0,0.3c-0.1,0.2-0.1,0.2-0.3,0.2
		c-0.2,0-0.5,0-0.7,0c-0.1,0-0.1,0-0.2,0c0.4,0,0.8,0,1.2,0c0,0,0,0,0,0c0,0,0,0,0,0c0,0.1,0,0.3,0,0.4c0,0,0,0,0,0
		c-0.1,0-0.1,0-0.2,0c-0.3,0-0.6,0-0.9,0c-0.1,0-0.1,0-0.2,0c0,0,0.1,0.1,0.1,0.1c0.2,0,0.5,0.1,0.7,0c0.4-0.1,0.4,0,0.4,0.4
		c0,0.2,0,0.4,0,0.5c0,0.2,0,0.3-0.3,0.3c-0.2,0-0.4,0-0.6,0c-0.2,0-0.2,0-0.2,0.2c0,0,0,0.1,0,0.1C14.3,25.7,14.4,25.7,14.5,25.9
		C14.5,25.8,14.5,25.9,14.5,25.9z"/>
	<path class="st0" d="M22.4,11.2c0,0.4,0.1,0.8,0.2,1.2c0.1,0.1,0.1,0.3,0.1,0.4c0,0.2,0,0.2-0.2,0.2c-0.4,0-0.8,0-1.3,0
		c0,0-0.1,0-0.1,0c-0.6,0-1.1,0-1.7,0c0,0-0.1,0-0.1,0c-0.1,0-0.1,0-0.2,0.1c0,0.1,0,0.1,0,0.2c0,1.1,0,2.2,0,3.3c0,0.1,0,0.1,0,0.2
		c0.1,0.1,0.1,0.1,0.2,0.1c0.4,0,0.7,0,1.1,0c0.1,0,0.1,0,0.2,0c0.1,0,0.1,0.1,0,0.1c-0.1,0.1,0,0.1,0.1,0.1c0,0,0.1,0,0.1,0
		c0.2-0.1,0.4,0,0.5,0c0.1,0,0.1,0.1,0.1,0.2c0,0.3,0,0.6,0,0.9c0,0.3,0,0.5,0,0.8c0,0.1,0,0.1,0,0.2c0.1,0.2,0,0.5-0.3,0.5
		c-0.1,0-0.1,0-0.2,0c-0.2,0-0.4,0-0.5,0.1c0,0-0.1,0.1-0.1,0.1c-0.3,0-0.6,0-1,0c-0.1-0.1-0.3,0-0.4-0.1c0,0-0.1,0-0.1,0
		c0,0.1,0,0.1,0.1,0.1c0,0,0,0,0,0.1c0,0.3,0,0.7,0,1c0,0.8,0,1.6,0,2.3c0,0.1-0.1,0.1-0.1,0.1c0.1,0,0.1,0,0.2,0c0.3,0,0.6,0,0.8,0
		c0.8,0,1.5,0,2.3,0c0,0,0.1,0,0.1,0c0,0,0.1,0.1,0.1,0.1c0,0.2,0,0.4-0.1,0.5c-0.1,0-0.2-0.1-0.2-0.2c0-0.1,0-0.1,0-0.2
		c0,0,0-0.1-0.1-0.1c-0.1,0-0.1,0-0.1,0.1c0,0.1-0.1,0.1-0.1,0.2c0,0.2,0,0.4,0,0.5c0,0.2,0.1,0.2,0.3,0.1c0,0,0,0,0,0
		c0,0,0,0.1,0,0.1c-0.1,0.3-0.1,0.6-0.2,1c-0.1,0.1-0.2,0.1-0.1,0.3c0,0.1,0,0.2,0,0.2C22,26,22,26.1,22,26.2c0,0.1-0.1,0.2-0.2,0.2
		c-0.3,0-0.6,0-0.9,0c-0.1,0-0.2-0.1-0.3,0c0,0-0.1,0-0.1,0c0,0,0,0,0,0c0-0.1-0.1-0.1-0.2-0.1c-1.4,0-2.8,0-4.2,0
		c-0.1,0-0.3,0-0.4-0.1c0,0,0,0,0,0c0-0.7,0-1.4,0-2.2c0,0,0-0.1,0-0.1c0.1-0.1,0-0.1,0-0.2c0,0,0,0,0-0.1c0.1-0.1,0-0.2,0-0.3
		c0-0.1,0-0.2,0-0.3c0.1-0.1,0.1-0.3,0.2-0.4c0-0.1,0-0.3,0-0.4c0-0.2,0-0.3,0-0.5c0-0.4,0-0.9,0-1.3c0-0.1,0-0.2,0.1-0.3
		c0.1-0.1,0-0.2,0-0.3c0-0.1-0.1-0.3-0.1-0.4c0,0,0-0.1,0-0.1c0.2-0.4,0.1-0.7,0.1-1.1c0.1-2.6,0-5.1,0-7.7c0-0.2,0-0.3-0.2-0.4
		c0,0-0.1-0.1,0-0.1c0,0,0.1,0,0.1,0c0,0,0,0,0.1,0c0.2,0,0.5,0,0.7,0c1.7,0,3.4,0,5.1,0c0.1,0,0.1,0,0.2,0c0.1,0,0.1,0,0.2,0.2
		C22.2,10.5,22.3,10.8,22.4,11.2z"/>
	<path class="st0" d="M19.2,9.4c0-0.9,0-1.8,0-2.7c0-0.2,0-0.2-0.2-0.2c-3.7,0-7.3,0-11,0c-0.1,0-0.2,0-0.2,0.2c0,0.9,0,1.7,0,2.6
		c0,0.1,0,0.1,0,0.2c0.1,0,0.1,0,0.2,0c1.1,0,2.2,0,3.3,0c0.1,0,0.1,0,0.2,0c0,0,0,0,0.1,0c0,0.1,0,0.1-0.1,0.1c-0.4,0-0.7,0-1.1,0
		c-0.4,0-0.8,0-1.1,0c-0.5,0-1,0-1.5,0c0,0-0.1,0-0.1-0.1c0-1,0-2,0-3.1c0-0.1,0-0.1,0-0.2c0,0,0,0,0-0.1c0.1-0.1,0.1-0.1,0.2-0.1
		c1.1,0,2.3,0,3.4,0c0.1,0,0.1,0,0.2,0c0.9,0,1.8,0,2.6,0c0.5,0,0.9,0,1.4,0c0.1,0,0.1,0,0.2,0c1.2,0,2.3,0,3.5,0
		c0.1,0,0.2,0,0.2,0.1c0.1,1,0,2,0,3c0,0.1,0,0.2,0,0.2c-0.1,0.1-0.3,0-0.4,0c0,0-0.1,0-0.1,0c-0.1,0-0.1,0-0.2,0c-1,0-2,0-3,0
		c0,0-0.1,0-0.1-0.1c0-0.1,0-0.2,0.1-0.2c0.1,0,0.1,0,0.2,0c1.1,0,2.1,0,3.2,0C19.1,9.4,19.2,9.5,19.2,9.4z"/>
	<path class="st0" d="M18.7,26.4c-0.9,0-1.9,0-2.8,0c-0.1,0-0.1,0-0.2,0c0-0.1,0-0.1,0-0.2c1.2,0.1,2.3,0,3.5,0c0.3,0,0.7,0,1,0
		c0,0,0.1,0,0.1,0c0.2,0,0.2,0,0.2,0.2c0,0,0,0,0,0c-0.5,0-1.1,0.1-1.6,0C18.8,26.4,18.8,26.4,18.7,26.4z"/>
	<path class="st1" d="M15.7,9.6c1.1,0,2.1,0,3.2,0c0,0,0,0.1,0,0.1c0.1,0.2-0.1,0.2-0.2,0.2c-0.8,0-1.5,0-2.3,0
		c-0.1,0-0.2,0-0.2-0.1c0,0-0.1-0.1-0.1,0c0,0,0,0.1-0.1,0.1c0,0,0,0,0,0c0-0.1-0.1-0.1-0.2-0.1c-0.1,0-0.1,0-0.1-0.1
		C15.6,9.7,15.6,9.6,15.7,9.6z"/>
	<path class="st0" d="M14.5,25.9c-0.1,0-0.1-0.1-0.2-0.2c0-0.1,0.1-0.2,0-0.3c0,0,0-0.1,0.1-0.1c0.2,0,0.3,0,0.5,0
		c0.1,0,0.2,0,0.3,0c0.1,0,0.1,0,0.1-0.1c0-0.2,0-0.3,0-0.5c0-0.1,0-0.2,0-0.3c0-0.1,0-0.2-0.1-0.2c-0.1,0-0.2,0-0.3,0
		c-0.2,0-0.4,0-0.6,0c0,0,0,0-0.1,0c0,0-0.1,0-0.1-0.1c0-0.1,0.1-0.1,0.1-0.1c0.4,0,0.7,0,1.1,0c0,0,0.1,0,0.1,0c0,0,0,0.1,0,0.1
		c0,0.4,0,0.9,0,1.3c0,0,0,0,0,0.1c-0.2,0-0.3,0-0.5,0c-0.1,0-0.2,0-0.4,0c-0.2,0-0.2,0.1-0.2,0.3C14.5,25.8,14.5,25.8,14.5,25.9z"
		/>
	<path class="st0" d="M11.6,26.3c0-0.4,0-0.8,0-1.1c0,0,0,0,0,0c0.1,0,0.1,0.1,0.1,0.2c0,0.2,0,0.5,0,0.7c0,0.1,0,0.1,0,0.2
		c0.2,0,0.4,0,0.7,0c0.1,0,0.1,0,0.2,0c0.8,0,1.6,0,2.4,0c0,0,0,0,0,0c-0.1,0-0.2,0-0.4,0c-0.1,0-0.2,0-0.2-0.2c0.1,0,0.3,0,0.4,0
		c0.1,0,0.1,0,0.2,0c0.1,0,0.2,0,0.2,0.2c0,0.2,0,0.2-0.2,0.2c-1.1,0-2.2,0-3.2,0C11.7,26.3,11.6,26.3,11.6,26.3z"/>
	<path class="st1" d="M19,9.6c0.1,0,0.3,0,0.4,0c0-0.1,0-0.1,0-0.2c0-0.9,0-1.8,0-2.8c0-0.1,0-0.1,0-0.2c0.1,0,0.2,0,0.2,0.1
		c0,0.4,0,0.9,0,1.3c0,0.4,0,0.8,0,1.3c0,0.2,0,0.3-0.1,0.5c0,0.1-0.1,0.2-0.2,0.1C19.2,9.7,19.2,9.6,19,9.6C19,9.7,19,9.7,19,9.6z"
		/>
	<path class="st1" d="M19.4,6.4c0-0.1-0.1-0.1-0.2-0.1c-0.7,0-1.5,0-2.2,0c-0.5,0-1,0-1.4,0c0-0.1,0.1-0.1,0.2-0.1
		c1.1,0,2.3,0,3.4,0C19.3,6.2,19.4,6.2,19.4,6.4C19.4,6.4,19.4,6.4,19.4,6.4z"/>
	<path class="st1" d="M11.5,6.3c-0.8,0-1.5,0-2.3,0c-0.5,0-1,0-1.5,0c0-0.1,0.1-0.1,0.2-0.1c0.5,0,1,0,1.4,0c0.6,0,1.3,0,1.9,0
		C11.4,6.2,11.5,6.2,11.5,6.3z"/>
	<path class="st2" d="M7.7,9.6c1.2,0,2.4,0,3.6,0c0.1,0,0.1,0,0.2,0c0,0,0,0,0,0c0,0,0,0,0,0c0,0,0,0-0.1,0c-0.4,0-0.8,0-1.2,0
		C9.5,9.6,8.6,9.6,7.7,9.6C7.8,9.7,7.7,9.7,7.7,9.6z"/>
	<path class="st3" d="M19.4,6.4C19.4,6.4,19.4,6.4,19.4,6.4c0,0,0,0.1,0,0.1c0,1,0,2,0,2.9c0,0.1,0,0.1,0,0.2c0-1,0-2,0-3.1
		C19.4,6.5,19.4,6.4,19.4,6.4z"/>
	<path class="st4" d="M7.7,6.4c0,1.1,0,2.2,0,3.2c0,0,0,0,0,0c0-0.6,0-1.3,0-1.9c0-0.4,0-0.7,0-1.1C7.7,6.5,7.6,6.4,7.7,6.4z"/>
	<path class="st5" d="M10.8,11.7c0.2-0.1,0.4-0.1,0.6-0.1c0.1,0,0.2,0,0.2-0.1c0-0.6,0-1.1,0-1.7c0-0.1,0-0.1,0-0.2c0,0,0,0,0,0
		c0.1,0,0.1,0.1,0.1,0.2c0,0.6,0,1.2,0,1.7c0,0.1,0,0.1-0.1,0.2c-0.2,0-0.4,0.1-0.6,0C10.9,11.7,10.9,11.7,10.8,11.7z"/>
	<path class="st6" d="M15.8,26.2c0,0.1,0,0.1,0,0.2c-0.1-0.2,0-0.3,0-0.5c0-0.1,0-0.2,0-0.3c0-0.1,0-0.1,0-0.2c0-0.5,0-0.9,0-1.4
		c0,0,0,0,0-0.1c0,0,0,0,0.1,0C15.8,24.7,15.8,25.4,15.8,26.2z"/>
	<path class="st1" d="M10.3,9.6c0.4,0,0.8,0,1.2,0c0,0-0.1,0-0.1,0C11.1,9.7,10.7,9.7,10.3,9.6C10.4,9.7,10.3,9.7,10.3,9.6z"/>
	<path class="st7" d="M14.5,25.9c0-0.1,0-0.2,0-0.2c0-0.2,0-0.2,0.2-0.2c-0.1,0.1-0.1,0.1-0.2,0.1C14.5,25.6,14.5,25.7,14.5,25.9
		C14.5,25.9,14.5,25.9,14.5,25.9z"/>
	<path class="st7" d="M15.7,25.3c0,0.1,0,0.1,0,0.2c-0.1,0-0.1-0.1-0.2-0.1c0,0,0,0,0,0c0,0,0-0.1,0-0.1
		C15.6,25.2,15.6,25.3,15.7,25.3C15.7,25.4,15.7,25.3,15.7,25.3z"/>
	<path class="st7" d="M14.9,25.9c-0.1,0-0.3,0-0.4,0c0,0,0,0,0,0C14.6,25.9,14.8,25.9,14.9,25.9z"/>
	<path class="st1" d="M7.6,9.6C7.7,9.6,7.7,9.6,7.6,9.6C7.7,9.6,7.7,9.6,7.6,9.6c0.1,0.1,0.1,0.1,0.2,0.1c0,0.1-0.1,0-0.1,0
		C7.6,9.6,7.6,9.6,7.6,9.6z"/>
	<path class="st1" d="M11.5,9.8c0,0.1,0,0.2,0,0.3C11.5,10.1,11.4,9.9,11.5,9.8z"/>
	<path class="st1" d="M19.1,9.9C19,9.8,19,9.8,19.1,9.9C19,9.8,19,9.8,19.1,9.9C19.1,9.8,19.1,9.8,19.1,9.9
		C19.1,9.8,19.1,9.8,19.1,9.9z"/>
	<path class="st8" d="M27.8,24.9c-0.2,0.2-0.5,0.4-0.7,0.6c-0.1,0.1-0.2,0.1-0.3,0.1c0,0-0.1,0-0.1,0c-0.2,0-0.4,0.1-0.6,0.2
		c-0.2,0.1-0.4,0.1-0.6,0.2c-0.1,0-0.2,0-0.2-0.1c-0.1-0.1-0.2-0.1-0.3-0.1c-0.2,0-0.4,0-0.6,0c-0.1,0-0.1,0-0.2,0.1
		c0,0.1,0,0.2,0,0.3c-0.1,0.1-0.3,0.1-0.4,0.1c-0.2,0-0.3,0-0.5,0c-0.1,0-0.2,0-0.3,0c-0.1,0-0.2-0.1-0.2-0.2c0-0.1,0-0.2,0-0.3
		c0-0.2,0-0.3,0-0.5c0-0.1,0-0.2,0-0.4c0-0.3,0-0.5,0-0.8c0-0.1-0.1-0.2-0.1-0.2c0.1-0.1,0.3-0.3,0.2-0.5c0-0.1,0.1-0.1,0.2-0.1
		c0.1,0,0.2,0,0.4,0c0.1,0,0.2-0.1,0.2-0.1c0,0,0.1-0.1,0-0.1c-0.1,0-0.1,0-0.1,0c-0.1,0.1-0.1,0.1-0.2,0.1c-0.1,0-0.2,0-0.2-0.1
		c0-0.1,0-0.2,0.1-0.2c0.1,0,0.2-0.1,0.2-0.2c0-0.1,0.1-0.1,0.2-0.1c0.3-0.1,0.5-0.2,0.8-0.4c0,0,0,0,0.1,0c0.1,0,0.1-0.1,0.2,0
		c0,0,0.1,0,0.1,0c0-0.1,0.1-0.2,0.2-0.4c0,0,0-0.1,0-0.1c0,0,0-0.1,0-0.1c0.1-0.1,0.1-0.2,0.1-0.3c0.1-0.2,0.1-0.4,0-0.7
		c0,0,0,0,0,0c0-0.1,0-0.1,0-0.2c0.1,0,0.2,0.2,0.2,0.4c0,0.1,0,0.3,0,0.4c0,0.1,0.3,0.2,0.4,0.1c0.1-0.1,0-0.1-0.1-0.1
		c0,0-0.1,0-0.1-0.1c0-0.1,0.1-0.1,0.1-0.1c0.1,0,0.1-0.1,0.1-0.1c0-0.1,0.1-0.3,0.1-0.4c0-0.1,0-0.1,0-0.2
		c-0.1-0.2-0.1-0.4-0.1-0.5c0-0.3,0-0.6-0.1-0.8c0-0.1,0-0.1,0.1-0.2c0.1,0,0.1,0,0.2,0c0.2,0,0.4,0,0.5-0.1
		c0.1-0.1,0.2-0.2,0.2-0.3c0,0,0-0.1-0.1-0.1c-0.1,0-0.3,0.1-0.3,0.2c0,0.1,0,0.2-0.1,0.2c-0.1,0-0.1-0.1-0.1-0.2c0,0,0-0.1-0.1-0.1
		C26.1,18.1,26,18,25.9,18c-0.1,0-0.2-0.1-0.2,0c-0.1,0.1-0.1,0.2-0.2,0.2c-0.1,0-0.1,0.1-0.1,0.1c0,0.1-0.1,0.2-0.2,0.2
		c-0.2,0-0.3-0.1-0.2-0.3c0-0.2,0-0.2-0.1-0.3c-0.1,0-0.1-0.1-0.1-0.2c0-0.1-0.1-0.2-0.2-0.3c-0.1-0.1-0.2-0.1-0.3-0.1
		c-0.1,0-0.1,0.1-0.1,0.2c0,0.1,0,0.2-0.1,0.2c-0.1,0-0.1-0.1-0.1-0.2c0-0.1,0-0.2-0.2-0.2c-0.1,0-0.1,0.2-0.1,0.2
		c0,0.2,0,0.4,0,0.6c0,0.1,0,0.2-0.2,0.2c-0.3,0-0.3,0.1-0.3,0.4c0,0.1,0.1,0.2,0.2,0.2c0.3,0,0.7,0,1,0c0.1,0,0.2,0,0.2,0.1
		c0,0.1,0.1,0.2,0,0.4c0,0.1-0.1,0-0.1,0c-0.1,0-0.3,0-0.4,0c-0.4,0-0.8,0-1.2,0c-0.2,0-0.3,0-0.5,0c-0.2,0-0.2-0.1-0.3-0.2
		c0-0.1,0-0.2,0-0.3c0.1-0.3,0.1-0.7,0-1c0-0.2,0-0.5,0-0.7c0-0.1,0-0.3,0-0.4c0-0.1,0-0.2,0-0.3c0-0.1,0-0.2-0.1-0.2c0,0,0,0,0,0
		c-0.5-0.1-0.4-0.1-0.4-0.5c0-0.1,0-0.2,0-0.3c0-0.1-0.1-0.2-0.2-0.2c-0.2,0-0.2,0-0.2-0.2c0-0.1,0-0.2-0.1-0.2c0-0.1,0-0.1,0-0.2
		c0-0.4,0.1-0.8,0.1-1.1c0-0.1,0.2-0.3,0.1-0.4c0,0,0-0.1,0-0.2c0,0,0-0.1,0.1-0.1c0.4,0,0.8,0,1.2,0c0.2,0,0.2-0.1,0.2-0.2
		c0-0.1-0.1-0.2,0-0.3c0.1,0,0.2,0,0.2,0c1.3-0.1,2.5-0.2,3.8-0.2c0.2,0,0.4,0,0.6,0c0,0,0,0,0,0c0,0,0,0,0,0c0.2,0,0.4,0,0.5,0
		c0.3-0.1,0.5,0,0.6,0.2c0,0.3,0,0.5,0,0.8c-0.1,0.1,0,0.2,0,0.3c0,0.1,0,0.2,0,0.3c0,0.1,0,0.3,0,0.4c0,0,0,0.1,0,0.1
		c0,0.3-0.1,0.6,0,0.9c0,0.3-0.1,0.5-0.5,0.5c-0.2,0-0.3,0.1-0.5,0c-0.2,0-0.5,0-0.7,0c0,0-0.1,0-0.1,0c-0.2,0-0.4,0-0.5,0
		c-0.3,0-0.6,0.1-0.9,0.1c-0.2,0-0.3,0-0.5,0c-0.1,0-0.2,0-0.2,0.2c0,0.1,0,0.3,0,0.4c0,0.1-0.1,0.2,0,0.2c0.1,0,0.3,0,0.4,0
		c0.5,0,0.9,0,1.4,0c0.2,0,0.4,0.1,0.6,0.1c0.1,0,0.1,0.1,0.1,0.1c0,0-0.1,0-0.1,0c-0.1,0-0.1,0-0.1,0.1c0,0,0,0.1,0,0.1
		c0,0.3,0.1,0.4,0.4,0.3c0.2,0,0.3-0.1,0.5-0.2c0,0,0.1,0,0.1,0c0.2,0.1,0.4,0.3,0.5,0.4c0,0.1,0.1,0.1,0.1,0.2c0,0-0.1,0-0.1,0
		c0,0.1,0.1,0.1,0.2,0.1c0.1,0.1,0.3,0.3,0.3,0.5c0,0,0,0,0,0.1c0,0,0,0.1,0,0.1c0,0,0,0,0.1-0.1c0.1,0.1,0.1,0.2,0.1,0.2
		c0,0,0,0,0,0.1c0,0.1,0,0.2,0.2,0.2c0.3,0.7,0.3,1.4,0.3,2.1c0,0.1,0,0.2,0,0.2c-0.1,0-0.1,0-0.1,0c0,0,0-0.1,0-0.2
		c0-0.3-0.1-0.6-0.1-0.9c0,0,0-0.1,0-0.1c0,0,0-0.1-0.1-0.1c-0.1,0-0.1,0-0.1,0.1c0,0.1,0,0.2-0.1,0.2c0,0.1-0.1,0.1-0.2,0.1
		c-0.1,0-0.1-0.1-0.1-0.2c0,0,0,0,0,0c0-0.3,0-0.3-0.3-0.3c-0.1,0-0.1,0-0.1,0.1c0,0.1,0,0.2,0,0.4c-0.2,0.1-0.2,0.2,0,0.3
		c0,0.1-0.1,0.1-0.1,0.1c0,0-0.1,0-0.1,0.1c0,0.1,0,0.1,0.1,0.1c0.1,0,0.1,0,0.2,0c0.1,0,0.2-0.1,0.3-0.1c0.4-0.1,0.4,0,0.5,0.4
		c0,0.3,0,0.6,0,0.8c0,0.1,0,0.3,0,0.4c0.1,0,0.1-0.2,0.2-0.1c0.1,0.1,0,0.2-0.1,0.3c-0.1,0.2-0.1,0.4-0.3,0.6
		c-0.1,0.1-0.1,0.3-0.3,0.4c-0.1-0.1,0-0.3,0.1-0.4c0.1-0.2,0.1-0.3,0.1-0.5c0-0.1,0-0.2-0.1-0.2c-0.1-0.1-0.1-0.2-0.2-0.3
		c0-0.1-0.1-0.2-0.2-0.2c-0.1,0-0.1,0-0.2,0c0-0.2,0-0.4,0-0.5c0,0,0-0.1-0.1-0.1c-0.1,0-0.1,0.1-0.1,0.1c0,0.1,0,0.3,0,0.4
		c0,0.1,0,0.2,0,0.2c0,0.1,0,0.1,0.1,0.1c0,0.1,0,0.1-0.1,0.1c-0.1,0-0.1,0.1-0.1,0.2c0,0.1,0,0.2-0.2,0.2c0,0,0,0,0,0
		c-0.3-0.1-0.3,0-0.3,0.3c0,0.2,0,0.4,0.1,0.6c0,0,0,0,0,0c-0.1,0.2-0.1,0.4-0.2,0.6c-0.1,0.1-0.2,0.1-0.1,0.3
		c0.1,0.1,0.3,0.1,0.4,0C27.5,24.9,27.6,24.8,27.8,24.9C27.7,24.8,27.8,24.7,27.8,24.9C27.8,24.8,27.8,24.8,27.8,24.9z"/>
	<path class="st9" d="M24.2,12.3c0.2,0,0.3,0,0.5-0.1c0.1-0.1,0.2-0.1,0.3,0c0.3,0,0.5,0,0.8,0c0.4-0.1,0.7,0,1.1,0
		c0,0.1-0.1,0-0.2,0.1c-0.7,0-1.4,0-2,0.1c-0.5,0-1.1,0.1-1.6,0.1c-0.1,0-0.1,0-0.2,0c0.4-0.1,0.8-0.2,1.2-0.1
		C24.1,12.3,24.2,12.3,24.2,12.3z"/>
	<path class="st8" d="M27.9,22.4c0.1,0,0.2,0,0.4,0.1c0.1,0,0.1,0.1,0.1,0.2c0,0.1,0.1,0.2,0.1,0.3c0.1,0.1,0.1,0.2,0.1,0.4
		c0,0.2-0.2,0.4-0.2,0.7c0,0,0,0,0,0c0,0.1-0.1,0.2-0.1,0.3c-0.2,0.1-0.3,0.2-0.4,0.4c0,0,0,0-0.1,0c-0.1,0.1-0.2,0.1-0.3,0.3
		c-0.1,0.1-0.2,0.1-0.2,0.1C27.1,25,27,25,27,24.8c0-0.1,0-0.1,0.1-0.1c0.1,0,0.1-0.1,0.1-0.2c0,0,0-0.1,0-0.1
		c0.1-0.2,0.1-0.3,0-0.5c-0.1-0.2-0.1-0.5,0-0.7c0-0.1,0.1-0.1,0.2-0.1c0.1,0,0.1,0,0.2,0.1c0.1,0,0.1,0,0.1,0c0.1,0,0-0.1,0-0.1
		c0-0.1,0-0.2,0.1-0.3c0.1,0,0.1,0,0.1-0.1C27.8,22.6,27.8,22.5,27.9,22.4z"/>
	<path class="st8" d="M29,22.6c0,0,0,0.1-0.1,0.1c-0.1,0-0.1,0.1-0.1,0.1c0,0.1-0.1,0.1-0.1,0.1c-0.1,0,0-0.1,0-0.1
		c0-0.2,0-0.3,0-0.5c0-0.2-0.1-0.4,0-0.7c0-0.1,0-0.2-0.1-0.3c-0.1-0.1-0.2-0.1-0.3,0c-0.2,0-0.3,0.1-0.5,0.1
		c-0.1,0-0.2-0.1-0.2-0.2c0-0.1,0-0.2,0.1-0.1c0.1,0,0.1,0,0.1-0.1c-0.1-0.1-0.1-0.2,0-0.3c0-0.1,0-0.3,0-0.4c0-0.1,0-0.2,0.1-0.1
		c0,0,0.1,0,0.1,0c0.2-0.1,0.3,0,0.3,0.2c0,0.1,0,0.1,0,0.2c0,0.1,0,0.1,0.1,0.1c0.1,0,0.1,0,0.2-0.1c0-0.1,0-0.2,0.1-0.3
		c0-0.1,0-0.1,0.1-0.1c0.1,0,0.1,0,0.1,0.1c0,0,0,0,0,0c0,0.3,0.1,0.6,0.1,0.9c0,0.1,0,0.3,0.1,0.4c0.1,0.1,0,0.3,0,0.4
		c0,0.2-0.1,0.3-0.1,0.5C29.1,22.4,29,22.5,29,22.6z"/>
	<path class="st2" d="M15.7,9.6c0,0-0.1,0.1-0.1,0.1c0,0.1,0.1,0,0.1,0c0.1,0,0.2,0,0.2,0.1c0,0-0.1,0-0.1,0c0,0-0.1,0-0.1,0.1
		c0,2.8,0,5.7,0,8.5c0,0.3,0,0.6,0,0.9c0,0.1,0,0.1,0,0.2c-0.1,0.1-0.1,0.2-0.2,0.1c0-0.1,0-0.1,0-0.2c0-3.2,0-6.4,0-9.6
		c0-0.1,0-0.2,0-0.2c0,0,0,0,0,0C15.6,9.6,15.7,9.6,15.7,9.6z"/>
	<path class="st0" d="M15.4,9.7c0-0.1,0-0.2,0.1-0.1c0,0.1,0,0.1,0,0.2c0,2.9,0,5.8,0,8.7c0,0.5,0,1,0,1.5c0,0,0,0.1,0,0.1
		c0,0.1,0,0.2,0,0.2c-0.1,0-0.1,0-0.1-0.1c0-0.1,0-0.2,0-0.3c0-0.1,0-0.1,0-0.2c0-3.3,0-6.6,0-9.9C15.4,9.8,15.4,9.8,15.4,9.7z"/>
	<path class="st0" d="M11.9,12.8c0.1,0.2,0.1,0.3,0.1,0.5c-0.1,0.4-0.1,0.9-0.1,1.4c0,0.2,0,0.4-0.1,0.7c0,0.1,0.1,0.2,0.1,0.3
		c0,0.4,0,0.8,0,1.2c0,0.1,0,0.2,0,0.3c0,0.1,0,0.1,0,0.2c-0.1,0.1-0.1,0-0.2,0c0,0-0.1-0.1-0.1-0.1c0,0,0-0.1,0-0.1
		c0-0.5,0-1.1,0-1.6c0,0,0,0,0-0.1c0.1-0.2,0.1-0.3,0.1-0.5c0-0.3,0-0.6,0-0.9c0-0.1,0-0.2,0-0.4c0-0.1,0-0.1,0.1-0.2
		c0.1-0.1,0.1-0.2,0-0.3c0-0.1,0-0.1,0-0.2C11.8,12.9,11.8,12.8,11.9,12.8z"/>
	<path class="st0" d="M11.6,11.7c0,0,0-0.1,0-0.1c0-0.6,0-1.2,0-1.8c0,0,0-0.1,0-0.1c0,0,0,0,0,0c0,0,0-0.1,0-0.1
		c0.3,0.1,0.3,0.4,0.3,0.7c0,0.4,0,0.7,0,1.1c0,0,0,0.1,0,0.1c-0.1,0.2,0,0.3,0.1,0.5c0.1,0.1,0.1,0.3,0.1,0.4c0-0.1,0-0.2,0-0.3
		c0-0.1,0-0.1,0.1-0.1c0.1,0,0.1,0,0.1,0c0.1,0,0,0.1,0,0.1c0,0.2-0.1,0.5,0,0.7c0,0.1,0,0.1-0.1,0.2c-0.1,0-0.1,0-0.1-0.1
		c0-0.1-0.1-0.1-0.2-0.1c-0.1-0.1,0-0.3,0-0.5c0-0.1,0-0.2-0.1-0.3C11.7,11.8,11.6,11.8,11.6,11.7z"/>
	<path class="st0" d="M11.6,17.5c0.1,0,0.1,0,0.2,0c0.2-0.1,0.3,0,0.4,0.2c0,0,0,0,0.1,0c0.1,0,0.2,0.1,0.1,0.2c0,0.2,0,0.5,0,0.7
		c0,0.1,0,0.2,0.1,0.3c0,0,0,0,0,0.1c0.1,0.2,0.1,0.2,0.3,0.2c0,0.1-0.1,0.1-0.1,0.2c0,0.1,0,0.2,0.1,0.2c0.1,0,0.1,0,0.1,0.1
		c0,0.1,0,0.1-0.1,0.2c-0.1,0.1,0,0.1-0.1,0.2c0,0.1,0,0.1-0.1,0.2c-0.1-0.1-0.1-0.2-0.2-0.4c0-0.2-0.1-0.3-0.1-0.5
		c-0.1-0.1,0-0.3-0.2-0.4c-0.1-0.1-0.2-0.2-0.1-0.3c0-0.1,0-0.2-0.1-0.2c-0.1-0.1-0.2-0.2-0.2-0.4c0-0.1-0.1-0.1-0.2-0.2
		c-0.1-0.1-0.2-0.1-0.2-0.2C11.5,17.6,11.6,17.5,11.6,17.5z"/>
	<path class="st0" d="M15.5,23.5c-0.4,0-0.7,0-1.1,0c0,0-0.1,0-0.1,0c-0.1,0-0.2,0-0.2-0.1c0-0.1,0.1,0,0.2,0c0.3,0,0.5,0,0.8,0
		c0.2,0,0.3-0.1,0.3-0.3c0-0.3,0-0.7,0-1c0-0.4,0-0.9,0-1.3c0-0.1,0-0.2,0.1-0.2c0.1,0.1,0.1,0.3,0,0.4c0,0,0,0,0,0.1
		c0,0.7,0,1.5,0,2.2C15.6,23.3,15.6,23.4,15.5,23.5z"/>
	<path class="st10" d="M14.1,23.5c0.4,0,0.8,0,1.2,0c0.1,0,0.1,0,0.1,0.1c0,0.1,0,0.1,0,0.2c0,0.1,0,0.1-0.1,0.1c-0.4,0-0.8,0-1.2,0
		c0,0-0.1,0-0.1,0C14.1,23.7,14.1,23.6,14.1,23.5z"/>
	<path class="st0" d="M11.6,24.8c0,0,0-0.1,0-0.1c0,0,0,0,0-0.1c0.2-0.3,0.4-0.6,0.5-0.8c0,0,0,0,0.1-0.1c0,0,0.1,0,0.1,0
		c0.2,0.1,0.2,0.1,0.2,0.3c0,0.1,0,0.1-0.1,0.2c0,0.1-0.1,0.2-0.3,0.1c-0.1,0-0.1,0-0.1,0c0,0.1-0.2,0.1-0.1,0.2
		c0.1,0.1,0,0.2,0,0.4c0,0,0,0.1-0.1,0.1c0,0-0.1-0.1-0.1-0.1C11.8,24.8,11.7,24.8,11.6,24.8z"/>
	<path class="st0" d="M12.8,20.4c0.1,0,0.1,0.1,0.1,0.2c0,0.4,0,0.7,0,1.1c0,0.1,0,0.2,0.1,0.3c0,0.1,0,0.1,0,0.2c0,0,0,0.1-0.1,0.1
		c0,0.1-0.1,0.2-0.2,0.1c-0.1,0-0.1,0-0.1,0.1c0-0.2,0-0.4,0-0.5c0.1-0.1,0.1-0.2,0.1-0.3c0-0.4,0-0.7,0-1.1
		C12.7,20.5,12.7,20.4,12.8,20.4z"/>
	<path class="st11" d="M15.5,20c0-0.1,0-0.1,0-0.2c0-3.4,0-6.8,0-10.2c0,0,0,0,0,0c0,0.9,0,1.9,0,2.8c0,2.4,0,4.7,0,7.1
		c0,0.1,0,0.1,0,0.2c0,0.1,0,0.1,0,0.2C15.6,20,15.6,20,15.5,20z"/>
	<path class="st0" d="M15.4,9.7c0,3.4,0,6.8,0,10.2c0,0,0-0.1,0-0.1c0-3.3,0-6.6,0-9.9C15.4,9.8,15.3,9.8,15.4,9.7z"/>
	<path class="st12" d="M12.8,20.4c0,0.5,0,0.9,0,1.4c0,0.1,0,0.2-0.1,0.2c0,0,0,0,0,0c0-0.2,0-0.4,0-0.6c0.1-0.4,0-0.8,0-1.2
		c0-0.4-0.1-0.7-0.3-1c0-0.1-0.1-0.2,0-0.3c0,0,0.1,0.1,0.1,0.1c0,0,0,0,0,0c-0.1,0.2,0.1,0.3,0.1,0.4c0,0,0,0.1,0,0.1
		c0,0.2,0.1,0.3,0.1,0.5C12.8,20.2,12.8,20.3,12.8,20.4z"/>
	<path class="st13" d="M15.5,23.5c0-0.8,0-1.7,0-2.5c0.1,0,0.1,0.1,0.1,0.1c0,0.3,0,0.5,0,0.8c0,0.2,0,0.3,0.2,0.4
		c0,0.1,0,0.3,0,0.4c0,0,0,0.1,0,0.1c-0.2,0-0.1,0.2-0.1,0.3c0,0,0,0.1,0.1,0.1c0.1,0.1,0.1,0.1,0,0.2
		C15.6,23.4,15.6,23.4,15.5,23.5C15.5,23.5,15.5,23.5,15.5,23.5z"/>
	<path class="st14" d="M12.6,22C12.6,22,12.7,22,12.6,22c0,0.2,0,0.4-0.1,0.6c0,0.1,0,0.1,0,0.2c0,0.2,0,0.4-0.2,0.6
		c0,0.1,0,0.1-0.1,0.2c0,0-0.1,0.1-0.1,0.1c0-0.1,0-0.1,0-0.2c0.1-0.2,0.1-0.4,0.2-0.5c0-0.1,0-0.1,0-0.2
		C12.4,22.5,12.6,22.3,12.6,22C12.6,22,12.6,21.9,12.6,22z"/>
	<path class="st15" d="M11.8,11.8c0.1,0.1,0.1,0.2,0.1,0.3c0,0.2,0,0.3,0,0.5c0,0.1,0,0.1,0,0.2c-0.1,0.1-0.1,0.2-0.1,0.3
		c0,0.1,0,0.2,0,0.2c0,0,0,0.1-0.1,0.1c0,0,0-0.1,0-0.2c0-0.4,0-0.8,0-1.3C11.8,12,11.8,11.9,11.8,11.8z"/>
	<path class="st14" d="M12.2,23.7c-0.1,0.2-0.2,0.4-0.3,0.5c-0.1,0.1-0.1,0.2-0.2,0.3c0,0-0.1,0.1-0.1,0.1c-0.1-0.1-0.1,0-0.1,0.1
		c-0.1-0.1,0-0.1,0-0.2c0.2-0.3,0.4-0.6,0.6-0.9c0,0,0-0.1,0.1-0.1C12.2,23.6,12.2,23.6,12.2,23.7C12.2,23.7,12.2,23.7,12.2,23.7z"
		/>
	<path class="st0" d="M11.5,9.5c-1.2,0-2.3,0-3.5,0c-0.1,0-0.1,0-0.2,0c1.2,0,2.3,0,3.5,0C11.4,9.4,11.5,9.4,11.5,9.5z"/>
	<path class="st16" d="M11.6,17.5c0,0.1,0,0.1-0.1,0.1c-0.1-0.1-0.2-0.1-0.2-0.2c0,0,0,0,0,0c0,0,0.1,0,0.1,0c0.1,0,0.1,0,0.1-0.1
		c0-0.5,0-1.1,0-1.6c0-0.1,0-0.1-0.1-0.2c0-0.1,0-0.1,0.1-0.1c0,0,0.1,0,0.1,0c0,0.6,0,1.1,0,1.7c0,0.1,0,0.1,0,0.2
		C11.6,17.3,11.6,17.4,11.6,17.5z"/>
	<path class="st0" d="M19.2,9.4c-0.1,0.1-0.1,0-0.2,0c-1.1,0-2.2,0-3.3,0c0.1-0.1,0.1,0,0.2,0C17,9.4,18.1,9.4,19.2,9.4z"/>
	<path class="st17" d="M15.5,20.9c0-0.1,0-0.3,0-0.4c0,0,0-0.1,0-0.1c0-0.1,0-0.1,0-0.2c0.1,0.1,0.2,0.2,0.2,0.3c0,0.1,0,0.1,0,0.2
		c0,0.1,0,0.1,0,0.2C15.7,20.9,15.6,21,15.5,20.9z"/>
	<path class="st0" d="M15.8,23.4c0.1,0.1,0.1,0.1,0,0.2c0,0,0,0.1,0,0.1c0,0.1,0,0.1-0.1,0.2c-0.1,0-0.1,0-0.1,0c0-0.1,0-0.3,0-0.4
		C15.6,23.4,15.6,23.4,15.8,23.4C15.8,23.5,15.7,23.4,15.8,23.4z"/>
	<path class="st0" d="M12.2,23.7C12.2,23.6,12.2,23.6,12.2,23.7c0-0.1,0-0.1,0-0.1c0.1-0.1,0.1-0.2,0.2-0.3c0.1-0.1,0.1-0.2,0.1-0.3
		c0-0.1,0-0.2,0.1-0.3c0.1,0.1,0.1,0.2,0,0.4c0,0,0,0.1,0,0.1c0,0,0,0.1,0,0.1C12.4,23.4,12.4,23.6,12.2,23.7z"/>
	<path class="st0" d="M12.3,13.2c0-0.1,0-0.1,0-0.2c0,0,0-0.1,0.1-0.1c0,0,0.1,0,0.1,0.1c0,0.1,0,0.3,0,0.4c0,0.1,0,0.1-0.1,0.1
		c-0.1,0,0-0.1,0-0.1C12.3,13.3,12.3,13.2,12.3,13.2z"/>
	<path class="st18" d="M15.7,23.5c-0.1,0-0.1,0-0.2,0c0,0,0,0,0,0c0-0.1,0-0.1,0.1-0.1c0,0,0.1,0,0.1-0.1c0,0,0-0.1,0-0.1
		c-0.1,0-0.1-0.1-0.1-0.1c0,0,0,0,0,0c0-0.2,0-0.3,0.2-0.3c0,0,0.1,0.1,0,0.1C15.7,23.1,15.7,23.3,15.7,23.5z"/>
	<path class="st0" d="M14.1,23.5c0,0.1,0,0.2,0,0.3c-0.1,0-0.1,0-0.2-0.1c0-0.1,0-0.2,0.1-0.3C14.1,23.4,14.1,23.5,14.1,23.5z"/>
	<path class="st19" d="M15.5,23.9c0.1,0,0.1,0,0.2,0c0,0,0,0,0.1,0c0,0,0,0,0,0c-0.1,0-0.1,0.1-0.1,0.2c0,0.3,0,0.6,0,0.9
		c0,0.1,0,0.2,0,0.2c0,0,0,0.1,0,0.1c0-0.4,0-0.9,0-1.3C15.5,24,15.5,24,15.5,23.9C15.5,23.9,15.5,23.9,15.5,23.9z"/>
	<path class="st0" d="M11.8,26c-0.1-0.1,0-0.1,0-0.2c0-0.2,0-0.4,0-0.6c0-0.1-0.1-0.1-0.1-0.1c0.1-0.1,0.2,0,0.1,0.1
		C11.7,25.5,11.8,25.8,11.8,26z"/>
	<path class="st0" d="M12.7,26.2c-0.2,0-0.5,0-0.7,0c0,0-0.1,0-0.1,0c0.2,0,0.5,0,0.7,0C12.6,26.2,12.6,26.1,12.7,26.2z"/>
	<path class="st20" d="M24.4,22.2c-0.2,0.2-0.4,0.3-0.7,0.4c-0.1,0-0.2,0.1-0.3,0.1c0,0-0.1,0-0.2,0c-0.3,0-0.7,0.1-1,0.2
		C21.7,23,21.2,23,20.6,23c-0.1,0-0.2,0-0.3,0c-0.1,0-0.1,0.1-0.2,0.2c0,0.1,0,0.1-0.1,0.2c-0.3,0-0.6,0-0.9,0c0,0-0.1,0-0.1-0.1
		c0-0.6,0-1.1,0-1.7c0-0.6,0-1.2,0-1.8c0.1-0.1,0.3-0.1,0.4,0c0.3,0,0.7,0,1,0c0,0,0,0,0,0c0.1,0.1,0.1,0.2,0.3,0.3
		c0.1,0,0.1,0.1,0.2,0.1c0.1,0.1,0.2,0,0.3,0.1c0,0,0.1,0,0.1,0c0.3,0,0.5,0,0.8-0.1c0.5-0.2,1-0.2,1.4-0.3c0.3,0,0.7-0.1,1,0
		c0.1,0,0.2,0.1,0.3,0.1c0,0,0,0.1,0,0.1c0,0.1-0.1,0.1,0,0.3c0.1,0.1-0.1,0.2-0.2,0.3c-0.1,0.1-0.2,0.2-0.3,0.2
		c-0.1,0-0.1,0.1-0.1,0.2c0,0.3,0.1,0.5,0.2,0.7C24.6,21.9,24.6,22,24.4,22.2z"/>
	<path class="st20" d="M19.1,13c0.1-0.1,0.1,0,0.2,0c0.5,0,1.1,0,1.6,0c0,0,0.1,0,0.1,0c0.1,0,0.1,0.1,0.1,0.2
		c0,0.3-0.1,0.5-0.1,0.8C21,14.3,21,14.6,21,15c0,0.2,0,0.5,0,0.7c0,0.1,0,0.1,0,0.2c0,0.1-0.1,0.3-0.1,0.4c0,0.2-0.1,0.3-0.1,0.5
		c0,0.1,0,0.1-0.1,0.2c-0.5,0-0.9,0-1.4,0c-0.1,0-0.1,0-0.2-0.1c0,0,0-0.1,0-0.1c0-1.2,0-2.4,0-3.6C19.1,13.1,19.1,13.1,19.1,13z"/>
	<path class="st0" d="M15.8,10C15.8,9.9,15.8,9.9,15.8,10C15.8,9.9,15.8,10,15.8,10c0.3,0.1,0.3,0.3,0.3,0.4c0,0,0,0,0,0.1
		c0,2.4,0,4.8,0,7.2c0,0.5-0.1,1-0.1,1.4c0,0,0,0.1,0,0.1c-0.1,0.1-0.1,0.3-0.1,0.4c0,0.1,0,0.2,0.1,0.3c0.1,0.1,0,0.2,0,0.3
		c0,0.1-0.1,0.1-0.1,0.2c0,0.5,0,1.1,0,1.6c0,0.1,0,0.1,0,0.2c0,0,0,0,0,0.1c-0.1,0.2,0.1,0.4,0,0.6c0,0,0,0.1,0,0.1
		c0,0.1,0,0.2-0.1,0.2c0,0,0,0,0-0.1c0-0.7-0.1-1.5,0-2.2c0-0.2,0-0.4,0-0.6c0-0.6,0-1.1,0-1.7c0-0.1,0-0.2,0-0.2
		C15.7,15.5,15.7,12.8,15.8,10C15.7,10,15.7,10,15.8,10z"/>
	<path class="st0" d="M20.7,16.9c0,0,0-0.1,0.1-0.2c0.1,0,0.1,0.1,0.1,0.1c0.3,0,0.5,0,0.8,0c0.2,0,0.2,0.1,0.2,0.2
		c0,0.8,0,1.7,0,2.5c0,0.2,0,0.2-0.2,0.2c-0.3,0-0.6,0-0.9,0c-0.1,0-0.2,0-0.2,0c0,0,0,0,0,0c0.1-0.1,0.3-0.2,0.4-0.3
		c0.1,0,0.3,0.1,0.4,0c0.1,0,0.2,0,0.2-0.1c0-0.1,0.1-0.2,0-0.3c-0.1-0.1-0.1-0.1-0.1-0.2c0-0.1,0-0.2,0-0.3c0-0.4,0-0.9,0-1.3
		c0-0.1,0-0.1-0.1-0.1c-0.2,0-0.4,0-0.6,0.1c0,0-0.1,0-0.1,0c0,0-0.1,0-0.1,0c0,0,0-0.1,0-0.1C20.6,17,20.8,17,20.7,16.9z"/>
	<path class="st0" d="M22.3,24.4c0,0,0,0.1-0.1,0.1c-0.1,0-0.1-0.1-0.1-0.1c-0.1-0.3-0.1-0.6,0-0.8c0-0.1,0.1-0.1,0.2-0.1
		c0.1,0,0.1,0.1,0.1,0.2c0,0.1-0.1,0.3,0.1,0.4C22.5,24.1,22.4,24.2,22.3,24.4z"/>
	<path class="st21" d="M20,23.3c0.1-0.1,0.1-0.3,0.2-0.3c0,0,0,0,0,0.1c0,0.1,0,0.2,0.2,0.2c0.3,0,0.6,0,0.9,0c0.3,0,0.6,0,1,0
		c0.1,0,0.2,0,0.2,0.1c0,0,0,0,0,0C21.7,23.3,20.8,23.3,20,23.3z"/>
	<path class="st0" d="M20.3,23.4c0,0,0.1,0,0.1,0.1c0,0.1,0.1,0.2,0,0.3c-0.1,0.1-0.2,0.1-0.3,0.1c-0.2,0-0.2-0.1-0.1-0.3
		C20.3,23.4,20.3,23.4,20.3,23.4z"/>
	<path class="st22" d="M22.5,23.3C22.5,23.3,22.5,23.3,22.5,23.3c0.2,0,0.2,0,0.1,0.2c0,0.1-0.1,0.2-0.1,0.4c-0.1,0.5-0.2,1-0.3,1.5
		c0,0.1,0,0.1-0.1,0.2c0,0,0-0.1,0-0.1c0-0.3,0.1-0.6,0.1-1c0-0.1,0-0.1,0-0.2c0.1-0.1,0.1-0.3,0.1-0.4c0.1-0.1,0.1-0.2,0.1-0.4
		C22.5,23.5,22.5,23.4,22.5,23.3z"/>
	<path class="st23" d="M15.8,18.3c0.1,0.1,0,0.1,0,0.2c-0.1,0.6,0,1.1,0,1.7c0,1,0,1.9,0,2.9c0,0.1,0,0.2,0,0.3c0,0,0,0.1,0,0.1
		c0-0.2,0-0.5,0-0.7c0-0.2,0-0.3,0-0.5c0-0.1,0-0.1,0-0.2c0-0.3,0-0.7,0-1c0-0.1,0-0.3,0-0.4c0-0.1,0-0.1,0-0.2
		c-0.1-0.2,0-0.4,0-0.5c0-0.1,0-0.2,0-0.3c0-0.4,0-0.7,0-1.1C15.8,18.5,15.7,18.4,15.8,18.3z"/>
	<path class="st24" d="M19.1,13c0,1.3,0,2.6,0,3.8c0,0,0-0.1,0-0.2c0-1.1,0-2.3,0-3.4C19.1,13.2,19.1,13.1,19.1,13z"/>
	<path class="st25" d="M19.1,19.8c0,0.6,0,1.2,0,1.9c0,0.6,0,1.1,0,1.7c-0.1,0,0,0,0-0.1C19.1,22.1,19.1,20.9,19.1,19.8
		C19.1,19.8,19.1,19.8,19.1,19.8z"/>
	<path class="st26" d="M20.6,26.4c0-0.1,0-0.1,0.1-0.1c0.1,0.1,0.3,0,0.4,0c0.2,0,0.4,0,0.6,0c0.1,0,0.2,0,0.2-0.2
		c0-0.1,0-0.2,0.1-0.3c0,0,0,0,0,0c0,0,0,0.1,0,0.1c0,0.3-0.1,0.3-0.4,0.3c-0.3,0-0.6,0-0.9,0C20.8,26.4,20.7,26.4,20.6,26.4
		L20.6,26.4z"/>
	<path class="st27" d="M20.9,13c-0.5,0-1.1,0-1.6,0c0,0,0.1,0,0.1,0c0.6,0,1.1,0,1.7,0c0,0,0.1,0,0.1,0c0,0,0,0.1,0,0.1
		C21.2,13,21,13,20.9,13z"/>
	<path class="st0" d="M22,25.8c-0.1,0,0.1,0.2-0.1,0.2c0,0-0.2-0.1-0.2-0.2c0-0.1,0-0.2,0.1-0.2C21.9,25.7,22,25.8,22,25.8z"/>
	<path class="st0" d="M19.1,19.8C19.1,19.8,19.1,19.8,19.1,19.8c-0.1,0-0.1,0.1-0.2,0c0,0,0-0.1,0-0.1c0,0,0.1-0.1,0.1-0.1
		c0.1,0,0.2,0.1,0.3,0c0,0,0.1,0,0.1,0.1C19.4,19.8,19.3,19.7,19.1,19.8z"/>
	<path class="st0" d="M22.2,25.5C22.2,25.5,22.2,25.5,22.2,25.5c0,0.2,0.1,0.4-0.1,0.5c0,0,0,0,0,0c0-0.1,0-0.2-0.1-0.3
		C21.9,25.6,22,25.5,22.2,25.5z"/>
	<path class="st0" d="M19.1,23.2C19.1,23.3,19.1,23.3,19.1,23.2C19.2,23.3,19.2,23.3,19.1,23.2c0.1,0.1,0,0.1,0,0.1
		c0,0-0.1,0.1-0.1,0.1c0,0-0.1-0.1-0.1-0.1C19,23.2,19.1,23.3,19.1,23.2z"/>
	<path class="st0" d="M15.7,23.9C15.7,23.9,15.7,23.9,15.7,23.9c0-0.1,0-0.1,0-0.2c0,0,0.1,0,0.1,0.1C15.9,23.8,15.8,23.9,15.7,23.9
		C15.7,23.9,15.7,23.9,15.7,23.9z"/>
	<path class="st28" d="M22.1,26c0.1-0.1,0-0.3,0.1-0.4c0.1-0.3,0.1-0.7,0.2-1.1c0-0.2,0.1-0.4,0.1-0.6c0,0,0,0,0.1,0c0,0,0,0,0.1,0
		c0,0.1,0,0.1,0.1,0.2c0,0.3,0,0.5,0,0.8c0,0.1,0,0.2,0,0.3c0,0.2,0,0.4,0,0.5c0,0.1,0,0.2,0,0.2c0,0.2,0.1,0.2,0.2,0.3
		c0.1,0,0.2,0,0.3,0c0.1,0,0.2,0,0.4,0c0.2,0.1,0.4,0,0.5,0c0-0.1,0-0.2,0-0.3c0-0.1,0-0.1,0.1-0.1c0.2,0,0.4-0.1,0.5,0
		c0.1,0,0.2,0,0.3,0c0.1,0,0.1,0,0.1,0.1c0,0.1,0.1,0.1,0.2,0.1c0.3-0.1,0.5-0.1,0.8-0.3c0.2-0.1,0.4-0.1,0.6-0.1
		c-0.1,0.1-0.3,0.2-0.5,0.3c-0.5,0.2-1,0.3-1.5,0.5c0,0-0.1,0-0.1,0c-0.7,0.1-1.4,0.2-2.1,0.3c-0.5,0-1.1,0.1-1.6,0.1
		c0,0-0.1,0-0.1,0c-0.1,0-0.1-0.1-0.1-0.1c0-0.1,0.1-0.1,0.1-0.1c0.2,0,0.4,0,0.6,0c0.1,0,0.3,0,0.4,0c0.2,0,0.2,0,0.2-0.2
		C22.1,26.1,22.1,26.1,22.1,26C22.1,26,22.1,26,22.1,26z"/>
	<path class="st29" d="M22.1,26c0,0.4,0,0.4-0.4,0.4c-0.3,0-0.5,0-0.8,0c-0.1,0-0.2,0-0.2,0.1c0,0.1,0.1,0.1,0.2,0.1
		c0.2,0,0.5,0,0.7,0c0.3,0,0.5,0,0.8,0c0.4,0,0.8,0,1.3-0.1c0.2,0,0.3,0,0.5-0.1c0.2,0,0.3-0.1,0.5-0.1c-0.1,0.1-0.1,0.1-0.2,0.1
		c-0.9,0.2-1.8,0.2-2.7,0.3c-0.2,0-0.5,0-0.7,0c-0.1,0-0.2,0-0.3,0c-0.1,0-0.2-0.1-0.1-0.2c0.4,0,0.8,0,1.1,0
		C22,26.4,22,26.4,22.1,26C22.1,26.1,22.1,26.1,22.1,26z"/>
	<path class="st30" d="M12.2,23.6C12.2,23.6,12.2,23.6,12.2,23.6c-0.1,0.1-0.1,0.2-0.2,0.3c-0.1,0.2-0.2,0.4-0.4,0.5
		c-0.1,0.1,0,0.2-0.1,0.2c-0.2,0-0.2,0-0.2-0.2c0-0.1-0.1-0.2-0.2-0.2c-0.1,0-0.2,0-0.2,0.1c0,0.1,0.1,0.2,0.2,0.2c0,0,0.1,0,0.1,0
		c0.1,0,0.1,0,0.1,0.1c0,0,0,0.1,0,0.1c-0.1,0.1-0.2,0.3-0.4,0.4c-0.1,0.1-0.3,0.1-0.4,0.3c0,0-0.1,0-0.1,0c-0.2,0-0.3,0.1-0.3,0.2
		c0,0.1-0.1,0.2-0.2,0.3c-0.1,0-0.2,0.1-0.2,0.1c-0.1,0.1-0.2,0.1-0.2,0c0-0.1-0.1-0.1-0.1-0.1C9.2,26.1,9,26,8.9,26
		c-0.1,0-0.2,0-0.2,0.2c0,0.1-0.1,0.1-0.2,0.1c-0.1,0-0.2,0.1-0.3,0.2c-0.1,0.1-0.2,0.1-0.4,0.1l0,0c-0.1,0-0.1,0-0.2,0
		c-0.1-0.1-0.1,0-0.2,0.1c-0.1,0-0.3,0-0.4,0c-0.2,0-0.3-0.1-0.5-0.1c-0.2,0-0.3,0.1-0.4,0.2c0,0,0,0-0.1,0c-0.2,0-0.4,0-0.6,0
		c-0.2-0.1-0.2-0.1-0.3,0c0,0-0.1,0-0.1,0c-0.1-0.1-0.2-0.1-0.3,0c0,0-0.1,0-0.1,0c-0.1,0-0.2,0-0.3,0c-0.2,0-0.4-0.1-0.4-0.3
		c0-0.3-0.1-0.5-0.2-0.7c0-0.1,0-0.1,0-0.2c0-0.2,0-0.4,0-0.6c0-0.1,0-0.1,0-0.2c0.1-0.1,0.1-0.2,0-0.3c-0.1-0.1-0.1-0.2-0.1-0.3
		c0-0.1,0-0.2-0.1-0.2c-0.1,0-0.2-0.1-0.2-0.2c0-0.1,0-0.2,0-0.3c0,0,0-0.1,0-0.1c0-0.2,0.1-0.3,0.3-0.2c0,0,0.1,0,0.1,0
		c0.2-0.1,0.3-0.1,0.5-0.1c0.4,0,0.8,0,1.3,0c0.1,0,0.1,0,0.2,0c0.1,0,0.3,0,0.4-0.1c0.2,0,0.3,0,0.4,0c0.1,0,0.2,0.1,0.3,0.1
		c0.1,0,0.2,0,0.1-0.1c-0.1-0.1,0-0.2,0.1-0.2c0.1,0,0.1,0,0.2-0.1c0.2-0.1,0.4-0.3,0.6-0.3c0.1,0,0.1,0,0.1-0.1
		c0.1-0.1,0.1-0.2,0.2-0.2c0.2-0.1,0.3-0.2,0.3-0.4c0.1-0.2,0.2-0.3,0.2-0.5c0-0.1,0.1-0.1,0.2-0.1c0.1,0,0.2,0,0.2,0
		c0.2,0,0.2-0.1,0.2-0.2c0-0.1,0-0.2,0-0.2c0-0.1,0.1-0.2,0.2-0.1c0.1,0,0.3,0.1,0.4,0.2c0.2,0.2,0.6,0.1,0.6-0.2c0,0,0-0.1,0-0.1
		c0-0.1-0.1-0.2-0.1-0.2c0,0,0-0.1-0.1-0.1c0,0-0.1,0-0.1,0c0,0,0,0.1,0,0.1c0,0.1,0.1,0.1,0,0.2c-0.1,0-0.1,0-0.2-0.1c0,0,0,0,0,0
		C9.7,20,9.5,20,9.4,20.1c-0.1,0-0.1,0.1-0.1,0.1c0,0.1,0,0.1-0.1,0.1c-0.1,0-0.2-0.1-0.2-0.2C9,20,8.9,19.9,8.8,19.8
		c-0.1-0.1-0.1-0.2,0-0.4c0.1-0.1,0.1-0.3,0.3-0.2c0.1,0,0.1-0.1,0.1-0.1c0-0.1,0-0.1,0.1-0.2c0.1-0.2,0.2-0.2,0.3-0.2
		c0.2,0,0.2-0.1,0.2-0.2c0-0.2,0-0.3-0.1-0.5c0-0.1-0.1-0.1-0.2-0.1c-0.1,0-0.2-0.1-0.2-0.2c0-0.1-0.1-0.1-0.2-0.1
		c-0.1,0-0.3,0.1-0.4,0c-0.1,0-0.1,0-0.2,0.1c-0.1,0.2-0.1,0.4-0.2,0.6c0,0,0,0.1,0,0.1c-0.1,0.1-0.1,0.2,0,0.3
		c0.1,0.2,0.1,0.2-0.1,0.3c-0.1,0.1-0.1,0.1,0,0.2c0.1,0.2,0,0.3,0,0.5c0,0.1-0.1,0.1-0.2,0.1c-0.3-0.1-0.6,0-1,0
		c-0.1,0-0.2,0-0.3,0c0,0-0.1,0-0.1,0c-0.3-0.1-0.6,0-0.9,0c-0.1,0-0.2,0-0.2,0.1c-0.1,0.1-0.2,0.1-0.3,0.2c-0.1,0-0.3,0.1-0.4,0.2
		c0,0-0.1,0-0.1,0C4.6,20,4.5,20,4.4,20c-0.3,0-0.5-0.2-0.7-0.3c-0.1-0.1-0.1-0.2-0.1-0.4c0-0.3,0-0.6,0-0.9c0-0.2,0.1-0.3,0-0.5
		c0,0,0-0.1,0-0.1c0,0,0.1,0,0.1,0c0,0,0,0.1,0,0.1C3.9,18.1,4,18.1,4,18c0.1-0.2,0.1-0.4,0.1-0.7c0-0.2,0-0.3,0-0.5
		c0-0.2,0-0.4-0.2-0.5c0,0,0,0,0,0C4,16.2,4,16,3.9,15.8c0-0.1,0-0.2,0-0.3c0,0,0-0.1,0-0.1c0.1,0,0-0.1,0-0.2c0-0.1,0-0.1,0-0.2
		C4,15,4,15,4,15c0.1-0.1,0.1-0.3,0.2-0.5c0,0,0-0.1,0-0.1c0.1-0.1,0.1-0.3,0.2-0.5c0,0,0-0.1,0.1-0.1c0.2,0,0.2-0.1,0.2-0.3
		c0,0,0-0.1,0-0.1c-0.1-0.2-0.1-0.2,0.1-0.3c0,0,0,0,0.1,0c0.1,0.1,0.3,0.2,0.5,0.2c0.2,0,0.4,0,0.6,0c0.1,0,0.1,0,0.2,0
		c-0.1-0.1-0.2,0-0.3,0c-0.1,0-0.1,0-0.1-0.1c0.2-0.1,0.3,0,0.5,0c0.1,0,0.2,0,0.3,0c0.1,0,0.2,0,0.2,0.2c0,0.1,0.1,0.1,0.1,0.1
		c0.6,0,1.3,0,1.9,0c0.1,0,0.2,0,0.4,0c0,0,0.1,0,0.1,0c0.2-0.1,0.4-0.1,0.6-0.1c0.1,0,0.2-0.1,0.2-0.2c0-0.2,0-0.3-0.2-0.3
		c-0.2,0-0.4,0-0.6,0.1c-0.1,0-0.2,0-0.4,0c0,0,0,0,0,0c0-0.1,0-0.2-0.1-0.2c-0.2,0-0.3-0.1-0.5,0.1c-0.1,0.1-0.3,0.1-0.4,0.1
		c-0.1,0-0.2,0-0.3,0c-0.1,0-0.2,0-0.3,0.2c-0.2,0-0.4,0-0.6,0c-0.1,0-0.1,0-0.2-0.1c-0.1,0-0.2,0-0.3,0.1c0,0,0,0-0.1,0
		c-0.3,0-0.7,0-1,0c-0.1,0-0.1,0-0.2,0c-0.2-0.1-0.2-0.3-0.2-0.5c0-0.1,0.1-0.1,0.2-0.1c0.1,0,0.3,0,0.3-0.2c0,0,0.1-0.1,0.1-0.1
		c0,0,0.1,0,0.1,0c0.5,0.1,1,0,1.5,0c0.1,0,0.1,0,0.2,0c0.1,0,0.1,0,0.1,0.1c0,0.1-0.1,0.1-0.1,0.1c0,0-0.1,0-0.1,0
		c-0.2,0-0.4,0-0.6,0c-0.1,0-0.1,0-0.2,0c0.1,0.1,0.1,0.1,0.2,0.1c0.2,0,0.4,0,0.6,0c0,0,0.1,0,0.1,0c0.2-0.1,0.3-0.1,0.5,0
		c0,0,0.1,0,0.1,0c0.1-0.1,0.2-0.1,0.4-0.1c0.1,0,0.2,0,0.2-0.1c0-0.1,0.1-0.1,0.2-0.1c0.2,0,0.4-0.1,0.6-0.2c0,0,0.1,0,0.1-0.1
		c0,0,0,0,0,0c0.1,0.1,0.2,0.1,0.3,0.1c0.1,0,0.1,0,0.2,0c0.3,0.1,0.6-0.1,0.8-0.2c0.1,0,0.2,0,0.3,0c0,0,0.1,0,0.1,0
		c0.1,0.1,0.2,0.1,0.3,0.1c0.1,0,0.1,0,0.2,0c0.3,0,0.4,0.1,0.4,0.3c0,0,0,0.1,0,0.1c0,0.2,0,0.2-0.2,0.2c-0.1,0-0.2,0-0.2,0.1
		c0,0.2,0,0.3-0.1,0.5c0,0.1,0,0.1,0,0.2c0.1,0.1,0.1,0.2,0.1,0.3c0,0.4,0,0.8,0,1.2c0,0.2,0,0.2-0.2,0.2c-0.3,0-0.6,0-0.9,0
		c-0.3,0-0.3,0-0.4,0.3c0,0.1-0.1,0.2-0.2,0.2c0,0-0.1,0-0.1,0c-0.2,0-0.3,0-0.4,0.2c-0.1,0-0.2,0-0.3,0c-0.1-0.1-0.2-0.1-0.3-0.1
		c-0.3,0.1-0.6,0-0.8,0c-0.1,0-0.1,0-0.2,0c-0.1,0-0.2,0.1-0.2,0.2c0,0.1,0,0.3,0.1,0.4c0,0.2,0.1,0.3,0,0.5c0,0,0,0.1,0,0.1
		c0.1,0.1,0.1,0.2,0.2,0.3c0.1,0.1,0.2,0.1,0.3,0c0.1,0,0.1-0.1,0-0.1c0,0-0.1-0.1-0.1-0.1c0-0.1-0.1-0.1,0-0.1c0,0,0,0,0,0
		c0.1,0,0.1,0,0.2,0c0.1,0,0.2,0,0.2,0.2c0,0,0,0,0,0c0.2,0.1,0.4,0.2,0.6,0.2c0.3,0,0.6,0,0.9,0c0.2,0,0.3,0,0.5-0.1
		c0.1,0,0.1,0,0.2,0c0.4,0.1,0.8,0.2,1.1,0.5c0.1,0.1,0.2,0.2,0.2,0.2c0.1,0.1,0.1,0.1,0.2,0.2c0.2,0.3,0.4,0.5,0.5,0.8
		c0,0.1,0,0.2,0.1,0.3c0,0.2,0.1,0.3,0.1,0.4c0.1,0.3,0.2,0.6,0.2,0.9c0,0.2,0,0.4,0.1,0.6c0,0.2,0,0.4,0,0.6c0,0.2,0,0.4-0.1,0.6
		c-0.1,0-0.1,0.1-0.1,0.1c0,0.2-0.1,0.4-0.1,0.6c0,0.1-0.1,0.3-0.1,0.4c0,0.1-0.1,0.1-0.1,0.2C12.2,23.4,12.2,23.5,12.2,23.6z"/>
	<path class="st30" d="M3.9,16.4c0.2,0.1,0.3,0.2,0.3,0.4c0,0.2,0,0.4,0,0.6c0,0.2-0.1,0.5-0.1,0.7c0,0.1-0.1,0.1-0.1,0.1
		c-0.1,0-0.1-0.1-0.2-0.1c0,0,0-0.1,0-0.1c-0.1,0,0,0.1,0,0.1c0,0.1,0,0.1,0,0.2c-0.1,0.4-0.1,0.9,0,1.3c0,0,0,0.1,0.1,0.1
		c0.1,0.1,0.3,0.2,0.4,0.3c0.1,0.1,0.2,0,0.3,0c0.1,0,0.2,0,0.3,0.1c0.1-0.2,0.3-0.2,0.5-0.3c0.1,0,0.1,0,0.2-0.1
		c0-0.1,0.1-0.1,0.2-0.1c0.2-0.1,0.4,0,0.7-0.1c0,0,0,0,0,0c0.4,0.2,0.8,0,1.2,0c0.2,0,0.3,0,0.5,0c0.1,0,0.1,0,0.2-0.1
		c0.1-0.2,0-0.3,0-0.5c0-0.1,0-0.2,0.1-0.1c0.1,0,0.1,0,0.1-0.1c0-0.1-0.1-0.2-0.1-0.2c-0.1-0.1-0.1-0.2,0-0.2
		c0.1,0,0.1-0.1,0.1-0.1c0-0.2,0.1-0.5,0.2-0.7c0-0.1,0.1-0.1,0.2-0.1c0.1,0.1,0.2,0.1,0.3,0c0.2-0.1,0.3,0,0.3,0.2
		c0,0.1,0.1,0.1,0.1,0.1c0.3,0,0.3,0.2,0.4,0.3c0,0.1,0,0.2,0,0.3c0,0.2-0.1,0.3-0.3,0.2c-0.1,0-0.3,0.1-0.3,0.3
		c0,0.3-0.1,0.3-0.4,0.2c0,0.1,0,0.3-0.2,0.3c0.1,0.1,0.1,0.1,0.1,0.2c0,0,0,0.1,0,0.1c0.1,0,0.1,0.1,0.2,0.1c0,0,0.1,0.1,0,0.2
		c-0.1,0.2,0,0.2,0.2,0.3c0-0.1,0-0.3,0.1-0.3C9.6,20,9.7,20,9.8,20.2c0,0,0,0.1,0.1,0.1c0.1,0,0.1,0.1,0.1,0.1c0.1-0.1,0-0.1,0-0.1
		c0,0,0-0.1,0-0.1c0-0.1,0.1,0,0.2,0c0.1,0,0.1,0.1,0.1,0.1c0,0.1,0,0.2,0.1,0.2c0.1,0.2,0,0.4-0.2,0.5c-0.2,0-0.4,0.1-0.5-0.1
		c-0.1-0.1-0.2-0.1-0.4-0.1c-0.2,0-0.1,0.2-0.1,0.3c0,0.3-0.1,0.4-0.4,0.3c-0.1,0-0.2,0-0.2,0.1C8.4,21.7,8.3,22,8,22.2
		c-0.1,0.1-0.2,0.2-0.3,0.4c0,0-0.1,0-0.1,0c-0.2-0.1-0.3,0-0.4,0.1c-0.1,0.1-0.2,0.1-0.3,0.2c0,0.1-0.2,0-0.3,0c0,0,0,0,0,0.1
		c0,0.1,0.1,0.1,0.1,0.2c0,0.1-0.1,0.1-0.2,0.1c-0.1,0-0.2,0-0.3-0.1c-0.1-0.1-0.3,0-0.4-0.1c-0.1,0-0.1,0-0.1-0.1
		c0-0.1,0.1-0.1,0.1-0.1c0.1-0.1,0.3-0.1,0.5-0.1c0.2,0,0.3-0.2,0.5-0.1c0.2,0,0.4-0.1,0.5-0.3c0.2-0.1,0.4-0.3,0.6-0.5
		c0.1-0.1,0.1-0.2,0.2-0.3c0.1-0.1,0.1-0.2,0.2-0.4c0-0.2,0-0.4,0-0.6c0,0,0-0.1,0-0.1c0-0.1,0-0.2-0.1-0.3c0-0.1-0.1-0.2-0.2-0.2
		c0-0.1-0.1-0.1-0.1-0.1c-0.3-0.1-0.6-0.1-0.9-0.1c-0.2,0-0.4,0-0.5,0.1c-0.2,0.1-0.3,0.1-0.5,0.1C5.6,20,5.3,20,5,20.1
		c-0.3,0.1-0.6,0.1-0.9,0.1c-0.2-0.1-0.4-0.2-0.5-0.3c0,0,0-0.1,0-0.1c-0.1-0.5-0.1-0.9-0.1-1.4c0-0.2,0-0.4,0.1-0.5
		c0-0.2,0.1-0.3,0.1-0.5c0,0,0-0.1,0-0.1c0.1,0,0.1,0.1,0.1,0.1c0,0,0,0.1,0,0.1C4,17.4,3.9,17,3.7,16.9C3.8,16.7,3.7,16.5,3.9,16.4
		z"/>
	<path class="st30" d="M9,15.5c0-0.1,0.2-0.2,0.3-0.2c0,0,0.1,0,0.1,0c0.3,0,0.3,0,0.3-0.3c0-0.1,0.1-0.2,0.3-0.2c0.3,0,0.7,0,1,0
		c0.1,0,0.2,0,0.2-0.2c0-0.4,0-0.9,0-1.3c0-0.1,0-0.1,0-0.2c-0.1-0.1-0.1-0.2,0-0.4c0.1-0.1,0-0.2,0-0.2c0-0.1,0-0.2,0.1-0.3
		c0.1-0.1,0.2,0,0.3,0.1c0-0.2,0-0.3,0-0.5c0-0.1-0.2-0.2-0.3-0.1c-0.1,0-0.1,0-0.2,0c-0.2,0-0.3,0-0.4-0.2c0.1,0,0.1,0,0.2,0
		c0.2,0,0.3,0,0.5,0c0.1,0,0.1,0,0.2,0c0.1,0,0.1,0.1,0.2,0.2c0,0.5,0,1.1,0,1.6c-0.1,0.1,0,0.2-0.1,0.2c0,0.1,0,0.2,0,0.3
		c0,0,0,0.1,0,0.1c0,0.3-0.1,0.6,0,1c0,0.1,0,0.3-0.2,0.3c0,0,0,0-0.1,0.1c-0.1,0.1-0.2,0.1-0.3,0.1c-0.5,0.1-1.1,0.1-1.6,0.1
		c-0.1,0-0.3,0-0.4,0C9.1,15.6,9,15.6,9,15.5z"/>
	<path class="st30" d="M9.1,11.8c0,0.1,0,0.1-0.1,0.1c-0.2,0-0.4,0.2-0.6,0.2c-0.1,0-0.1,0-0.1,0.1c0,0.1-0.1,0.2-0.2,0.2
		c-0.1,0-0.3,0-0.4,0.1c0,0.1-0.1,0-0.2,0c-0.1-0.1-0.2-0.1-0.3,0c0,0-0.1,0-0.1,0c-0.3,0-0.6,0-0.9,0c-0.1,0-0.1,0-0.1-0.1
		c0-0.1,0.1-0.1,0.1-0.1c0.3,0,0.6,0,0.8,0c0,0,0.1,0,0.1-0.1c0-0.1-0.1-0.1-0.1-0.1c-0.3,0-0.7,0-1,0c-0.2,0-0.5,0-0.7,0
		c-0.1,0-0.1,0-0.2,0.1c0,0.1-0.1,0.1-0.2,0.1c-0.3,0-0.2,0-0.2,0.3c0,0.1,0,0.2,0.1,0.3c-0.1,0.1-0.2,0.1-0.3,0.1
		c-0.2,0-0.3-0.1-0.2-0.4c0,0,0-0.1,0-0.1c0-0.1,0-0.2,0-0.3c0-0.2,0.2-0.3,0.4-0.3c0.2,0,0.3,0,0.4-0.1c0,0,0,0,0.1,0
		c0.2,0,0.5,0,0.7,0c0.3,0,0.6,0,0.9,0c0.2,0,0.4,0,0.5-0.1l0,0c0.5,0,0.9,0,1.4-0.1C8.9,11.8,9,11.8,9.1,11.8z"/>
	<path class="st30" d="M4.8,13.2C4.8,13.2,4.7,13.2,4.8,13.2c-0.1,0.1-0.1,0.1-0.1,0.2c0.1,0.1,0.1,0.3,0,0.4c0,0.1,0,0.1-0.1,0.1
		c-0.2,0-0.2,0.2-0.2,0.3c0,0.1-0.1,0.2-0.1,0.3c-0.1,0.1-0.2,0.3-0.1,0.4c0,0.1,0,0.1-0.1,0.2c0-0.1,0-0.3,0.1-0.4
		c0.1-0.1,0-0.3,0.1-0.4c0,0,0-0.1,0-0.1c0-0.2,0.1-0.3,0.1-0.5c0-0.1,0-0.2,0.1-0.3c0.1,0,0.2-0.1,0.3-0.1c0,0,0,0,0,0
		C4.7,13.1,4.7,13.1,4.8,13.2z"/>
	<path class="st30" d="M10.4,11.7c0,0.1,0,0.1-0.1,0.1c-0.3,0.1-0.5,0.2-0.8,0.1c-0.1,0-0.1,0-0.2,0c-0.1,0-0.2,0-0.2-0.1
		c0.2-0.1,0.3,0,0.5-0.1c0.1,0,0.3,0,0.4,0C10.2,11.7,10.3,11.7,10.4,11.7z"/>
	<path class="st31" d="M3.7,17.3c-0.1,0.1,0,0.1,0,0.2c0,0.1-0.1,0.3-0.1,0.4c0-0.3,0.1-0.6,0.1-0.8c0-0.3,0.1-0.6,0.1-0.8
		c0-0.2,0-0.5,0.1-0.7c0,0.1,0,0.2,0,0.3C4,16,4,16.2,3.9,16.3c0,0,0,0,0,0c-0.1,0.2-0.1,0.4-0.1,0.6C3.8,17.1,3.8,17.2,3.7,17.3z"
		/>
	<path class="st32" d="M6.5,19.8c0.1-0.1,0.2-0.1,0.3-0.1c0.2,0,0.5,0,0.7,0c0.2,0,0.3,0.1,0.5,0.2c0,0,0.1,0.1,0,0.1
		c-0.3-0.2-0.7-0.2-1-0.2C6.8,19.8,6.7,19.8,6.5,19.8z"/>
	<path class="st33" d="M10.1,11.8c-0.1,0.1-0.2,0.1-0.3,0.1c-0.2,0-0.4,0-0.7,0c0,0,0,0,0,0c-0.5,0-1.1,0.1-1.6,0.1
		c-0.1,0-0.1,0-0.2,0c0,0,0.1,0,0.1,0c0.5,0,1,0,1.5-0.1C9.4,11.8,9.8,11.7,10.1,11.8z"/>
	<path class="st33" d="M7.4,11.9C7.4,12,7.3,12,7.4,11.9C7.1,12,6.9,12,6.8,12c-0.4,0-0.8,0-1.1,0.1c-0.1,0-0.3,0-0.4,0
		c0.2,0,0.5,0,0.7-0.1C6.4,11.9,6.9,11.9,7.4,11.9z"/>
	<path class="st34" d="M4.6,13.1c-0.1,0-0.2,0.1-0.3,0.1l0,0c0,0,0-0.1,0-0.1c-0.2,0-0.1-0.1-0.1-0.2c0-0.1,0-0.1,0-0.2
		c0,0.1,0,0.2,0,0.3C4.4,13.1,4.5,13.1,4.6,13.1C4.7,13,4.8,13,4.8,13c0.4,0,0.8,0,1.2,0c0,0.1-0.1,0.1-0.1,0.1
		C5.5,13.1,5.1,13.1,4.6,13.1C4.7,13.1,4.7,13.1,4.6,13.1z"/>
	<path class="st35" d="M3.5,18.4c0,0.2,0,0.4,0,0.6c0,0.2,0,0.4,0.1,0.6c0,0.1,0,0.1,0,0.2c-0.2-0.3-0.2-0.6-0.1-0.8
		C3.5,18.8,3.4,18.6,3.5,18.4z"/>
	<path class="st36" d="M5.1,12c-0.1,0.1-0.2,0.1-0.4,0.1c-0.3,0-0.4,0.1-0.4,0.3c0,0.1,0,0.1-0.1,0.2c0-0.1,0-0.3,0-0.4
		c0-0.1,0.1-0.2,0.2-0.2C4.8,12,5,12,5.1,12z"/>
	<path class="st37" d="M4.4,13.2C4.4,13.2,4.4,13.2,4.4,13.2c-0.1,0.1-0.1,0.2-0.1,0.3c0,0.2-0.1,0.3-0.1,0.5c0,0,0,0,0,0
		c0-0.2,0.1-0.5,0.1-0.7C4.2,13.1,4.3,13.2,4.4,13.2z"/>
	<path class="st38" d="M4.1,20.2c0.3,0,0.5,0,0.8-0.1c0,0,0.1,0,0.1,0c-0.1,0.1-0.2,0.1-0.4,0.1C4.5,20.2,4.3,20.3,4.1,20.2z"/>
	<path class="st30" d="M4,15c0,0.1,0,0.2,0,0.2c0.1,0.1,0,0.1-0.1,0.1C3.9,15.3,3.9,15.1,4,15z"/>
	<path class="st39" d="M4.1,14.1c0,0.1,0.1,0.3-0.1,0.4C4,14.4,4,14.2,4.1,14.1z"/>
	<path class="st30" d="M5.8,23C5.8,23.1,5.9,23.1,5.8,23c0,0.2-0.1,0.3-0.3,0.2c-0.1,0-0.2,0-0.3,0c-0.5,0.1-0.9,0-1.4,0
		c-0.1,0-0.1,0-0.2,0c-0.1,0.1-0.2,0.1-0.3,0c0,0-0.1,0-0.1,0c0,0.1-0.1,0.1-0.1,0.2c0.1,0.1,0,0.2,0,0.3c-0.1,0.2,0,0.4,0.2,0.5
		c0.1,0,0.1,0,0.1,0.1c0,0.1,0,0.2,0,0.2c0,0.1,0,0.1,0.1,0.1c0.1,0.1,0.1,0.2,0,0.4c0,0,0,0,0,0.1c0.1,0.2,0.1,0.4,0,0.6
		c0,0.2,0.1,0.3,0.1,0.4c0.1,0.1,0.1,0.2,0.1,0.3c0,0.1,0,0.2,0.1,0.3c0.1,0.1,0.2,0.1,0.2,0.1c0.1,0,0.2,0,0.3,0c0,0,0,0,0,0
		c-0.2,0-0.4,0.1-0.6,0c-0.1,0-0.2-0.1-0.2-0.2c-0.1-0.3-0.1-0.6-0.1-0.8c-0.1-0.5-0.2-0.9-0.2-1.4c-0.1-0.4-0.2-0.7-0.2-1.1
		c0.1-0.3,0.3-0.4,0.7-0.3c0.5,0,1,0,1.4,0C5.4,23,5.6,22.9,5.8,23z"/>
	<path class="st30" d="M8.2,26.5c0-0.1,0-0.1,0.1-0.1c0.1,0,0.1-0.1,0.2-0.1c0.1,0,0.1-0.1,0.1-0.1c0-0.1,0-0.1,0.1-0.1
		c0.1,0,0.2,0,0.3,0c0.1,0,0.1,0,0.2-0.1c0-0.1,0.1-0.1,0.1,0c0,0,0.1,0,0.1,0.1c0,0.1,0.1,0.1,0.1,0c0.1-0.1,0.2-0.1,0.3-0.2
		c0.1,0,0.1-0.1,0.1-0.2c0-0.2,0.2-0.3,0.3-0.3c0.1,0,0.1,0,0.2-0.1c0,0,0.1-0.1,0.1-0.1c0.2,0,0.3-0.2,0.4-0.3
		c0-0.1,0.1-0.1,0.2-0.2c0,0,0.1-0.1,0.1-0.2c0,0-0.1,0-0.1,0c-0.2,0-0.3-0.1-0.3-0.3c0-0.1,0-0.1,0.1-0.2c0.1-0.1,0.4,0,0.4,0.2
		c0,0.2,0.1,0.2,0.2,0.2c0,0.1-0.1,0.1-0.1,0.2c-0.3,0.4-0.7,0.8-1.2,1c-0.4,0.3-0.9,0.5-1.4,0.6c-0.2,0-0.4,0.1-0.6,0.1
		C8.3,26.5,8.2,26.5,8.2,26.5z"/>
	<path class="st40" d="M5.8,23c-0.4,0-0.9,0.1-1.3,0.1c-0.2,0-0.5,0-0.7,0c-0.2,0-0.5,0-0.6,0.2c0,0,0,0-0.1,0.1
		c0-0.2,0.1-0.3,0.4-0.3c0.4,0,0.7,0,1.1,0c0.1,0,0.1,0,0.2,0C5.1,23,5.5,23,5.8,23C5.9,23,5.9,23,5.8,23z"/>
	<path class="st41" d="M6.9,26.7c0.2,0,0.3,0,0.5,0c0,0,0,0,0.1,0c0,0,0,0,0,0c-0.5,0.1-1,0.2-1.5,0.2c0,0,0,0,0,0
		c0.1-0.1,0.1-0.1,0.2-0.1C6.5,26.7,6.7,26.7,6.9,26.7z"/>
	<path class="st42" d="M3.9,26.9c0.2,0,0.4,0,0.6,0c0.1,0,0.1,0,0.2,0c0.1-0.1,0.2,0,0.2,0c0,0,0.1,0,0.1,0c0.1-0.1,0.2,0,0.2,0
		c0.1,0,0.3,0,0.4,0c0.1,0,0.1,0,0.2,0c-0.2,0.1-0.4,0-0.6,0c-0.4,0-0.8,0-1.2,0.1C4,27,3.9,27,3.9,26.9z"/>
	<path class="st43" d="M8.4,20.5C8.4,20.5,8.4,20.5,8.4,20.5c0.1,0.4,0.1,0.6,0,0.9c0,0.1-0.1,0.1-0.2,0.2C8.3,21.3,8.4,21,8.4,20.5
		C8.4,20.6,8.4,20.5,8.4,20.5z"/>
	<path class="st41" d="M8.2,26.5c0.1,0,0.2-0.1,0.4-0.1c0.1,0,0.2,0,0.3,0C8.7,26.5,8.4,26.5,8.2,26.5c-0.1,0.1-0.2,0.2-0.3,0.1
		C7.9,26.5,8.1,26.5,8.2,26.5z"/>
	<path class="st44" d="M4.7,23c-0.1,0-0.2,0-0.3,0c-0.3,0-0.7,0-1,0c0.1,0,0.1,0,0.2,0C4,23,4.4,23,4.7,23z"/>
	<path class="st45" d="M7.4,22.4c0,0.1-0.1,0.1-0.1,0.1c-0.1,0-0.2,0.1-0.4,0.1C7.1,22.6,7.2,22.5,7.4,22.4z"/>
	<path class="st41" d="M5.8,26.9c-0.2,0-0.4,0-0.6,0c0,0,0-0.1,0.1,0c0.2,0,0.5,0,0.7,0c0,0,0,0,0.1,0c0,0,0,0,0,0
		C6,26.9,5.9,26.9,5.8,26.9z"/>
	<path class="st41" d="M7.6,26.6c0.1,0,0.2,0,0.3,0C7.7,26.7,7.6,26.7,7.6,26.6L7.6,26.6C7.5,26.6,7.5,26.6,7.6,26.6z"/>
	<path class="st46" d="M15.5,25.3c0-0.4,0-0.8,0-1.2c0-0.1,0-0.2,0.2-0.2c0,0.5,0,0.9,0,1.4c0,0,0,0.1-0.1,0.1
		C15.6,25.4,15.7,25.3,15.5,25.3z"/>
	<path class="st8" d="M20.8,19.7c0.3,0,0.6,0,0.9,0c0.1,0,0.1,0,0.1-0.1c0-0.9,0-1.7,0-2.6c0-0.2-0.1-0.1-0.2-0.1
		c-0.3,0-0.6,0-0.8,0c-0.1,0,0-0.1-0.1-0.1c0-0.2,0-0.3,0.1-0.5c0.1-0.1,0-0.3,0.1-0.4c0,0,0-0.1,0-0.1c0-0.2,0.1-0.3,0.1-0.5
		c0,0,0-0.1,0-0.1c0.1,0,0.1,0,0.1,0.1c0,0.1,0,0.1,0,0.2c0,0.1,0,0.2,0.2,0.2c0.2,0,0.2,0.1,0.2,0.2c0,0.2,0,0.4,0,0.5
		c0,0.1,0,0.2,0.2,0.2c0.1,0,0.2,0.1,0.3,0c0.1,0,0.2,0.1,0.1,0.2c-0.1,0.1,0,0.3,0,0.4c0,0.1,0,0.2,0,0.3c0,0.2,0,0.5,0,0.7
		c0,0.3,0.1,0.7,0,1c0,0.1,0,0.1,0,0.2c0,0.2,0.1,0.3,0.3,0.3c0.6-0.1,1.1-0.1,1.7-0.1c0.1,0,0.3,0,0.4,0c0,0,0.1,0,0.1,0
		c0-0.1,0-0.2,0-0.3c0-0.1,0-0.1-0.1-0.1c-0.2,0-0.5,0-0.7,0c-0.2,0-0.3-0.1-0.5,0c0,0,0,0,0,0c-0.1,0-0.2-0.2-0.1-0.5
		c0-0.1,0.1-0.1,0.2-0.1c0,0,0,0,0,0c0.2,0,0.2,0,0.2-0.2c0-0.2,0-0.5,0-0.7c0-0.1,0.1-0.1,0.1-0.1c0.1,0,0.1,0,0.2,0.1
		c0,0.1,0,0.1,0.1,0.2c0,0.1,0,0.1,0.1,0.1c0.1,0,0-0.1,0-0.1c0-0.2,0.1-0.3,0.3-0.3c0.2,0,0.3,0.2,0.4,0.4c0,0.1,0.1,0.2,0.2,0.2
		c0.2,0,0.2,0.1,0.1,0.3c-0.1,0.2,0,0.3,0.2,0.3c0.1,0,0.2-0.1,0.2-0.2c0-0.1,0-0.1,0.1-0.1c0.1,0,0.1-0.1,0.1-0.1
		c0,0,0-0.1,0.1-0.1c0.1,0.1,0.2,0.1,0.2,0c0.1,0,0.2,0.1,0.2,0.2c0,0.1,0.1,0.2,0.1,0.3c0.1,0,0.1-0.1,0.1-0.2c0-0.1,0-0.2,0.1-0.2
		c0,0,0.1-0.1,0.1-0.1c0.1,0,0.2,0,0.2,0.1c0,0.1-0.2,0.4-0.2,0.4c-0.2,0.1-0.5,0.1-0.7,0.1c-0.2,0-0.2,0-0.1,0.2c0,0,0,0,0,0.1
		c0,0.3,0,0.7,0,1c0,0,0,0.1,0,0.1c0.1,0.1,0.1,0.1,0.1,0.2c0,0.2-0.1,0.4-0.1,0.6c0,0.1-0.1,0.1-0.2,0.1c0,0-0.1,0-0.1,0
		c0,0,0,0,0.1,0c0.1,0,0.1,0,0.2,0.1c0,0.1-0.1,0.1-0.2,0.1c0,0,0,0,0,0c-0.3,0-0.5-0.2-0.4-0.5c0-0.2-0.1-0.3-0.1-0.4
		c-0.1-0.1-0.2-0.2-0.3-0.3c-0.2-0.1-0.4-0.2-0.6-0.2c-0.5,0-1,0.1-1.5,0.2c-0.2,0-0.4,0.1-0.6,0.1c-0.3,0.1-0.5,0.1-0.8,0.2
		c0,0-0.1,0-0.1,0c-0.1,0-0.1,0-0.2,0c-0.1,0-0.1,0-0.1-0.1c-0.1,0-0.1-0.1-0.2-0.1c0,0,0-0.1-0.1-0.1
		C20.6,19.9,20.6,19.8,20.8,19.7z"/>
	<path class="st8" d="M22.6,23.9C22.6,23.9,22.6,23.9,22.6,23.9c-0.1-0.1-0.1-0.2-0.1-0.3c0-0.1,0.1-0.2-0.1-0.2
		c0-0.1-0.1-0.1-0.2-0.1c-0.6,0-1.2,0-1.9,0c-0.3,0-0.3,0-0.2-0.3c0.1-0.1,0.1-0.1,0.2-0.1c0.6,0,1.2,0,1.8-0.1
		c0.3-0.1,0.6-0.1,0.8-0.2c0,0,0.1,0,0.1,0c0,0,0.1,0,0.1,0c0,0,0,0.1,0,0.1c0,0.1,0,0.1-0.1,0.1c0,0,0,0-0.1,0
		c-0.1,0-0.1,0-0.2,0.1c0,0,0,0.1,0,0.1c0.1,0,0.2,0,0.2,0c0,0,0.1-0.1,0.1-0.1c0-0.1,0.1-0.1,0.2,0c0.1,0,0.1,0.1,0,0.2
		c-0.1,0.1-0.2,0.2-0.3,0.2c-0.1,0-0.2,0-0.3,0c-0.2,0-0.2,0.1-0.2,0.2C22.9,23.7,22.8,23.7,22.6,23.9
		C22.6,23.8,22.6,23.8,22.6,23.9z"/>
	<path class="st47" d="M24.4,22.2c0-0.1,0.1-0.1,0.1-0.2c0.1-0.1,0-0.2,0-0.3c-0.2-0.2-0.3-0.4-0.2-0.7c0-0.1,0-0.2,0.2-0.2
		c0.2-0.1,0.3-0.2,0.4-0.4c0,0,0,0,0-0.1c-0.1-0.1-0.1-0.1,0-0.2c0,0,0,0,0,0c0.2,0,0.2,0.2,0.3,0.3c0,0,0,0,0,0.1l0,0
		c0.1,0.2,0,0.4,0,0.7c0,0.2-0.1,0.3-0.2,0.5c-0.1,0.1-0.2,0.2-0.2,0.4C24.6,22.1,24.5,22.1,24.4,22.2
		C24.4,22.2,24.4,22.2,24.4,22.2z"/>
	<path class="st48" d="M22.4,13.4c0.4,0,0.8,0,1.1,0c0.7,0,1.4-0.1,2.1-0.1c0.2,0,0.5,0,0.7,0c-0.3,0-0.6,0.1-0.8,0.3
		c0,0-0.1,0-0.1,0c-0.2-0.1-0.4-0.1-0.5-0.1c-1,0-1.9,0-2.9,0c-0.1,0-0.2,0-0.2-0.1C22,13.4,22.2,13.5,22.4,13.4z"/>
	<path class="st8" d="M27.4,17.2c0.1,0,0.1,0.1,0.2,0.1c-0.1,0.1-0.2,0.2-0.3,0.2c-0.1,0-0.3,0.1-0.4,0.1c-0.1,0-0.2-0.1-0.2-0.2
		c0-0.1,0-0.2,0-0.4c0-0.1,0.1-0.1,0.1-0.1c0,0,0.1,0,0.1,0c0,0,0,0,0.1,0C27.1,17.1,27.3,17.1,27.4,17.2z"/>
	<path class="st49" d="M22.4,13.4c-0.1,0.1-0.3,0-0.4,0c-0.1,0-0.1,0-0.2,0c0.1,0.1,0.1,0.1,0.2,0.1c0.4,0,0.9,0,1.3,0
		c0.3,0,0.6,0,1,0c0.3,0,0.6,0,1,0.1c0.1,0,0.2,0,0.2,0.1c0,0-0.1,0-0.1,0c-0.1-0.1-0.3-0.1-0.5-0.1c-1,0-2.1,0-3.1,0
		c0,0-0.1,0-0.1,0c0,0-0.1,0-0.1-0.1c0-0.1,0.1-0.1,0.1-0.1c0.2,0,0.4,0,0.6,0C22.3,13.4,22.4,13.4,22.4,13.4z"/>
	<path class="st8" d="M25.3,17.5c0.1,0,0.2,0,0.3,0c0.1,0,0.2,0,0.2,0c0,0,0.1,0,0.2,0c0,0.1,0.1,0.1,0.1,0.2c0,0.1-0.1,0.1-0.1,0.1
		c-0.2-0.1-0.4,0-0.7-0.1c-0.1,0-0.2,0-0.1-0.1C25.1,17.5,25.2,17.5,25.3,17.5z"/>
	<path class="st50" d="M26.5,15.8c0,0-0.1,0-0.1,0c-0.5,0-1,0.1-1.5,0.1c-0.1,0-0.2,0-0.3,0c-0.1,0-0.2,0.1-0.2,0.1
		c0,0.2-0.1,0.5-0.1,0.7c-0.1-0.1-0.1-0.2-0.1-0.3c0-0.2,0.1-0.3,0.1-0.5c0-0.1,0.1-0.1,0.2-0.1c0.3,0,0.5,0,0.8-0.1
		c0.2,0,0.5-0.1,0.7-0.1C26.2,15.8,26.4,15.8,26.5,15.8z"/>
	<path class="st51" d="M27.9,22.4c0,0.1,0,0.2,0,0.2c-0.1,0-0.1,0-0.1-0.1c0-0.2,0-0.4,0-0.7c0,0,0-0.1,0-0.1c0-0.1,0.1-0.1,0.1-0.1
		c0.1,0,0.1,0.1,0.1,0.1c0,0.1,0,0.3,0,0.4C28,22.3,27.9,22.4,27.9,22.4z"/>
	<path class="st52" d="M20.9,13c0.1,0,0.1,0,0.2,0c0.1,0,0.1,0,0.1,0.1c0,0.1,0,0.1,0,0.2c0,0.1,0,0.1,0.1,0.1c0.1,0,0.1,0.1,0,0.1
		c-0.1,0-0.1,0.1-0.1,0.2c-0.1,0.4-0.1,0.7-0.1,1.1c0,0,0,0.1-0.1,0.1c0-0.2-0.1-0.5,0-0.7c0.1-0.2,0.1-0.5,0.1-0.8
		c0-0.1,0.1-0.1,0-0.2c0,0,0,0,0-0.1C21.2,13.1,21.2,13.1,20.9,13C21,13,21,13,20.9,13z"/>
	<path class="st8" d="M27.9,20c0,0.1,0,0.1,0,0.2c0,0,0,0.1,0,0.2c0,0.1,0,0.1-0.1,0.1c-0.1,0-0.1-0.1-0.1-0.1c0-0.1,0-0.2,0-0.4
		c0-0.1,0-0.2,0.1-0.2C27.9,19.8,27.9,19.9,27.9,20z"/>
	<path class="st8" d="M22.6,19.2c0-0.1,0-0.2,0.2-0.2c0.1,0,0.2,0,0.2,0.1c0,0.1-0.1,0.2-0.2,0.2C22.6,19.4,22.6,19.3,22.6,19.2z"/>
	<path class="st53" d="M24.4,22.2c0.1-0.1,0.2-0.1,0.2-0.3c0-0.1,0.1-0.2,0.2-0.3c0.1-0.1,0.2-0.3,0.2-0.4c0,0,0,0,0,0
		c0,0.1,0,0.2-0.1,0.3c0,0,0,0.1,0,0.1c-0.1,0.1-0.2,0.2-0.3,0.4c0,0,0,0.1-0.1,0.1C24.5,22.1,24.5,22.2,24.4,22.2z"/>
	<path class="st8" d="M28.3,21.8c0,0.1,0,0.2-0.1,0.2C28,22,28,21.9,28,21.8c0-0.1,0-0.2,0.1-0.2C28.3,21.7,28.3,21.7,28.3,21.8z"/>
	<path class="st8" d="M24.6,22.1c0.1-0.1,0.2-0.3,0.3-0.4c0,0,0.1,0,0.1,0c0,0,0,0,0,0.1c-0.1,0.1-0.2,0.3-0.2,0.4
		C24.7,22.2,24.6,22.2,24.6,22.1z"/>
	<path class="st54" d="M24.8,16.8c0.5-0.1,0.9-0.1,1.4,0C25.8,16.8,25.3,16.8,24.8,16.8z"/>
	<path class="st55" d="M25.2,18.5c-0.1,0-0.1,0-0.1-0.1c0-0.1,0-0.1,0.1-0.2c0,0,0.2,0.1,0.2,0.2C25.3,18.4,25.3,18.5,25.2,18.5z"/>
	<path class="st56" d="M28.3,14.3c0,0.1,0.1,0.2,0.1,0.3c-0.1,0.1,0,0.2-0.1,0.3c0,0.1,0,0.2,0,0.3C28.3,14.9,28.3,14.6,28.3,14.3z"
		/>
	<path class="st57" d="M28,20.6c0,0.1,0,0.2,0,0.3c-0.1,0-0.1,0-0.1-0.1c0-0.1,0-0.2,0-0.3C27.9,20.5,27.9,20.6,28,20.6z"/>
	<path class="st58" d="M28.4,12.3C28.4,12.3,28.5,12.3,28.4,12.3c0,0.4,0.1,0.8,0,1.1c0,0,0,0,0,0c0-0.1,0-0.2,0-0.3
		C28.4,12.9,28.5,12.6,28.4,12.3z"/>
	<path class="st8" d="M28.7,18.8c0.1,0.1,0.1,0.2,0.2,0.3c0,0-0.1,0.1-0.1,0C28.7,19.1,28.7,19,28.7,18.8
		C28.7,18.9,28.7,18.9,28.7,18.8z"/>
	<path class="st8" d="M26.4,20c0.1,0,0.1,0,0.1,0.1c0,0.1,0,0.1-0.1,0.1c-0.1,0-0.1,0-0.1-0.1C26.3,20.1,26.4,20,26.4,20z"/>
	<path class="st59" d="M25.1,21.2L25.1,21.2C25.1,21.2,25,21.2,25.1,21.2c-0.1-0.2,0-0.5,0-0.7C25.2,20.7,25.1,21,25.1,21.2z"/>
	<path class="st60" d="M20.9,15C21,14.9,21,14.9,20.9,15C21,14.9,21,15,20.9,15c0.1,0.3,0,0.5,0,0.6c0,0,0,0-0.1,0.1
		C20.9,15.4,20.9,15.2,20.9,15z"/>
	<path class="st59" d="M25.1,20.5c-0.1-0.1-0.1-0.3-0.3-0.4c0,0,0-0.1,0-0.1c0.2,0,0.2,0.2,0.3,0.3C25.1,20.4,25.1,20.4,25.1,20.5z"
		/>
	<path class="st8" d="M28.3,22.1c0,0.1,0,0.1-0.1,0.1c-0.1,0-0.1-0.1-0.1-0.1c0,0,0-0.1,0.1-0.1C28.2,22,28.2,22.1,28.3,22.1z"/>
	<path class="st61" d="M26.7,12.2c0,0,0.1,0,0.2-0.1c0.1,0,0.3,0,0.4,0c0,0,0,0,0.1,0.1C27.1,12.2,26.9,12.2,26.7,12.2z"/>
	<path class="st58" d="M28.4,13.5c0,0.2,0,0.5,0,0.7c0,0,0,0,0,0.1c0-0.1,0-0.3,0-0.4C28.4,13.7,28.3,13.6,28.4,13.5L28.4,13.5z"/>
	<path class="st62" d="M28.4,13.5c-0.1,0.1,0,0.2-0.1,0.3c0-0.2,0-0.4,0-0.6c0,0,0-0.1,0.1-0.1C28.4,13.2,28.4,13.3,28.4,13.5z"/>
	<path class="st63" d="M26.3,18.4c-0.1-0.1-0.2-0.2-0.1-0.3c0.1,0,0.2,0,0.1,0.1C26.2,18.3,26.3,18.4,26.3,18.4z"/>
	<path class="st8" d="M28.2,17.9C28.2,17.9,28.2,17.9,28.2,17.9C28.3,18,28.3,18,28.2,17.9c0,0.1-0.1,0.1-0.1,0.1
		c0,0-0.1-0.1-0.1-0.1C28.1,17.8,28.1,17.9,28.2,17.9C28.2,17.9,28.2,17.9,28.2,17.9z"/>
	<path class="st64" d="M27.4,15.7c-0.3,0-0.5,0.1-0.8,0.1C26.9,15.7,27.1,15.7,27.4,15.7z"/>
	<path class="st65" d="M25.9,18c-0.1,0.1-0.2,0.1-0.2,0C25.8,17.9,25.9,17.9,25.9,18z"/>
	<path class="st8" d="M22.7,24.9c0-0.3,0-0.5,0-0.8c0.1,0.2,0,0.3,0,0.5C22.7,24.7,22.7,24.8,22.7,24.9z"/>
	<path class="st8" d="M28.6,18.5C28.6,18.5,28.6,18.5,28.6,18.5c0.1,0.1,0.1,0.2,0,0.2c0,0-0.1,0-0.1,0
		C28.5,18.6,28.5,18.5,28.6,18.5z"/>
	<path class="st66" d="M25.4,17.9C25.4,17.9,25.4,17.9,25.4,17.9c-0.1,0.1-0.2,0.1-0.2,0C25.3,17.8,25.3,17.8,25.4,17.9
		C25.4,17.8,25.4,17.8,25.4,17.9z"/>
	<path class="st67" d="M27.3,13.5C27.3,13.5,27.2,13.5,27.3,13.5c-0.1-0.1,0-0.1,0-0.1C27.4,13.3,27.4,13.3,27.3,13.5
		C27.4,13.4,27.4,13.5,27.3,13.5z"/>
	<path class="st61" d="M27.2,12.2c0.2-0.1,0.4,0,0.6,0C27.6,12.2,27.4,12.1,27.2,12.2z"/>
	<path class="st8" d="M22.6,25.8c0-0.2,0-0.4,0-0.5C22.6,25.4,22.6,25.6,22.6,25.8z"/>
	<path class="st8" d="M24.1,25.9c0,0.1,0,0.2,0,0.3C24.1,26.1,24,26,24.1,25.9z"/>
	<path class="st8" d="M25.5,18C25.5,18.1,25.5,18.1,25.5,18C25.4,18.1,25.4,18.1,25.5,18C25.4,18,25.4,18,25.5,18
		C25.5,18,25.5,18,25.5,18z"/>
	<path class="st8" d="M27.4,17.2c-0.1-0.1-0.3,0-0.4-0.2C27.2,17,27.3,17.1,27.4,17.2z"/>
	<path class="st68" d="M28.3,24.3c0,0.1-0.1,0.3-0.2,0.3c-0.1,0-0.1,0.1-0.2,0.1C27.9,24.5,28.1,24.4,28.3,24.3z"/>
	<path class="st69" d="M15.8,18.3c0,0.1,0,0.1,0,0.2c0-0.4,0-0.8,0-1.2c0-2.4,0-4.8,0-7.2c0-0.1,0-0.1,0-0.2
		C15.8,12.7,15.8,15.5,15.8,18.3z"/>
	<path class="st70" d="M15.7,19.6c0,0.1,0,0.2,0,0.2c-0.1,0-0.1,0.1-0.2,0c0-0.1,0-0.1,0-0.2C15.6,19.7,15.6,19.6,15.7,19.6z"/>
	<path class="st18" d="M15.5,19.9c0.1,0,0.1,0,0.2,0c0,0.2,0,0.4,0,0.6c-0.1-0.1-0.2-0.1-0.2-0.3c0,0,0-0.1,0-0.1
		C15.6,20,15.5,20,15.5,19.9z"/>
	<path class="st71" d="M11.5,15.4c0.2-0.2,0.1-0.4,0.1-0.6c0-0.2,0-0.5,0.1-0.7c0,0,0-0.1,0.1-0.1c0,0.4,0,0.8,0,1.1
		C11.8,15.2,11.7,15.3,11.5,15.4C11.6,15.4,11.5,15.4,11.5,15.4z"/>
	<path class="st72" d="M12.2,18.6C12.2,18.6,12.2,18.6,12.2,18.6c-0.2-0.2-0.3-0.5-0.5-0.7c0,0,0-0.1,0-0.1c0.1,0,0.2,0,0.2,0.1
		c0,0,0.1,0.1,0.1,0.1c-0.1,0.2,0.2,0.3,0.2,0.5C12.2,18.5,12.2,18.5,12.2,18.6z"/>
	<path class="st18" d="M15.7,20.6c0,0.1,0,0.3,0,0.4c0,0.1-0.1,0.1-0.2,0.1c0,0,0-0.1,0-0.1c0,0,0,0,0,0c0.1,0,0.2-0.1,0.2-0.2
		C15.7,20.7,15.7,20.7,15.7,20.6z"/>
	<path class="st73" d="M15.5,21.1c0.1,0,0.1,0,0.2-0.1c0,0.4,0,0.8,0,1.2c-0.2,0-0.2-0.1-0.2-0.3C15.6,21.7,15.5,21.4,15.5,21.1z"/>
	<path class="st20" d="M9.5,15.5c0.3,0,0.6-0.1,0.8-0.1c0.4,0,0.7-0.1,1.1-0.1c0.1,0,0.1,0.1,0.1,0.2c0,0.5,0,1.1,0,1.6
		c0,0.1,0,0.2-0.1,0.2c-0.1,0-0.1-0.1-0.2-0.1c-0.1-0.1-0.2-0.2-0.4-0.2c-0.2-0.1-0.4-0.2-0.6-0.3c-0.2-0.1-0.5-0.2-0.7-0.2
		c-0.6-0.1-1.3-0.1-1.9,0c-0.1,0-0.2,0-0.2,0l0,0c-0.1-0.1,0-0.2,0-0.3c0-0.2,0-0.4,0.1-0.6c0.1-0.1,0.2-0.1,0.3-0.1
		C8.5,15.6,9,15.6,9.5,15.5z"/>
	<path class="st30" d="M9.7,16.6c0.4,0,0.7,0.2,1,0.4c0.1,0.1,0.2,0.1,0.3,0.2c0.1,0,0.2,0.1,0.3,0.2c0,0,0,0,0,0
		c-0.2,0-0.3-0.1-0.4-0.2c-0.2-0.1-0.4-0.2-0.6-0.2c-0.1,0-0.1,0-0.2,0c-0.2,0.1-0.3,0.1-0.5,0.1c-0.4,0-0.7,0-1.1,0
		c-0.1,0-0.3,0-0.4-0.1c0,0-0.1,0-0.2,0c-0.1,0-0.2,0-0.1-0.1c0.1-0.1,0-0.1-0.1-0.1c0,0-0.1,0-0.1,0c0-0.1,0.1-0.1,0.2-0.1
		C8.5,16.6,9.1,16.5,9.7,16.6z"/>
	<path class="st74" d="M11.3,17.4c-0.1-0.1-0.2-0.1-0.3-0.2C11.2,17.1,11.3,17.2,11.3,17.4C11.3,17.4,11.3,17.4,11.3,17.4z"/>
	<path class="st13" d="M15.7,23.2C15.6,23.2,15.6,23.1,15.7,23.2c-0.1-0.1-0.1-0.2-0.1-0.2c0,0,0,0,0,0C15.7,23,15.7,23,15.7,23.2
		C15.7,23.1,15.7,23.1,15.7,23.2z"/>
	<path class="st75" d="M23.2,22.7c-0.2,0.1-0.4,0.1-0.6,0.2c-0.1,0-0.2,0.1-0.3,0c0,0,0,0,0,0C22.6,22.8,22.9,22.7,23.2,22.7z"/>
	<path class="st76" d="M21.3,20.3c0.3-0.1,0.5-0.1,0.8-0.2c-0.1,0.1-0.2,0.1-0.4,0.2C21.6,20.3,21.5,20.3,21.3,20.3z"/>
	<path class="st77" d="M20.8,19.7c-0.1,0.1-0.1,0.2,0,0.2c0,0,0,0.1,0,0.1c-0.1-0.1-0.2-0.2-0.3-0.3C20.6,19.7,20.7,19.7,20.8,19.7z
		"/>
	<path class="st76" d="M20.9,20.2c0.1,0.1,0.2,0,0.3,0.1C21.2,20.3,21.1,20.3,20.9,20.2C21,20.3,20.9,20.2,20.9,20.2z"/>
	<path class="st8" d="M20.9,15.8c0,0.2,0.1,0.3-0.1,0.4C20.8,16.1,20.8,16,20.9,15.8z"/>
	<path class="st8" d="M20.8,16.9c0.2,0,0.5,0,0.7,0c0,0,0.1,0,0.1,0C21.4,16.9,21.1,16.9,20.8,16.9z"/>
	<path class="st21" d="M22.5,23.6c0,0.1,0,0.2,0,0.3c0,0,0,0-0.1,0C22.5,23.8,22.5,23.7,22.5,23.6z"/>
	<path class="st30" d="M9.2,12.9c0-0.1,0.1-0.1,0.2-0.1c0.1,0,0.2,0,0.4,0c0.2,0,0.3,0.1,0.3,0.2c0,0.2-0.1,0.4-0.2,0.4
		c-0.1,0-0.2,0-0.3,0c-0.1,0-0.2,0-0.2,0.1c0,0-0.1,0-0.2,0c-0.1-0.1-0.2,0-0.3,0c-0.3,0.1-0.6,0-0.9,0c-0.4,0-0.7,0-1.1,0
		c-0.2,0-0.2,0-0.2-0.2c0-0.1,0-0.1-0.1-0.1c-0.1,0-0.3,0-0.4,0c0,0,0-0.1,0-0.1c0,0,0.1,0,0.1,0c0.4,0,0.8,0,1.2,0
		c0.4,0,0.7,0,1.1,0.1c0.2,0.1,0.4-0.1,0.5-0.1c0.1,0,0.2-0.1,0.2-0.1c0.1,0,0.2,0,0.3,0c-0.1,0-0.2,0-0.3,0c0,0-0.1,0-0.1,0
		C9.3,13,9.2,12.9,9.2,12.9z"/>
	<path class="st30" d="M7.7,15.7c0,0.3-0.1,0.6-0.1,0.9c0,0-0.1,0,0,0.1c0,0,0.1,0.1,0.2,0.1c0,0,0.1,0,0.1,0.1c0,0,0,0.1-0.1,0.1
		c-0.2,0.1-0.3,0-0.4-0.2c0-0.1,0-0.1-0.1-0.1c-0.1,0-0.1-0.1-0.1-0.2c0.1-0.1,0.1-0.2,0.1-0.3c0-0.2-0.1-0.3-0.1-0.5
		c0-0.2,0-0.3,0.2-0.3c0.2,0,0.3,0.1,0.5,0.1c0.2,0,0.3,0,0.5,0c0.1,0,0.2-0.1,0.3,0.1c-0.2,0.1-0.5,0.1-0.7,0.1
		C7.8,15.7,7.7,15.6,7.7,15.7z"/>
	<path class="st30" d="M10.7,12.9c0.1-0.1,0.2-0.2,0.3-0.1c0.1,0.1,0.1,0.2,0,0.3c-0.1,0.1-0.2,0.1-0.2,0.3c0,0-0.1,0-0.1,0
		c-0.1,0-0.1,0-0.2,0c-0.2,0.1-0.3,0-0.3-0.2c0-0.1,0-0.1,0-0.1c-0.1-0.1,0-0.3,0.2-0.3C10.4,12.9,10.6,12.8,10.7,12.9
		c0,0,0,0.1,0,0.1C10.7,13,10.7,13,10.7,12.9C10.7,13,10.7,13,10.7,12.9z"/>
	<path class="st30" d="M7.2,13c0-0.1,0-0.1,0.1-0.2c0.1,0,0.3,0,0.4,0c0.1,0,0.2,0,0.3,0c0,0,0.1,0,0.1-0.1c0.1-0.1,0.2-0.1,0.3-0.1
		c0.1,0,0.2,0,0.2,0c0.2,0,0.2,0,0.2,0.2c0,0,0,0.1,0,0.1c-0.1,0.1-0.1,0-0.2,0c-0.3,0-0.6,0-0.9,0C7.6,12.9,7.5,13,7.2,13
		C7.3,13,7.2,13,7.2,13z"/>
	<path class="st78" d="M4.6,13.1c0.2,0,0.4,0,0.7,0c0.2,0,0.5,0,0.7,0c0,0,0,0,0.1,0c0,0,0,0,0.1,0c0.2,0,0.4,0,0.6,0
		c0.2,0,0.4,0,0.7,0c0,0,0,0,0.1,0c0.1,0,0.1,0,0.2,0C7.8,13,8,13,8.1,13.1c0,0,0.1,0,0.1,0.1c-0.1,0-0.1,0-0.2,0
		c-0.6,0-1.2,0-1.8,0c-0.5,0-0.9,0-1.4,0C4.8,13.2,4.7,13.2,4.6,13.1L4.6,13.1z"/>
	<path class="st34" d="M4.6,13.1c0.7,0.1,1.3,0,2,0c0.3,0,0.6,0,0.9,0c0.2,0,0.5,0,0.7,0c0.1,0,0.2,0,0.3,0c0.1,0,0.1,0,0.1,0.1
		c-0.2,0-0.4-0.1-0.6-0.1c-0.3,0-0.6,0-0.8,0c-0.2,0-0.5,0-0.7,0c-0.1,0-0.2,0-0.3,0c0,0-0.1,0-0.1,0.1c-0.2,0-0.3,0-0.5,0
		c-0.3,0.1-0.6,0.1-0.8-0.1c0,0,0,0-0.1,0C4.7,13.2,4.7,13.2,4.6,13.1z"/>
	<path class="st30" d="M4.8,13.2c0.3,0.1,0.6,0.1,0.8,0.1c0,0.1,0.1,0.1,0.2,0.1c0.1,0,0.2,0,0.2,0c0.1,0,0.1,0,0.1,0.1
		c0,0.1,0,0.1-0.1,0.1c-0.3,0-0.6,0-0.9,0c0,0-0.1,0-0.1,0c0-0.1-0.1-0.1-0.1-0.1C4.9,13.3,4.8,13.3,4.8,13.2z"/>
	<path class="st34" d="M6.8,13c-0.2,0-0.4,0-0.7,0c0-0.1,0.1-0.1,0.2-0.1c0.1,0,0.2,0,0.2,0c0.2,0,0.4,0,0.7,0
		c0.5-0.1,1.1,0,1.6-0.1c0.1,0,0.2,0,0.4,0c0.1,0,0.1,0,0.1,0.1C9.3,13,9.2,13,9.1,13c-0.4,0-0.7,0-1.1,0c-0.2,0-0.4-0.1-0.5,0l0,0
		c-0.2,0-0.4,0-0.5,0C6.9,13,6.9,13,6.8,13z"/>
	<path class="st30" d="M6,26.8C6,26.8,6,26.8,6,26.8c0-0.2,0.1-0.2,0.2-0.2c0.2-0.1,0.5,0,0.7,0.1c-0.1,0.1-0.2,0.1-0.3,0.1
		c-0.2,0-0.3,0-0.5,0C6.1,26.8,6.1,26.8,6,26.8z"/>
	<path class="st79" d="M7.7,15.7c0-0.1,0-0.1,0.1-0.1c0,0,0.1,0,0.1,0c0.2,0,0.5,0,0.7-0.1c0.1,0,0.2,0,0.3,0c0.2,0,0.4,0,0.6,0
		c-0.3,0.1-0.5,0.1-0.8,0.1C8.4,15.7,8,15.7,7.7,15.7z"/>
	<path class="st80" d="M11.3,22.3c0,0.1,0,0.1-0.1,0.2c0,0,0,0.1-0.1,0.1c-0.1,0-0.1-0.1-0.1-0.2c0.1-0.1,0-0.2,0-0.3
		c-0.1-0.2,0-0.4,0.1-0.5c0,0,0,0,0,0.1C11.3,21.9,11.4,22.1,11.3,22.3z"/>
	<path class="st81" d="M9.7,16.6c-0.6,0-1.1,0-1.7,0c-0.1,0-0.2,0-0.3,0.1c-0.1,0-0.1,0-0.2-0.1c0.5,0,1-0.1,1.5-0.1
		C9.3,16.6,9.5,16.6,9.7,16.6z"/>
	<path class="st82" d="M11.2,20.6c0-0.1,0-0.1,0-0.2c0.1,0,0.1-0.1,0.1-0.1c0,0,0,0.1-0.1,0.1c0-0.1,0-0.2,0-0.2c0-0.1,0-0.1,0-0.2
		c0,0,0-0.1,0-0.1c0,0,0.1,0,0.1,0c0,0,0,0.1,0,0.1c-0.1,0.1-0.1,0.1,0,0.2c0,0,0,0.1,0,0.1c-0.1,0.1,0,0.2,0,0.3
		c0,0.1,0.1,0.1,0,0.2C11.3,20.7,11.3,20.6,11.2,20.6z"/>
	<path class="st83" d="M11.2,20.6c0.1-0.1,0.2,0,0.2,0.2c0,0.1-0.1,0.1-0.1,0.2c0,0.1-0.1,0-0.1,0C11.2,20.9,11.2,20.8,11.2,20.6
		C11.2,20.6,11.2,20.6,11.2,20.6z"/>
	<path class="st30" d="M3.9,16.3c0-0.2,0.1-0.3,0.1-0.5C4.1,15.9,4.1,16.2,3.9,16.3z"/>
	<path class="st84" d="M11.3,22.3c-0.1-0.2,0-0.4,0-0.6c0,0,0.1,0.1,0.1,0.1c0,0.1,0,0.2,0,0.3C11.5,22.2,11.5,22.3,11.3,22.3z"/>
	<path class="st30" d="M6.6,13c-0.1,0-0.3-0.1-0.4,0.1c0,0,0,0-0.1,0c0-0.1,0-0.2,0.2-0.2C6.4,12.9,6.5,12.9,6.6,13z"/>
	<path class="st85" d="M7.4,18.1c-0.1,0-0.1,0-0.1-0.1c0-0.1,0.1-0.1,0.1-0.1c0.1,0,0.1,0,0.1,0.1C7.6,18.1,7.4,18,7.4,18.1z"/>
	<path class="st86" d="M7.4,18.5c0.1,0.1,0.1,0.1,0.1,0.2c0,0,0,0.1-0.1,0.1c-0.1,0-0.1-0.1-0.1-0.1C7.3,18.6,7.3,18.5,7.4,18.5z"/>
	<path class="st84" d="M11.3,21.7C11.3,21.7,11.3,21.7,11.3,21.7c-0.2,0.2-0.1,0.3-0.1,0.5C11,22,11.1,21.8,11.3,21.7z"/>
	<path class="st30" d="M5.3,26.8C5.2,26.9,5.2,26.9,5.3,26.8c-0.1,0-0.2,0-0.3,0c0-0.1,0-0.1,0.1-0.1C5.2,26.8,5.2,26.7,5.3,26.8z"
		/>
	<path class="st30" d="M4.9,26.9c-0.1,0-0.2,0-0.2,0c0-0.1,0-0.1,0.1-0.1C4.8,26.8,4.9,26.8,4.9,26.9z"/>
	<path class="st87" d="M10.7,12.9c0.1,0,0.1,0,0.1,0.1c0,0,0,0.1,0,0.1c0,0-0.1,0-0.1,0C10.5,13,10.6,13,10.7,12.9
		C10.6,12.9,10.7,12.9,10.7,12.9z"/>
	<path class="st88" d="M11.2,20.4c0.1,0,0.1-0.1,0.1-0.1c0,0,0,0,0.1,0c0,0,0,0,0,0.1C11.3,20.3,11.3,20.3,11.2,20.4
		c0.1,0.1,0.1,0.1,0.1,0.1C11.2,20.5,11.2,20.4,11.2,20.4C11.2,20.4,11.2,20.4,11.2,20.4z"/>
	<path class="st82" d="M11.2,20.6c0,0.1,0,0.3,0,0.4C11.1,20.9,11.2,20.8,11.2,20.6z"/>
	<path class="st89" d="M11.3,22.7C11.3,22.8,11.3,22.8,11.3,22.7c-0.1,0.1-0.2,0.1-0.2,0C11.2,22.7,11.2,22.7,11.3,22.7
		C11.3,22.7,11.3,22.7,11.3,22.7z"/>
	<path class="st30" d="M7.6,26.6C7.6,26.6,7.5,26.6,7.6,26.6c-0.1,0.1-0.1,0.1-0.2,0.1C7.4,26.6,7.4,26.6,7.6,26.6
		C7.5,26.5,7.6,26.5,7.6,26.6z"/>
	<path class="st30" d="M9,18.1c0.2,0,0.2,0.1,0.2,0.2c0,0,0,0.1,0,0.1c-0.1,0.3-0.1,0.3-0.3,0.1c-0.1-0.1,0-0.2,0-0.3
		C8.9,18.1,8.9,18.1,9,18.1z"/>
	<path class="st30" d="M3.7,17.3c0-0.1,0-0.2,0-0.3c0.1,0,0.2,0,0.2,0.1c0,0.1,0,0.3,0,0.4c0,0.1,0,0.1-0.1,0.1
		c-0.1,0-0.1-0.1-0.1-0.2C3.8,17.4,3.8,17.3,3.7,17.3z"/>
	<path class="st90" d="M8.6,19.1C8.6,19.1,8.7,19.1,8.6,19.1c0.1,0.2,0.1,0.3,0.1,0.4c0,0.1,0,0.1-0.1,0.1c-0.1,0-0.1-0.1-0.1-0.1
		c0.1-0.1,0-0.1,0-0.2C8.4,19.2,8.5,19.1,8.6,19.1z"/>
	<path class="st91" d="M8.4,18.1c0,0,0.2,0.2,0.2,0.2c0,0.1-0.1,0.1-0.2,0.1c-0.1,0-0.1,0-0.1-0.1C8.3,18.1,8.4,18.1,8.4,18.1z"/>
	<path class="st92" d="M8.8,17.8c0.1,0,0,0.1,0.1,0.2c0,0,0,0.1,0,0.1c0,0-0.1,0-0.1,0c0-0.1-0.1-0.1-0.1-0.2
		C8.6,17.8,8.7,17.8,8.8,17.8z"/>
	<path class="st93" d="M8.5,20c0-0.1,0-0.1,0.1-0.2c0.1,0,0.1,0,0.2,0.1c0,0,0,0.1,0,0.1c-0.1,0.1-0.1,0.1-0.2,0.1
		C8.5,20.1,8.5,20.1,8.5,20c0,0,0.1,0,0.1,0C8.6,20,8.5,20,8.5,20z"/>
	<path class="st94" d="M9.7,20.5c0,0.1-0.1,0.1-0.2,0.1c0,0-0.1,0-0.1-0.1c0-0.1,0-0.1,0.1-0.1C9.6,20.4,9.7,20.4,9.7,20.5z"/>
	<path class="st95" d="M8.8,17.8c-0.1,0-0.1,0-0.2,0c-0.1,0,0-0.1,0-0.1c0,0,0.1,0,0.1,0C8.7,17.6,8.7,17.7,8.8,17.8
		C8.7,17.8,8.8,17.8,8.8,17.8z"/>
	<path class="st96" d="M8.6,20.2c0.1-0.1,0.1-0.1,0.2-0.1c0.1,0,0.1,0.1,0,0.1C8.7,20.3,8.6,20.3,8.6,20.2z"/>
	<path class="st97" d="M8.8,18.7C8.8,18.7,8.8,18.8,8.8,18.7c-0.1,0.1-0.2,0.1-0.2,0C8.7,18.7,8.7,18.6,8.8,18.7
		C8.8,18.6,8.8,18.6,8.8,18.7z"/>
	<path class="st98" d="M8.5,20c0.1-0.1,0.1-0.2,0.2,0C8.6,20.1,8.6,20,8.5,20C8.5,20,8.5,20,8.5,20z"/>
	<path class="st99" d="M9.1,17.8C9.1,17.8,9.2,17.8,9.1,17.8c0.1,0.1,0,0.1,0,0.1C9,17.9,9,17.9,9.1,17.8C9,17.8,9.1,17.8,9.1,17.8z
		"/>
	<path class="st100" d="M10,20.6C10,20.6,9.9,20.6,10,20.6c-0.1,0.1-0.1,0-0.1,0C9.8,20.5,9.9,20.5,10,20.6
		C9.9,20.5,10,20.5,10,20.6z"/>
	<path class="st30" d="M10.2,20.5C10.2,20.5,10.2,20.6,10.2,20.5c-0.1,0.1-0.1,0-0.1,0C10.1,20.4,10.1,20.4,10.2,20.5
		C10.2,20.4,10.2,20.4,10.2,20.5z"/>
	<path class="st101" d="M9.5,18.2C9.5,18.2,9.5,18.2,9.5,18.2c0.1-0.1,0.1,0,0.1,0C9.6,18.3,9.6,18.3,9.5,18.2
		C9.5,18.3,9.5,18.3,9.5,18.2z"/>
	<path class="st102" d="M9.5,18.1C9.5,18.1,9.4,18.1,9.5,18.1c-0.1-0.1,0-0.1,0-0.1C9.5,18,9.6,18,9.5,18.1
		C9.6,18.1,9.5,18.1,9.5,18.1z"/>
	<path class="st103" d="M8.9,20.7C8.9,20.7,8.9,20.7,8.9,20.7c-0.1,0.1-0.1,0-0.1,0C8.8,20.6,8.8,20.6,8.9,20.7
		C8.9,20.6,8.9,20.6,8.9,20.7z"/>
	<path class="st104" d="M25.4,19.3c0,0.1,0,0.2,0,0.3c0,0.1-0.1,0.1-0.1,0.1c-0.1,0,0-0.1,0-0.1c0-0.1,0-0.1,0-0.2c0,0,0-0.1,0-0.2
		c0,0,0.1-0.1,0.1-0.1C25.4,19.2,25.4,19.2,25.4,19.3z"/>
	<path class="st105" d="M25.6,18.8C25.6,18.8,25.6,18.9,25.6,18.8c-0.1,0.1-0.1,0.1-0.2,0.1c-0.1-0.1-0.1-0.1-0.2-0.2
		c0,0,0-0.1,0-0.1c0,0,0.1,0,0.1,0C25.4,18.6,25.4,18.7,25.6,18.8C25.6,18.7,25.6,18.8,25.6,18.8z"/>
	<path class="st106" d="M25.3,20c0,0,0-0.1,0.1-0.1c0.1,0,0.1,0,0.1,0.1c0,0,0,0,0,0c0.1,0.1,0.1,0.1,0,0.2c0,0-0.1,0-0.1,0
		C25.3,20.2,25.3,20.1,25.3,20z"/>
	<path class="st107" d="M24.3,18.1c0,0.1-0.1,0.1-0.1,0.1c0,0-0.1,0-0.1,0c0,0,0-0.1,0.1-0.1C24.2,18.1,24.3,18.1,24.3,18.1z"/>
	<path class="st108" d="M24.2,18.6c0,0.1,0.1,0.1,0.1,0.2c0,0-0.1,0-0.1,0C24.1,18.8,24.1,18.7,24.2,18.6z"/>
	<path class="st109" d="M8.1,13c0.4,0,0.8,0,1.3,0c0,0,0,0,0.1,0c0,0,0.1,0,0,0.1c-0.2,0-0.3,0.1-0.5,0.2c-0.1,0-0.2,0.1-0.2,0
		c0-0.1-0.1-0.1-0.2-0.1c-0.1,0-0.2,0-0.2,0c-0.1-0.1-0.3,0-0.5-0.1c0,0-0.1,0-0.1-0.1C7.8,13,7.9,13,8.1,13z"/>
	<path class="st110" d="M9.4,13.1C9.5,13,9.4,13,9.4,13.1C9.5,13,9.6,13,9.7,13c0,0,0.1,0,0.1,0.1c0,0.1-0.1,0-0.1,0
		C9.6,13,9.5,13.1,9.4,13.1z"/>
	<path class="st111" d="M6.8,13C7,13,7.3,13,7.5,13C7.3,13.1,7.1,13,6.8,13z"/>
	<path class="st111" d="M8.1,13c-0.1,0-0.2,0-0.3,0c-0.1,0-0.1,0-0.2,0C7.7,12.9,7.9,13,8.1,13z"/>
</g>
</svg>
