<?xml version="1.0" encoding="utf-8"?>
<!-- Generator: Adobe Illustrator 27.3.1, SVG Export Plug-In . SVG Version: 6.00 Build 0)  -->
<svg version="1.1" id="katman_1" xmlns="http://www.w3.org/2000/svg" xmlns:xlink="http://www.w3.org/1999/xlink" x="0px" y="0px"
	 viewBox="0 0 32 32" style="enable-background:new 0 0 32 32;" xml:space="preserve">
<style type="text/css">
	.st0{fill:#ECE1C0;}
	.st1{fill:#BDB080;}
	.st2{fill:#CF4327;}
	.st3{fill:#DA6E57;}
	.st4{fill:#E7A192;}
	.st5{fill:#DF8471;}
	.st6{fill:#D65E45;}
	.st7{fill:#FFFAFA;}
	.st8{fill:#F1CCC5;}
	.st9{fill:#EB6553;}
	.st10{fill:#CC5A38;}
	.st11{fill:#C47C56;}
</style>
<g>
	<path class="st0" d="M17.6,7.9c-0.2-0.1-0.4-0.2-0.7-0.3c0,0,0,0,0-0.1C18.5,6.1,20,4.6,22,3.9c1.3-0.5,2,0,2.2,1.4
		C21.8,5.6,19.6,6.5,17.6,7.9z"/>
	<path class="st1" d="M7.9,6.4c-0.1,0-0.2,0-0.2,0c0,0-0.1,0-0.1,0c-0.1,0-0.2,0-0.3,0c0,0-0.1,0-0.1,0c-0.1,0-0.2,0-0.3-0.1
		c0,0-0.1,0-0.1,0c-0.1,0-0.2,0-0.3,0c0,0-0.1,0-0.1,0c-0.1,0-0.2,0-0.3-0.1c0,0-0.1,0-0.1,0C5.8,6,5.7,6,5.6,6c0,0-0.1-0.1-0.1-0.1
		c0.9-0.7,2-0.7,3-0.6c2.2,0.5,4.3,1.3,6.3,2.4C14.3,7.9,14,8.3,13.4,8c0,0-0.1,0-0.1,0c-0.1,0-0.1,0-0.2,0c0,0-0.1,0-0.1,0
		c-0.1,0-0.1,0-0.2,0c0,0-0.1,0-0.1,0c-0.1,0-0.1,0-0.2,0c0,0-0.1,0-0.1,0c-0.1,0-0.1,0-0.2,0c0,0-0.1,0-0.1,0c-0.1,0-0.2,0-0.3-0.1
		c0,0-0.1,0-0.1,0c-0.1,0-0.1,0-0.2,0c0,0-0.1,0-0.1,0c-0.1,0-0.1,0-0.2,0c-0.1,0-0.1,0-0.2-0.1c-0.1,0-0.1,0-0.2,0c0,0-0.1,0-0.1,0
		c-0.1,0-0.2,0-0.2,0c0,0-0.1,0-0.1,0c-0.1,0-0.1,0-0.2,0c0,0-0.1,0-0.1,0c-0.1,0-0.2,0-0.3-0.1c0,0-0.1,0-0.1,0c-0.1,0-0.2,0-0.2,0
		c0,0-0.1,0-0.1,0c-0.1,0-0.2,0-0.3-0.1c0,0-0.1,0-0.1,0C9.2,6.8,9,6.7,8.8,6.7c0,0-0.1,0-0.1,0c-0.1,0-0.2,0-0.3-0.1
		c0,0-0.1,0-0.1,0c-0.1,0-0.2,0-0.2,0C8,6.5,7.9,6.5,7.9,6.4z"/>
	<path class="st1" d="M17.6,7.9c2-1.3,4.2-2.3,6.6-2.6c0.9,0,1.8-0.1,2.6,0.4c0,0,0,0.1,0,0.1c0,0,0,0.1,0,0.1c-0.1,0-0.2,0-0.2,0
		c0,0-0.1,0-0.1,0c-0.1,0-0.2,0-0.2,0c0,0-0.1,0-0.1,0c-0.1,0-0.1,0-0.2,0c-0.1,0-0.1,0-0.2,0.1c-0.1,0-0.2,0-0.3,0.1
		c0,0-0.1,0-0.1,0c-0.1,0-0.2,0-0.3,0c0,0-0.1,0-0.1,0c-0.1,0-0.2,0-0.3,0.1c0,0-0.1,0-0.1,0c-0.1,0-0.2,0-0.3,0.1c0,0-0.1,0-0.1,0
		c-0.1,0-0.2,0-0.3,0.1c0,0-0.1,0-0.1,0c-0.1,0-0.1,0-0.2,0c-0.1,0-0.1,0-0.2,0.1c-0.1,0-0.2,0-0.3,0.1c0,0-0.1,0-0.1,0
		c-0.1,0-0.2,0-0.3,0.1c0,0-0.1,0-0.1,0c-0.2,0-0.3,0.1-0.5,0.1c-0.1,0-0.1,0-0.2,0.1c-0.5,0.1-1,0.3-1.6,0.4c0,0-0.1,0-0.1,0
		c-0.1,0-0.2,0-0.3,0.1c0,0-0.1,0-0.1,0c-0.1,0-0.2,0-0.2,0c0,0-0.1,0-0.1,0c-0.1,0-0.2,0-0.2,0c0,0-0.1,0-0.1,0c-0.1,0-0.2,0-0.2,0
		c0,0-0.1,0-0.1,0c-0.1,0-0.2,0-0.2,0c0,0-0.1,0-0.1,0c-0.1,0-0.2,0-0.3,0c-0.1,0-0.1,0-0.2,0c-0.1,0-0.1,0-0.2,0c0,0-0.1,0-0.1,0
		c-0.1,0-0.2,0-0.3,0C17.7,8,17.7,7.9,17.6,7.9C17.6,7.9,17.6,7.9,17.6,7.9z"/>
	<path class="st0" d="M14.7,7.7c-2-1.1-4-1.9-6.3-2.4C8.5,4.2,9.2,4,10,4.3c2,0.6,3.7,1.7,5.2,3.1c0,0,0,0.1,0,0.1c0,0,0,0,0,0
		c-0.1,0-0.1,0-0.2,0.1c0,0-0.1,0-0.1,0C14.9,7.6,14.9,7.6,14.7,7.7C14.8,7.7,14.8,7.7,14.7,7.7z"/>
	<path class="st2" d="M30,19.7c0-0.5,0-1.1-0.1-1.6c0,0,0,0,0.1,0C30,18.7,30,19.2,30,19.7z"/>
	<path class="st3" d="M29.9,21.2c0-0.3,0-0.6,0.1-0.9C30,20.6,29.9,20.9,29.9,21.2z"/>
	<path class="st4" d="M28,5.7c-0.3,0-0.6,0-0.9,0C27.4,5.7,27.7,5.7,28,5.7z"/>
	<path class="st4" d="M15.4,27c0.2,0,0.3,0,0.5,0.1C15.7,27,15.5,27,15.4,27z"/>
	<path class="st4" d="M20.4,25.5c0.1,0,0.2-0.1,0.4-0.1C20.6,25.4,20.5,25.4,20.4,25.5z"/>
	<path class="st4" d="M16.3,27c0.1,0,0.2,0,0.4-0.1C16.6,27,16.4,27,16.3,27z"/>
	<path class="st4" d="M23.1,24.8c0.1,0,0.2,0,0.3-0.1C23.3,24.8,23.2,24.8,23.1,24.8z"/>
	<path class="st4" d="M24.2,24.6c0.1,0,0.2,0,0.3-0.1C24.4,24.5,24.3,24.6,24.2,24.6z"/>
	<path class="st4" d="M2.4,21.5c0,0.1,0,0.2,0.1,0.3C2.5,21.7,2.4,21.6,2.4,21.5z"/>
	<path class="st4" d="M21.6,25.2c0.1,0,0.2,0,0.3-0.1C21.8,25.1,21.7,25.2,21.6,25.2z"/>
	<path class="st4" d="M20.8,25.4c0.1,0,0.2,0,0.3-0.1C21,25.3,20.9,25.3,20.8,25.4z"/>
	<path class="st4" d="M25.9,24.1c0.1,0,0.2-0.1,0.3-0.1C26.1,24.1,26,24.1,25.9,24.1z"/>
	<path class="st3" d="M6.2,24.1c0.1,0,0.2,0.1,0.3,0.1C6.4,24.2,6.3,24.2,6.2,24.1z"/>
	<path class="st4" d="M25.6,24.2c0.1,0,0.2-0.1,0.3-0.1C25.8,24.2,25.7,24.2,25.6,24.2z"/>
	<path class="st5" d="M20,25.5c0.1,0,0.2,0,0.3-0.1C20.2,25.5,20.1,25.5,20,25.5z"/>
	<path class="st3" d="M6.9,24.3c0.1,0,0.2,0,0.3,0.1C7.1,24.4,7,24.3,6.9,24.3z"/>
	<path class="st3" d="M12.7,25.7c0.1,0,0.2,0,0.3,0.1C12.9,25.8,12.8,25.8,12.7,25.7z"/>
	<path class="st4" d="M18.9,25.8c0.1,0,0.2,0,0.3-0.1C19.1,25.8,19,25.8,18.9,25.8z"/>
	<path class="st5" d="M13.1,25.8c0.1,0,0.2,0,0.3,0.1C13.3,25.9,13.2,25.8,13.1,25.8z"/>
	<path class="st4" d="M22.8,24.9c0.1,0,0.2,0,0.3-0.1C22.9,24.9,22.9,24.9,22.8,24.9z"/>
	<path class="st4" d="M29.8,21.5c0-0.1,0-0.2,0.1-0.3C29.9,21.3,29.9,21.4,29.8,21.5z"/>
	<path class="st5" d="M29.7,21.8c0-0.1,0-0.1,0.1-0.2C29.8,21.6,29.8,21.7,29.7,21.8z"/>
	<path class="st6" d="M26.8,5.8C26.8,5.8,26.8,5.7,26.8,5.8C26.9,5.7,26.9,5.7,26.8,5.8c0.1-0.1,0.2-0.1,0.2,0
		C26.9,5.8,26.9,5.8,26.8,5.8z"/>
	<path class="st7" d="M15.1,26.9c0,0,0.1,0,0.1,0C15.2,27,15.2,26.9,15.1,26.9z"/>
	<path class="st7" d="M14.8,26.8c0,0,0.1,0,0.1,0.1C14.9,26.9,14.9,26.8,14.8,26.8z"/>
	<path class="st8" d="M18.2,26c0.1,0,0.1,0,0.2-0.1C18.3,25.9,18.2,26,18.2,26z"/>
	<path class="st4" d="M13.6,25.9c0.1,0,0.1,0,0.2,0C13.7,26,13.6,25.9,13.6,25.9z"/>
	<path class="st7" d="M18.5,25.9c0.1,0,0.1,0,0.2,0C18.6,25.9,18.6,25.9,18.5,25.9z"/>
	<path class="st7" d="M19.3,25.7c0.1,0,0.1,0,0.2,0C19.4,25.7,19.4,25.7,19.3,25.7z"/>
	<path class="st7" d="M19.7,25.6c0,0,0.1,0,0.1,0C19.8,25.6,19.7,25.6,19.7,25.6z"/>
	<path class="st7" d="M21.3,25.3c0,0,0.1,0,0.1,0C21.4,25.3,21.3,25.3,21.3,25.3z"/>
	<path class="st4" d="M22.1,25.1c0.1,0,0.1,0,0.2-0.1C22.2,25.1,22.1,25.1,22.1,25.1z"/>
	<path class="st4" d="M22.4,25c0.1,0,0.1,0,0.2-0.1C22.5,25,22.5,25,22.4,25z"/>
	<path class="st7" d="M23.6,24.8c0.1,0,0.1,0,0.2-0.1C23.7,24.7,23.6,24.7,23.6,24.8z"/>
	<path class="st8" d="M23.9,24.7c0.1,0,0.1,0,0.2-0.1C24,24.6,24,24.6,23.9,24.7z"/>
	<path class="st4" d="M24.6,24.5c0.1,0,0.1,0,0.2-0.1C24.7,24.4,24.7,24.5,24.6,24.5z"/>
	<path class="st5" d="M25,24.4c0.1,0,0.1,0,0.2-0.1C25.1,24.3,25,24.4,25,24.4z"/>
	<path class="st7" d="M25.3,24.3c0.1,0,0.1,0,0.2-0.1C25.4,24.3,25.4,24.3,25.3,24.3z"/>
	<path class="st3" d="M6.5,24.2c0.1,0,0.1,0,0.2,0.1C6.7,24.3,6.6,24.2,6.5,24.2z"/>
	<path class="st8" d="M26.3,24c0.1,0,0.1,0,0.2-0.1C26.4,24,26.4,24,26.3,24z"/>
	<path class="st4" d="M26.9,23.9c0.1,0,0.1,0,0.2-0.1C27,23.8,27,23.8,26.9,23.9z"/>
	<path class="st6" d="M5,23.8c0.1,0,0.1,0,0.2,0.1C5.2,23.8,5.1,23.8,5,23.8z"/>
	<path class="st6" d="M4.8,23.7c0.1,0,0.1,0,0.2,0.1C4.9,23.7,4.8,23.7,4.8,23.7z"/>
	<path class="st7" d="M28.6,23.2c0,0,0.1-0.1,0.1-0.1C28.7,23.1,28.7,23.2,28.6,23.2z"/>
	<path class="st6" d="M2.6,22c0,0.1,0.1,0.1,0.1,0.2C2.6,22.1,2.6,22.1,2.6,22z"/>
	<path class="st8" d="M29.4,22.5c0,0,0-0.1,0.1-0.1C29.4,22.4,29.4,22.4,29.4,22.5z"/>
	<path class="st8" d="M29.3,22.6C29.4,22.5,29.4,22.5,29.3,22.6C29.4,22.5,29.4,22.5,29.3,22.6z"/>
	<path class="st4" d="M27.2,23.8c0,0,0.1,0,0.1,0C27.2,23.7,27.2,23.8,27.2,23.8z"/>
	<path class="st7" d="M26.9,5.7C26.9,5.7,26.9,5.7,26.9,5.7C26.8,5.7,26.8,5.7,26.9,5.7C26.9,5.7,26.9,5.7,26.9,5.7z"/>
	<path class="st7" d="M16.9,27C16.9,26.9,16.9,26.9,16.9,27C16.9,26.9,16.9,26.9,16.9,27z"/>
	<g>
		<g>
			<path class="st2" d="M15.3,7.4C15.3,7.4,15.3,7.5,15.3,7.4c0.1,0.1,0.2,0,0.4,0C15.5,7.4,15.4,7.4,15.3,7.4z"/>
			<path class="st2" d="M30,20.3c0-0.2,0-0.3,0-0.5c0-0.5,0-1.1-0.1-1.6c0,0,0,0,0.1,0c0-0.4,0-0.9-0.1-1.3c0,0,0,0,0,0
				c0-0.3,0-0.6,0-1c0-0.4,0-0.9,0-1.3c0-0.1,0-0.2,0-0.4c0,0.1,0,0.2,0,0.3v0c0-0.1,0-0.2,0-0.3c0-0.2,0-0.5,0-0.7c0,0,0-0.1,0-0.1
				c0-0.3,0-0.5,0-0.8c0-0.2,0-0.3-0.1-0.5c0,0.1,0,0.3,0,0.4v0c0-0.1,0-0.3,0-0.4c0-0.1,0-0.2,0-0.3c0-0.3,0-0.5,0-0.8
				c0-0.1,0-0.2,0-0.3c0,0,0,0,0,0c0-0.1,0-0.3,0-0.4c0,0,0,0,0,0c0,0,0-0.1,0-0.1c0-0.3,0-0.5-0.1-0.8c0-0.2,0-0.3,0-0.5
				c0,0,0-0.1,0-0.1c0-0.2,0-0.4,0-0.6c0-0.1,0-0.3,0-0.4c0,0,0-0.1,0-0.1c0,0,0,0.1,0,0.1c0-0.1,0-0.1,0-0.2c0-0.1,0-0.2-0.1-0.4
				c-0.2-0.7-0.6-1.3-1.4-1.5c-0.3,0-0.6,0-0.9,0c0,0-0.1,0-0.1,0c-0.1,0-0.1,0-0.2,0c-0.1,0-0.2,0-0.2,0c0,0-0.1,0-0.1,0
				c-0.1,0-0.2,0-0.2,0c0,0-0.1,0-0.1,0c-0.1,0-0.1,0-0.2,0c-0.1,0-0.1,0-0.2,0.1c-0.1,0-0.2,0-0.3,0.1c0,0-0.1,0-0.1,0
				c-0.1,0-0.2,0-0.3,0c0,0-0.1,0-0.1,0c-0.1,0-0.2,0-0.3,0.1c0,0-0.1,0-0.1,0c-0.1,0-0.2,0-0.3,0.1c0,0-0.1,0-0.1,0
				c-0.1,0-0.2,0-0.3,0.1c0,0-0.1,0-0.1,0c-0.1,0-0.1,0-0.2,0c-0.1,0-0.1,0-0.2,0.1c-0.1,0-0.2,0-0.3,0.1c0,0-0.1,0-0.1,0
				c-0.1,0-0.2,0-0.3,0.1c0,0-0.1,0-0.1,0c-0.2,0-0.3,0.1-0.5,0.1c-0.1,0-0.1,0-0.2,0.1c-0.5,0.1-1,0.3-1.6,0.4c0,0-0.1,0-0.1,0
				c-0.1,0-0.2,0-0.3,0.1c0,0-0.1,0-0.1,0c-0.1,0-0.2,0-0.2,0c0,0-0.1,0-0.1,0c-0.1,0-0.2,0-0.2,0c0,0-0.1,0-0.1,0
				c-0.1,0-0.2,0-0.2,0c0,0-0.1,0-0.1,0c-0.1,0-0.2,0-0.2,0c0,0-0.1,0-0.1,0c-0.1,0-0.2,0-0.3,0c-0.1,0-0.1,0-0.2,0
				c-0.1,0-0.1,0-0.2,0c0,0-0.1,0-0.1,0c-0.1,0-0.2,0-0.3,0c0,0-0.1,0-0.1-0.1c0,0,0,0,0-0.1c-0.2-0.1-0.4-0.2-0.7-0.3c0,0,0,0,0,0
				c0,0,0,0,0-0.1c-0.1,0-0.1,0-0.2,0c0,0-0.1,0-0.1,0c-0.1,0-0.2,0-0.3-0.1c0,0-0.1,0-0.1,0c0,0-0.1,0-0.1,0c0,0-0.1,0-0.1,0
				c-0.2,0-0.3,0-0.5,0c-0.1,0-0.2,0-0.4,0.1l0,0c-0.1,0-0.1,0-0.2,0.1c0,0-0.1,0-0.1,0c-0.1,0-0.1,0-0.2,0.1c0,0-0.1,0-0.1,0
				C14.3,7.9,14,8.3,13.4,8c0,0-0.1,0-0.1,0c-0.1,0-0.1,0-0.2,0c0,0-0.1,0-0.1,0c-0.1,0-0.1,0-0.2,0c0,0-0.1,0-0.1,0
				c-0.1,0-0.1,0-0.2,0c0,0-0.1,0-0.1,0c-0.1,0-0.1,0-0.2,0c0,0-0.1,0-0.1,0c-0.1,0-0.2,0-0.3-0.1c0,0-0.1,0-0.1,0
				c-0.1,0-0.1,0-0.2,0c0,0-0.1,0-0.1,0c-0.1,0-0.1,0-0.2,0c-0.1,0-0.1,0-0.2-0.1c-0.1,0-0.1,0-0.2,0c0,0-0.1,0-0.1,0
				c-0.1,0-0.2,0-0.2,0c0,0-0.1,0-0.1,0c-0.1,0-0.1,0-0.2,0c0,0-0.1,0-0.1,0c-0.1,0-0.2,0-0.3-0.1c0,0-0.1,0-0.1,0
				c-0.1,0-0.2,0-0.2,0c0,0-0.1,0-0.1,0c-0.1,0-0.2,0-0.3-0.1c0,0-0.1,0-0.1,0C9.2,6.8,9,6.7,8.8,6.7c0,0-0.1,0-0.1,0
				c-0.1,0-0.2,0-0.3-0.1c0,0-0.1,0-0.1,0c-0.1,0-0.2,0-0.2,0c-0.1,0-0.1,0-0.2-0.1c-0.1,0-0.2,0-0.2,0c0,0-0.1,0-0.1,0
				c-0.1,0-0.2,0-0.3,0c0,0-0.1,0-0.1,0c-0.1,0-0.2,0-0.3-0.1c0,0-0.1,0-0.1,0c-0.1,0-0.2,0-0.3,0c0,0-0.1,0-0.1,0
				c-0.1,0-0.2,0-0.3-0.1c0,0-0.1,0-0.1,0C5.8,6,5.7,6,5.6,6c0,0,0,0,0,0c0,0-0.1-0.1-0.1-0.1c-0.1,0-0.2,0-0.2,0
				c-0.1,0-0.1,0-0.2,0l0,0c-0.1,0-0.1,0-0.2-0.1c0,0-0.1,0-0.1,0c-0.1,0-0.2,0-0.2,0c-0.2,0-0.5,0-0.7,0C3,6.1,2.5,6.5,2.3,7.3
				c0,0.2,0,0.4-0.1,0.6c0,0.1,0,0.3,0,0.4c0,0.1,0,0.2,0,0.3c0-0.1,0-0.2,0-0.3c0,0.1,0,0.2-0.1,0.4c0,0.2,0,0.5,0,0.7
				c0,0.1,0,0.3,0,0.4c0,0,0,0,0,0c0,0.2,0,0.4-0.1,0.6c0,0.2,0,0.5,0,0.7c0,0.3,0,0.6,0,0.9c0,0.8,0,1.5,0,2.3c0,0.3,0,0.6,0,0.9
				c0,0.3,0,0.5,0,0.8c0,0.2,0,0.5,0.1,0.7c0,0.2,0,0.4,0,0.6c0,0.2,0,0.4,0,0.6c0-0.2,0-0.4,0-0.6c0,0.2,0,0.4,0,0.6
				c0,0.2,0,0.5,0.1,0.7c0,0.2,0,0.4,0,0.6c0,0.1,0,0.2,0.1,0.4c0-0.1,0-0.2-0.1-0.4c0,0.1,0,0.2,0,0.3h0c0,0.3,0,0.5,0.1,0.8
				c0,0.1,0,0.2,0,0.3c0,0.2,0,0.4,0.1,0.5c0,0.1,0,0.1,0,0.2c0,0.1,0,0.2,0.1,0.3c0,0.1,0.1,0.2,0.1,0.3c0,0.1,0.1,0.1,0.1,0.2
				c0.5,0.8,1.3,1.2,2.1,1.5c0.1,0,0.1,0,0.2,0.1c0,0,0.1,0,0.1,0c0.1,0,0.1,0,0.2,0.1c0.3,0.1,0.6,0.2,1,0.3c0.1,0,0.2,0.1,0.3,0.1
				c0,0,0,0,0,0l0,0c0.1,0,0.1,0,0.2,0.1c0.1,0,0.1,0,0.2,0c0.1,0,0.2,0,0.3,0.1c0,0,0.1,0,0.1,0c0.1,0,0.2,0,0.3,0.1
				c0,0,0.1,0,0.1,0c0.1,0,0.2,0.1,0.4,0.1c0.4,0.1,0.8,0.2,1.1,0.3c0.1,0,0.2,0,0.3,0.1c0,0,0.1,0,0.1,0c0,0,0.1,0,0.1,0
				c0,0,0.1,0,0.1,0c0.1,0,0.1,0,0.2,0.1c0,0,0.1,0,0.1,0c0,0,0.1,0,0.1,0c0.2,0,0.3,0.1,0.5,0.1c0,0,0.1,0,0.1,0.1c0,0,0.1,0,0.1,0
				c0.1,0,0.2,0,0.2,0c0.1,0,0.1,0,0.2,0.1c0.1,0,0.3,0.1,0.4,0.1c0.1,0,0.2,0,0.3,0.1c0.1,0,0.3,0.1,0.4,0.1c0.1,0,0.2,0,0.3,0.1
				c0.1,0,0.1,0,0.2,0c0.1,0,0.2,0,0.3,0.1c0.1,0,0.1,0,0.2,0c0.1,0,0.2,0,0.3,0.1c0.1,0,0.1,0,0.2,0c0.1,0,0.1,0,0.2,0
				c0.1,0,0.1,0,0.2,0.1c0,0,0,0,0.1,0c0.3,0.2,0.5,0.5,0.8,0.7c0,0,0.1,0,0.1,0.1c0,0,0.1,0,0.1,0c0,0,0.1,0,0.1,0c0,0,0.1,0,0.1,0
				c0.2,0,0.3,0,0.5,0.1c0.2,0,0.3,0,0.5,0c0.1,0,0.2,0,0.4-0.1c0.1,0,0.1,0,0.2,0c0,0,0.1,0,0.1,0c0.1,0,0.2-0.1,0.3-0.1l0,0
				c0,0,0,0,0,0c0,0,0.1-0.1,0.1-0.1c0,0,0.1,0,0.1-0.1c0,0,0,0,0,0l0,0c0,0,0,0,0,0c0,0,0.1,0,0.1-0.1c0,0,0,0,0,0
				c0,0,0.1-0.1,0.1-0.1l0,0c0,0,0,0,0,0c0,0,0,0,0.1-0.1c0,0,0,0,0-0.1c0.1-0.1,0.2-0.2,0.3-0.3c0.1,0,0.1,0,0.2-0.1
				c0.1,0,0.1,0,0.2,0c0.1,0,0.1,0,0.2,0c0.1,0,0.1,0,0.2-0.1c0.1,0,0.2,0,0.3-0.1c0.1,0,0.1,0,0.2,0c0.1,0,0.1,0,0.2,0
				c0.1,0,0.1,0,0.2,0c0,0,0.1,0,0.1,0c0.1,0,0.1,0,0.2-0.1c0.1,0,0.2,0,0.3-0.1c0,0,0.1,0,0.1,0c0.1,0,0.2-0.1,0.4-0.1
				c0,0,0.1,0,0.1,0c0.1,0,0.2,0,0.3-0.1c0.1,0,0.1,0,0.2,0c0,0,0.1,0,0.1,0c0.1,0,0.1,0,0.2-0.1c0.1,0,0.2,0,0.3-0.1
				c0.1,0,0.1,0,0.2,0c0.1,0,0.1,0,0.2-0.1c0.1,0,0.1,0,0.2,0c0.1,0,0.1,0,0.2-0.1c0.1,0,0.1,0,0.2,0c0.1,0,0.2,0,0.3-0.1
				c0,0,0.1,0,0.1,0c0.1,0,0.2,0,0.3-0.1c0.1,0,0.1,0,0.2,0c0.1,0,0.1,0,0.2-0.1c0.1,0,0.1,0,0.2,0c0.1,0,0.1,0,0.2-0.1
				c0,0,0.1,0,0.1,0c0.1,0,0.2,0,0.3-0.1c0.1,0,0.1,0,0.2,0c0.1,0,0.1,0,0.2-0.1c0.1,0,0.1,0,0.2,0c0.1,0,0.1,0,0.2-0.1
				c0.1,0,0.1,0,0.2,0c0.1,0,0.1,0,0.2-0.1c0,0,0.1,0,0.1,0c0.1,0,0.2-0.1,0.3-0.1c0,0,0,0,0.1,0c0.1,0,0.2-0.1,0.3-0.1
				c0,0,0.1,0,0.1,0c0.1,0,0.1,0,0.2-0.1c0.1,0,0.3-0.1,0.4-0.1c0.1,0,0.1,0,0.2-0.1c0,0,0,0,0.1,0c0,0,0.1,0,0.1,0
				c0.4-0.2,0.9-0.4,1.3-0.5c0,0,0.1-0.1,0.1-0.1c0.2-0.2,0.4-0.4,0.6-0.5c0,0,0-0.1,0.1-0.1c0,0,0,0,0,0c0,0,0-0.1,0.1-0.1
				c0.1-0.1,0.1-0.3,0.2-0.4c0,0,0-0.1,0.1-0.1c0,0,0,0,0-0.1c0-0.1,0-0.1,0.1-0.2c0,0,0,0,0-0.1c0-0.1,0-0.2,0.1-0.3
				c0,0,0-0.1,0-0.1C29.9,20.9,30,20.6,30,20.3z M18.3,23.7c0,0.3-0.2,0.5-0.5,0.5c-0.2,0-0.4-0.3-0.4-0.5c0-4.1-0.1-8.3-0.1-12.4
				c0-0.3,0-0.6,0.5-0.6c0.5,0,0.5,0.5,0.5,0.8c0,2.3,0,4.6,0,6.9c0,0,0,0,0,0C18.3,20.2,18.3,22,18.3,23.7z"/>
		</g>
		<path class="st2" d="M29.5,8.9C29.6,8.9,29.6,8.8,29.5,8.9c0-0.3,0-0.5,0-0.7c0,0.2,0,0.4,0,0.6C29.5,8.8,29.5,8.9,29.5,8.9z"/>
	</g>
	<path class="st7" d="M14,26C14,26.1,14,26.1,14,26C14,26.1,14,26.1,14,26z"/>
	<path class="st7" d="M17.8,26.3C17.8,26.3,17.8,26.3,17.8,26.3C17.8,26.3,17.8,26.3,17.8,26.3z"/>
	<polygon class="st7" points="17.7,26.4 17.7,26.4 17.7,26.4 	"/>
	<path class="st7" d="M17.6,26.5C17.6,26.5,17.6,26.5,17.6,26.5C17.6,26.5,17.6,26.5,17.6,26.5z"/>
	<path class="st7" d="M17.5,26.6L17.5,26.6C17.5,26.6,17.6,26.6,17.5,26.6C17.5,26.6,17.5,26.6,17.5,26.6z"/>
	<path class="st7" d="M17.4,26.7C17.4,26.7,17.5,26.7,17.4,26.7C17.5,26.7,17.4,26.7,17.4,26.7z"/>
	<polygon class="st7" points="17.3,26.8 17.3,26.8 17.3,26.8 	"/>
	<path class="st5" d="M29.7,22c0,0,0-0.1,0.1-0.1C29.7,21.9,29.7,21.9,29.7,22z"/>
	<path class="st9" d="M18.3,18.4c0,1.8,0,3.6,0,5.4c0,0.3-0.2,0.5-0.5,0.5c-0.2,0-0.4-0.3-0.4-0.5c0-4.1-0.1-8.3-0.1-12.4
		c0-0.3,0-0.6,0.5-0.6c0.5,0,0.5,0.5,0.5,0.8C18.3,13.8,18.3,16.1,18.3,18.4C18.3,18.4,18.3,18.4,18.3,18.4z"/>
	<path class="st10" d="M18.4,7.9c0.1,0,0.1,0,0.2,0C18.5,7.9,18.4,7.9,18.4,7.9z"/>
	<path class="st6" d="M14.8,7.7c0.1,0,0.1,0,0.2-0.1C14.9,7.6,14.9,7.6,14.8,7.7z"/>
	<path class="st11" d="M7.9,6.4c0.1,0,0.1,0,0.2,0.1C8,6.5,7.9,6.5,7.9,6.4z"/>
	<path class="st10" d="M25.8,6.1c0.1,0,0.1,0,0.2-0.1C25.9,6,25.8,6,25.8,6.1z"/>
	<path class="st10" d="M23.6,6.6c0.1,0,0.1,0,0.2-0.1C23.8,6.6,23.7,6.6,23.6,6.6z"/>
	<path class="st5" d="M15.1,7.6c0.1,0,0.1,0,0.2-0.1C15.2,7.5,15.2,7.5,15.1,7.6z"/>
	<path class="st11" d="M22.2,6.9c0.1,0,0.1,0,0.2-0.1C22.4,6.9,22.3,6.9,22.2,6.9z"/>
	<path class="st10" d="M11.3,7.3c0.1,0,0.1,0,0.2,0.1C11.4,7.4,11.4,7.4,11.3,7.3z"/>
	<path class="st10" d="M13.1,7.9c0,0,0.1,0,0.1,0C13.1,7.9,13.1,7.9,13.1,7.9z"/>
	<path class="st10" d="M10.4,7.1C10.5,7.1,10.5,7.1,10.4,7.1C10.5,7.1,10.5,7.1,10.4,7.1z"/>
	<path class="st10" d="M10.7,7.2c0,0,0.1,0,0.1,0C10.8,7.2,10.7,7.2,10.7,7.2z"/>
	<path class="st10" d="M11,7.3C11.1,7.3,11.1,7.3,11,7.3C11.1,7.3,11.1,7.3,11,7.3z"/>
	<path class="st10" d="M10.1,7c0,0,0.1,0,0.1,0C10.1,7,10.1,7,10.1,7z"/>
	<path class="st11" d="M20.5,7.4c0,0,0.1,0,0.1,0C20.6,7.3,20.6,7.4,20.5,7.4z"/>
	<path class="st10" d="M9.7,6.9c0,0,0.1,0,0.1,0C9.8,6.9,9.8,6.9,9.7,6.9z"/>
	<path class="st10" d="M11.7,7.4C11.7,7.5,11.7,7.5,11.7,7.4C11.7,7.5,11.7,7.5,11.7,7.4z"/>
	<path class="st11" d="M9.4,6.8c0,0,0.1,0,0.1,0C9.4,6.8,9.4,6.8,9.4,6.8z"/>
	<path class="st10" d="M20.2,7.5c0,0,0.1,0,0.1,0C20.3,7.4,20.2,7.5,20.2,7.5z"/>
	<path class="st10" d="M22.9,6.8C23,6.8,23,6.8,22.9,6.8C23,6.8,23,6.8,22.9,6.8z"/>
	<path class="st10" d="M11.9,7.5c0,0,0.1,0,0.1,0C12,7.5,12,7.5,11.9,7.5z"/>
	<path class="st10" d="M23.3,6.7C23.3,6.7,23.3,6.7,23.3,6.7C23.3,6.7,23.3,6.7,23.3,6.7z"/>
	<path class="st10" d="M8.7,6.6c0,0,0.1,0,0.1,0C8.7,6.7,8.7,6.7,8.7,6.6z"/>
	<path class="st11" d="M26.1,6c0,0,0.1,0,0.1,0C26.2,5.9,26.1,6,26.1,6z"/>
	<path class="st11" d="M8.3,6.5c0,0,0.1,0,0.1,0C8.4,6.6,8.3,6.6,8.3,6.5z"/>
	<path class="st10" d="M24,6.5C24,6.5,24.1,6.5,24,6.5C24.1,6.5,24,6.5,24,6.5z"/>
	<path class="st10" d="M5.8,6c0,0,0.1,0,0.1,0C5.9,6.1,5.9,6,5.8,6z"/>
	<path class="st11" d="M26.5,5.9c0,0,0.1,0,0.1,0C26.5,5.8,26.5,5.9,26.5,5.9z"/>
	<path class="st10" d="M12.3,7.6C12.3,7.6,12.3,7.6,12.3,7.6C12.3,7.6,12.3,7.6,12.3,7.6z"/>
	<path class="st10" d="M19.5,7.7c0,0,0.1,0,0.1,0C19.6,7.6,19.5,7.6,19.5,7.7z"/>
	<path class="st10" d="M24.3,6.4C24.4,6.4,24.4,6.4,24.3,6.4C24.4,6.4,24.4,6.4,24.3,6.4z"/>
	<path class="st10" d="M7.5,6.4c0,0,0.1,0,0.1,0C7.6,6.4,7.5,6.4,7.5,6.4z"/>
	<path class="st10" d="M24.7,6.3C24.7,6.3,24.8,6.3,24.7,6.3C24.8,6.3,24.7,6.3,24.7,6.3z"/>
	<path class="st10" d="M7.2,6.3C7.2,6.3,7.2,6.3,7.2,6.3C7.2,6.3,7.2,6.3,7.2,6.3z"/>
	<path class="st10" d="M12.5,7.7C12.6,7.7,12.6,7.7,12.5,7.7C12.6,7.7,12.6,7.7,12.5,7.7z"/>
	<path class="st10" d="M25,6.2C25.1,6.2,25.1,6.2,25,6.2C25.1,6.2,25.1,6.2,25,6.2z"/>
	<path class="st10" d="M6.7,6.2c0,0,0.1,0,0.1,0C6.8,6.2,6.8,6.2,6.7,6.2z"/>
	<path class="st10" d="M25.4,6.2C25.4,6.1,25.5,6.1,25.4,6.2C25.5,6.1,25.4,6.1,25.4,6.2z"/>
	<path class="st10" d="M6.3,6.1c0,0,0.1,0,0.1,0C6.3,6.1,6.3,6.1,6.3,6.1z"/>
	<path class="st10" d="M19.1,7.7c0,0,0.1,0,0.1,0C19.2,7.7,19.2,7.7,19.1,7.7z"/>
	<path class="st10" d="M12.8,7.8c0,0,0.1,0,0.1,0C12.9,7.8,12.8,7.8,12.8,7.8z"/>
	<path class="st10" d="M18.8,7.8c0,0,0.1,0,0.1,0C18.9,7.8,18.8,7.8,18.8,7.8z"/>
	<path class="st11" d="M18.1,8c0,0,0.1,0,0.1,0C18.2,8,18.1,8,18.1,8z"/>
	<path class="st11" d="M17.7,7.9c0,0,0.1,0,0.1,0.1C17.7,8,17.7,7.9,17.7,7.9z"/>
	<path class="st10" d="M19.8,7.6c0,0,0.1,0,0.1,0C19.9,7.5,19.9,7.5,19.8,7.6z"/>
	<path class="st10" d="M13.3,8c0,0,0.1,0,0.1,0C13.4,8,13.4,8,13.3,8z"/>
</g>
</svg>
