<?xml version="1.0" encoding="utf-8"?>
<!-- Generator: Adobe Illustrator 27.3.1, SVG Export Plug-In . SVG Version: 6.00 Build 0)  -->
<svg version="1.1" id="katman_1" xmlns="http://www.w3.org/2000/svg" xmlns:xlink="http://www.w3.org/1999/xlink" x="0px" y="0px"
	 viewBox="0 0 32 32" style="enable-background:new 0 0 32 32;" xml:space="preserve">
<style type="text/css">
	.st0{fill:#ED7455;}
</style>
<g>
	<path class="st0" d="M25.3,11.3c1,1,1.8,1.8,2.6,2.6c1.4,1.4,1.4,3.5,0,5c-1.9,1.9-3.7,3.8-5.6,5.6c-1.4,1.4-2.8,2.8-4.2,4.2
		c-1.3,1.3-3.5,1.4-4.9,0.1c-0.4-0.4-0.8-0.8-1.2-1.1c0.3-0.3,0.5-0.2,0.8-0.2c0.8-0.1,1.4-0.5,1.8-1.3c0.8-1.5,0.9-3,0.3-4.5
		c-0.3-0.6,0-0.9,0.4-1.3c2.9-2.3,5.7-4.6,8.5-7C24.5,12.8,25.2,12.3,25.3,11.3z"/>
	<path class="st0" d="M15.8,3.1c0.8,0,1.6,0.3,2.2,0.9c1.9,1.9,3.8,3.8,5.7,5.6c0.5,0.4,0.4,0.6-0.1,1c-3.1,2.5-6.1,5.1-9.2,7.6
		c-0.5,0.4-0.6,0.2-0.8-0.3c-1.2-3.2-2.5-6.4-4.3-9.3C9.2,8.3,9.2,8.1,9.5,7.8c1.3-1.3,2.6-2.6,3.9-3.9C14.1,3.3,14.9,3.1,15.8,3.1z
		"/>
	<path class="st0" d="M9.8,25.1c-0.5-0.4-0.7-0.6-1-0.9c-1.8-1.8-3.6-3.5-5.3-5.3c-1.4-1.5-1.4-3.6,0-5c0.6-0.6,1.2-1.2,1.8-1.8
		c0.3-0.3,0.6-0.4,0.9-0.1c0.4,0.4,0.9,0.6,1.3,1C7.7,13,7.8,13.2,8,13.2c0.9-0.3,1.1,0.3,1.4,0.9c1,1.8,2.1,3.5,2.8,5.5
		c0.1,0.4,0.1,0.6-0.2,1C10.9,21.7,9.8,23.1,9.8,25.1z"/>
	<path class="st0" d="M12.7,24.7c-0.3,0-0.5,0-0.7,0c-0.4,0-0.5-0.2-0.3-0.5c0.1-0.2,0.2-0.4,0.4-0.5c0.3-0.4,0.6-1.1,1-1.1
		c0.5,0.1,0.4,0.9,0.5,1.4C14,25,13,24.5,12.7,24.7z"/>
</g>
</svg>
