<?xml version="1.0" encoding="utf-8"?>
<!-- Generator: Adobe Illustrator 27.3.1, SVG Export Plug-In . SVG Version: 6.00 Build 0)  -->
<svg version="1.1" id="katman_1" xmlns="http://www.w3.org/2000/svg" xmlns:xlink="http://www.w3.org/1999/xlink" x="0px" y="0px"
	 viewBox="0 0 32 32" style="enable-background:new 0 0 32 32;" xml:space="preserve">
<style type="text/css">
	.st0{fill:#090608;}
	.st1{fill:#616160;}
	.st2{fill:#898989;}
	.st3{fill:#747474;}
	.st4{fill:#9E9D9D;}
	.st5{fill:#B4B4B4;}
	.st6{fill:#C8C8C8;}
	.st7{fill:#121116;}
	.st8{fill:#2C376C;}
	.st9{fill:#435292;}
	.st10{fill:#1B2241;}
	.st11{fill:#2A325A;}
	.st12{fill:#FFFFFF;}
	.st13{fill:#E8E7E7;}
	.st14{fill:#505050;}
	.st15{fill:#A36BA7;}
	.st16{fill:#343434;}
	.st17{fill:#83CDE3;}
	.st18{fill:#5EACC1;}
	.st19{fill:#BE1718;}
	.st20{fill:#F3D239;}
	.st21{fill:#9F1916;}
	.st22{fill:#D8B928;}
	.st23{fill:#81711E;}
	.st24{fill:#605319;}
	.st25{fill:#A99126;}
	.st26{fill:#DF7E7E;}
	.st27{fill:#3F7380;}
	.st28{fill:#593A5B;}
	.st29{fill:#724A74;}
</style>
<g>
	<path class="st0" d="M16.2,29.2c-0.5,0-1,0-1.5,0c-0.1-0.1-0.1,0-0.2,0c-0.1,0-0.1,0-0.2,0c-0.1,0-0.2,0-0.3,0c0,0-0.1,0-0.1,0
		c-0.1,0-0.2,0-0.2,0c-0.1-0.1-0.1-0.1-0.2,0c-0.1,0-0.1,0-0.2,0c0,0,0,0-0.1,0c-0.1,0-0.1,0-0.2,0c0,0-0.1-0.1-0.1,0
		c0,0-0.1,0-0.1,0c0-0.1-0.1-0.1-0.1,0c-1.7-0.4-3.2-1.2-4.5-2.3c-1.7-1.4-2.9-3.2-3.6-5.2c-0.2-0.6-0.4-1.3-0.5-2
		c0-0.1,0-0.1,0-0.1C4,19.1,4,19,4,19c0,0,0,0,0-0.1c0-0.1,0-0.1,0-0.1c0-0.1,0-0.2,0-0.3c0-0.1,0-0.2,0-0.2c0-0.1,0-0.1,0-0.2
		c0-0.4,0-0.9,0-1.3c0.1-0.1,0-0.2,0-0.3c0-0.1,0-0.1,0-0.2c0,0,0,0,0-0.1c0-0.1,0-0.2,0-0.3c0,0,0,0,0-0.1c0,0,0-0.1,0-0.1
		c0-0.2,0.1-0.4,0.1-0.6c0.1-0.1,0.1-0.1,0-0.2c0-0.1,0-0.3,0.1-0.4c0.1,0,0.1-0.1,0-0.1c0.8-2.9,2.4-5.3,4.9-7
		c0.8-0.6,1.8-1,2.7-1.3c0,0,0.1,0,0.1,0c0.5-0.1,1-0.3,1.6-0.4c0,0,0.1,0,0.1,0c0.1,0,0.1,0,0.1,0c0.1,0,0.2,0,0.2,0
		c0.1,0,0.1,0,0.1,0c0,0,0.1,0,0-0.1C14.1,5.4,14,5.3,14,5.2c0,0,0-0.1,0-0.1c0-0.1,0-0.1,0-0.2c0,0,0-0.1,0-0.1c0,0,0-0.1,0-0.1
		c0-0.1,0-0.1,0-0.1c0-0.2,0-0.4,0-0.6c0,0,0.1-0.1,0-0.1c0,0,0,0,0,0c0,0,0.1-0.1,0-0.1c0.3-0.7,0.8-1,1.5-1.2c0.1,0,0.1,0,0.1,0
		c0.1,0,0.1,0,0.2,0c0.1,0,0.1,0,0.2,0c0.1,0,0.3,0.1,0.4,0.1c0,0,0.1,0.1,0.1,0c0.8,0.3,1.1,1,1.2,1.8c0,0.1,0,0.1,0,0.2
		c0,0.1,0,0.1,0,0.2c0,0-0.1,0.1,0,0.1c-0.1,0.2-0.2,0.4-0.4,0.6c0,0-0.1,0.1-0.1,0.1c0,0,0.1,0,0.2,0.1c0,0,0.1,0,0.1,0
		c0.1,0,0.1,0,0.2,0c0,0,0.1,0.1,0.1,0c0.1,0,0.3,0,0.4,0.1c0,0,0.1,0.1,0.1,0C18.4,6,18.7,6,18.9,6.1c0,0,0.1,0.1,0.1,0
		c2.4,0.8,4.4,2.3,5.8,4.4c0.9,1.2,1.4,2.5,1.8,4c0,0.1,0,0.1,0,0.1c0,0.1,0,0.1,0,0.2c0,0.1,0,0.1,0,0.1c0,0,0,0.1,0,0.1
		c0,0.1,0,0.1,0,0.1c0,0.1,0,0.1,0,0.2c0,0.1,0,0.2,0,0.2c0,0.2,0.1,0.5,0.1,0.7c0,0,0,0.1,0,0.1c0,0.1,0,0.2,0,0.2c0,0,0,0.1,0,0.1
		c0,0.4,0,0.8,0,1.2c-0.1,0.1,0,0.1,0,0.2c0,0.1,0,0.2,0,0.2c0,0,0,0,0,0.1c0,0.1,0,0.2,0,0.3c-0.1,0.1-0.1,0.1,0,0.2
		c0,0.2,0,0.4-0.1,0.6c0,0-0.1,0.1,0,0.1c0,0,0,0.1,0,0.1c0,0-0.1,0.1,0,0.1c0,0.2-0.1,0.4-0.1,0.6c0,0-0.1,0.1,0,0.1c0,0,0,0,0,0
		c0,0-0.1,0.1,0,0.1c-0.1,0.3-0.2,0.5-0.3,0.8c0,0-0.1,0.1,0,0.1c-0.9,2.3-2.4,4.2-4.4,5.5c-0.7,0.5-1.4,0.9-2.2,1.2
		c0,0-0.1,0-0.1,0c0,0,0,0,0,0c-0.1,0-0.1,0-0.1,0c-0.2,0.1-0.4,0.1-0.6,0.2c-0.1,0-0.1,0-0.1,0c-0.1,0-0.2,0-0.3,0.1
		c-0.1,0-0.1,0-0.1,0c-0.1,0-0.1,0-0.2,0c-0.1,0-0.1,0-0.1,0c0,0-0.1,0-0.1,0c-0.1,0-0.1,0-0.1,0c0,0-0.1,0-0.1,0
		c-0.1,0-0.1,0-0.2,0c-0.1,0-0.2,0-0.3,0c-0.1,0-0.1,0-0.2,0c-0.1,0-0.1,0-0.2,0c-0.1,0-0.1,0-0.2,0C16.3,29.2,16.2,29.1,16.2,29.2z
		 M21.8,7.8C21.8,7.8,21.8,7.8,21.8,7.8L21.8,7.8c-0.2-0.2-0.3-0.3-0.5-0.4l0,0c0,0,0-0.1,0-0.1c-0.8-0.5-1.7-0.9-2.7-1.2
		c0,0-0.1-0.1-0.1,0c-0.2,0-0.4-0.1-0.6-0.1c0,0-0.1-0.1-0.1,0c-0.1,0-0.1,0-0.2,0c0,0-0.1,0-0.1,0c-0.1,0-0.1,0-0.2,0
		c-0.1-0.1-0.1-0.1-0.2,0c-0.1,0-0.1,0-0.2,0c-0.1-0.1-0.1-0.1-0.2,0c-0.2,0-0.4,0-0.5,0c-0.4-0.1-0.8-0.1-1.1,0c0,0-0.1,0-0.1,0
		c0,0,0,0-0.1,0c-0.2,0-0.4,0-0.6,0c-0.1,0-0.1,0-0.1,0c-0.1,0-0.1,0-0.2,0c0,0-0.1,0-0.1,0C13.6,6,13.4,6,13.2,6c0,0,0,0-0.1,0
		c-0.1,0-0.1,0-0.2,0c-0.1,0-0.1,0-0.1,0c-1.5,0.3-2.8,1-4,1.9c-1.2,0.9-2.3,2.1-3,3.4c-0.3,0.6-0.7,1.2-0.9,1.9l0,0
		c-0.1,0-0.1,0.1-0.1,0.2c-0.2,0.4-0.3,0.8-0.4,1.2c-0.4,1.5-0.4,3-0.2,4.4c0.3,1.9,1,3.7,2.2,5.3c0.2,0.3,0.4,0.5,0.6,0.7
		c0,0,0,0.1,0.1,0.1c0,0,0,0,0.1,0.1c0,0,0,0,0,0c0,0,0,0,0.1,0.1c0.8,0.9,1.7,1.6,2.7,2.2c1,0.5,2,0.9,3.1,1.2c0,0,0,0,0.1,0
		c0.1,0,0.1,0,0.2,0c0,0,0.1,0,0.1,0c0.1,0,0.1,0,0.2,0c0.1,0.1,0.1,0.1,0.2,0c0.1,0,0.2,0,0.2,0c0,0,0,0,0.1,0l0,0l0,0
		c0,0,0.1,0,0.1,0c0.2,0,0.4,0,0.6,0c0.1,0.1,0.2,0,0.3,0c0.2,0,0.5,0,0.7,0c0.1,0,0.2,0,0.2,0c0.1,0,0.2,0,0.2,0c0.1,0,0.3,0,0.4,0
		c0.1,0,0.1,0,0.2,0c0.1,0,0.2,0,0.2,0c0.1,0,0.1,0,0.2,0c0.1,0,0.2,0,0.2,0c0,0,0.1,0,0.1,0c0.1,0,0.1,0,0.2,0c0,0,0.1,0,0.1,0
		c0.1,0,0.2,0,0.3-0.1c0.1,0,0.1,0,0.2-0.1c0.2-0.1,0.4-0.1,0.6-0.2c2.9-1,5-2.8,6.5-5.5c0.5-0.9,0.8-1.8,1-2.8c0,0,0,0,0-0.1
		c0-0.1,0-0.1,0-0.2c0,0,0.1-0.1,0-0.1c0-0.1,0-0.1,0-0.2c0,0,0.1-0.1,0-0.1c0-0.1,0-0.2,0-0.3c0,0,0,0,0-0.1c0-0.1,0-0.2,0-0.3
		c0.1-0.1,0-0.1,0-0.2c0,0,0,0,0-0.1c0-0.2,0-0.5,0-0.7c0,0,0,0,0-0.1c0-0.2,0-0.4,0-0.6c0-0.1,0-0.2,0-0.3c0-0.1,0-0.1,0-0.2
		c0-0.2,0-0.4,0-0.5c0,0,0,0,0-0.1c0-0.1,0-0.1,0-0.2c0-0.1,0-0.1,0-0.2c0-0.1,0-0.1,0-0.2c0-0.1,0-0.2,0-0.3c0,0,0,0,0-0.1
		c0-0.1,0-0.1,0-0.2c0,0,0-0.1,0-0.1c0-0.1,0-0.1,0-0.2c0,0,0-0.1,0-0.1c0,0,0-0.1,0-0.1c0,0,0-0.1,0-0.1c-0.4-1.7-1.2-3.3-2.4-4.6
		c-0.2-0.2-0.3-0.5-0.6-0.6l0,0c0-0.1-0.1-0.1-0.1-0.2c-0.4-0.4-0.8-0.8-1.3-1.1C21.9,7.9,21.9,7.8,21.8,7.8L21.8,7.8z M17.4,4.5
		c0,0,0-0.1,0-0.1c0,0,0-0.1,0-0.1c0,0,0,0,0,0c0,0,0,0,0,0c0-0.1,0-0.2-0.1-0.3c-0.2-0.6-0.6-1.1-1.2-1.2c0,0-0.1-0.1-0.1,0
		c-0.1,0-0.2,0-0.4,0c0,0-0.1,0-0.1,0c-0.6,0.1-1.2,0.4-1.4,1.1c-0.2,0.6,0,1.1,0.3,1.5c0.1,0.2,0.2,0.2,0.4,0.2c0.5,0,0.9,0,1.4,0
		c0.5,0.1,0.8-0.1,1-0.4c0.1-0.1,0.1-0.1,0.1-0.2c0,0,0,0,0-0.1c0,0,0-0.1,0-0.1c0,0,0,0,0,0c0,0,0,0,0,0
		C17.4,4.6,17.4,4.6,17.4,4.5z"/>
	<path class="st1" d="M4,16.5c0,0.1,0,0.2,0,0.3C3.9,16.7,3.9,16.6,4,16.5C3.9,16.5,4,16.5,4,16.5z"/>
	<path class="st2" d="M27,16.7c0-0.1,0-0.2,0-0.2c0,0,0,0,0,0C27,16.5,27,16.6,27,16.7C27,16.7,27,16.7,27,16.7z"/>
	<path class="st3" d="M16.2,29.2c0.1-0.1,0.2-0.1,0.3,0c0,0,0,0,0,0C16.3,29.2,16.2,29.2,16.2,29.2z"/>
	<path class="st4" d="M26.9,18.4c0-0.1,0-0.2,0-0.2c0,0,0,0,0,0C27,18.2,27,18.3,26.9,18.4C27,18.4,27,18.4,26.9,18.4z"/>
	<path class="st5" d="M4,18.3c0,0.1,0,0.2,0,0.2C3.9,18.4,3.9,18.3,4,18.3C3.9,18.3,3.9,18.3,4,18.3z"/>
	<path class="st1" d="M26.9,15.6c-0.1-0.1-0.1-0.2,0-0.2C26.9,15.4,26.9,15.5,26.9,15.6z"/>
	<path class="st6" d="M14.3,29.2c0.1,0,0.1,0,0.2,0c0,0,0,0,0,0C14.4,29.2,14.4,29.2,14.3,29.2z"/>
	<path class="st3" d="M14.5,29.2C14.5,29.2,14.5,29.2,14.5,29.2c0.1-0.1,0.1-0.1,0.2,0C14.6,29.2,14.6,29.2,14.5,29.2z"/>
	<path class="st2" d="M16.8,29.1c0.1-0.1,0.1-0.1,0.2,0C16.9,29.2,16.8,29.2,16.8,29.1z"/>
	<path class="st4" d="M17.3,29.1c0.1-0.1,0.1-0.1,0.2,0C17.4,29.1,17.4,29.1,17.3,29.1z"/>
	<path class="st3" d="M13.5,29c0.1,0,0.1,0,0.2,0C13.6,29.1,13.6,29.1,13.5,29z"/>
	<path class="st6" d="M17.6,4.5c0-0.1,0-0.1,0-0.2C17.7,4.4,17.7,4.5,17.6,4.5z"/>
	<path class="st2" d="M26.9,19c0-0.1,0-0.1,0-0.2C27,18.9,26.9,18.9,26.9,19z"/>
	<path class="st3" d="M4,18.3C3.9,18.3,3.9,18.3,4,18.3c0-0.1,0-0.1,0-0.2C4,18.1,4,18.2,4,18.3z"/>
	<path class="st1" d="M27,18.1C27,18.1,27,18.2,27,18.1c-0.1-0.1-0.1-0.1,0-0.2C27,18,27,18.1,27,18.1z"/>
	<path class="st6" d="M16.4,29.2C16.4,29.2,16.4,29.2,16.4,29.2c0.1,0,0.1,0,0.2,0C16.5,29.2,16.5,29.2,16.4,29.2z"/>
	<path class="st3" d="M4.1,15c0,0.1,0,0.1,0,0.2C4.1,15.1,4.1,15.1,4.1,15z"/>
	<path class="st0" d="M15.9,2.4c-0.1,0-0.1,0-0.2,0C15.8,2.4,15.8,2.4,15.9,2.4z"/>
	<path class="st4" d="M4,16.5C4,16.5,3.9,16.5,4,16.5c0,0,0-0.1,0-0.2c0,0,0,0,0,0C4,16.4,4,16.4,4,16.5z"/>
	<path class="st2" d="M26.8,19.7c0-0.1,0-0.1,0-0.1C26.8,19.6,26.8,19.7,26.8,19.7z"/>
	<path class="st5" d="M13.9,29.1c0.1,0,0.1,0,0.1,0C14,29.2,14,29.2,13.9,29.1z"/>
	<path class="st5" d="M17.6,29c0-0.1,0.1-0.1,0.1,0C17.7,29,17.6,29,17.6,29z"/>
	<path class="st1" d="M27,16.7C27,16.7,27,16.7,27,16.7c0,0,0,0.1,0,0.1C26.9,16.8,26.9,16.7,27,16.7z"/>
	<path class="st2" d="M17.8,29c0,0,0.1-0.1,0.1,0C17.9,29,17.9,29,17.8,29z"/>
	<path class="st6" d="M27,16.4C27,16.4,27,16.4,27,16.4c0-0.1,0-0.1,0-0.1C27,16.3,27,16.4,27,16.4z"/>
	<path class="st0" d="M15.5,2.5c0,0-0.1,0.1-0.1,0C15.4,2.5,15.5,2.5,15.5,2.5z"/>
	<path class="st0" d="M16.4,2.6c-0.1,0-0.1,0-0.1,0C16.3,2.5,16.4,2.5,16.4,2.6z"/>
	<path class="st5" d="M12.9,28.9c0.1,0,0.1,0,0.1,0C13,29,12.9,29,12.9,28.9z"/>
	<path class="st1" d="M18.1,28.9c0-0.1,0.1-0.1,0.1,0C18.2,28.9,18.2,28.9,18.1,28.9z"/>
	<path class="st1" d="M12.7,28.9c0.1,0,0.1,0,0.1,0C12.7,28.9,12.7,28.9,12.7,28.9z"/>
	<path class="st6" d="M4,15.8c0,0,0,0.1,0,0.1c0,0,0,0,0,0C4,15.9,4,15.8,4,15.8z"/>
	<path class="st4" d="M18.5,28.8c0,0,0.1-0.1,0.1,0C18.6,28.8,18.6,28.8,18.5,28.8z"/>
	<path class="st3" d="M19.2,28.6c0,0,0.1-0.1,0.1,0C19.3,28.6,19.3,28.6,19.2,28.6z"/>
	<path class="st5" d="M26.8,15.2c0,0-0.1-0.1,0-0.1C26.8,15.1,26.8,15.1,26.8,15.2z"/>
	<path class="st4" d="M13.9,3.7c0,0.1,0,0.1,0,0.1C13.8,3.8,13.9,3.7,13.9,3.7z"/>
	<path class="st2" d="M26.8,15c0,0-0.1-0.1,0-0.1C26.8,14.9,26.8,14.9,26.8,15z"/>
	<path class="st4" d="M13.9,3.9c0,0.1,0,0.1,0,0.1C13.8,4,13.8,3.9,13.9,3.9z"/>
	<path class="st5" d="M26.7,14.6c0,0-0.1-0.1,0-0.1C26.7,14.5,26.7,14.6,26.7,14.6z"/>
	<path class="st3" d="M19,6.1c-0.1,0-0.1,0-0.1,0C18.9,6.1,19,6.1,19,6.1z"/>
	<path class="st4" d="M4.3,14.5c0,0.1,0,0.1,0,0.1C4.2,14.6,4.2,14.5,4.3,14.5z"/>
	<path class="st2" d="M26.2,21.8c0-0.1,0-0.1,0-0.1C26.2,21.7,26.2,21.7,26.2,21.8z"/>
	<path class="st2" d="M26.5,20.9c0-0.1,0-0.1,0-0.1C26.5,20.8,26.5,20.8,26.5,20.9z"/>
	<path class="st3" d="M18.2,5.9c-0.1,0-0.1,0-0.1,0C18.1,5.8,18.2,5.8,18.2,5.9z"/>
	<path class="st2" d="M26.5,20.7c0-0.1,0-0.1,0-0.1C26.6,20.6,26.6,20.7,26.5,20.7z"/>
	<path class="st2" d="M17.7,5.8c-0.1,0-0.1,0-0.1,0C17.6,5.7,17.6,5.7,17.7,5.8z"/>
	<path class="st5" d="M13.8,4.6c0,0,0,0.1,0,0.1C13.8,4.7,13.8,4.7,13.8,4.6z"/>
	<path class="st4" d="M17.5,4.9c0-0.1,0-0.1,0-0.1C17.6,4.8,17.6,4.9,17.5,4.9z"/>
	<path class="st1" d="M13.8,5.7c0,0-0.1,0.1-0.1,0c0,0,0,0,0,0C13.7,5.7,13.8,5.7,13.8,5.7z"/>
	<path class="st3" d="M4,18.8c0.1,0,0,0.1,0,0.1c0,0,0,0,0,0C4,18.9,4,18.8,4,18.8z"/>
	<path class="st3" d="M4,19.1c0.1,0,0.1,0.1,0,0.1C4,19.2,4,19.2,4,19.1z"/>
	<path class="st5" d="M13.7,5.7C13.7,5.7,13.7,5.7,13.7,5.7c-0.1,0-0.1,0-0.1,0C13.6,5.7,13.6,5.7,13.7,5.7z"/>
	<path class="st6" d="M14.2,5.6c0,0-0.1,0-0.1,0C14.1,5.6,14.1,5.6,14.2,5.6z"/>
	<path class="st2" d="M26.7,19.9c0-0.1,0-0.1,0-0.1C26.8,19.9,26.8,19.9,26.7,19.9z"/>
	<path class="st1" d="M13.9,4.9C13.9,4.9,13.9,4.9,13.9,4.9C13.9,4.9,13.9,4.9,13.9,4.9z"/>
	<path class="st6" d="M4,18.9C4,18.9,4,18.9,4,18.9C4,18.9,4,19,4,18.9C4,19,4,18.9,4,18.9z"/>
	<path class="st6" d="M17.4,5.7C17.3,5.7,17.3,5.7,17.4,5.7C17.3,5.7,17.3,5.7,17.4,5.7z"/>
	<path class="st6" d="M26.9,18.4C27,18.4,27,18.4,26.9,18.4C27,18.4,27,18.4,26.9,18.4C27,18.4,27,18.4,26.9,18.4z"/>
	<path class="st4" d="M12,6.1C12,6.1,11.9,6.1,12,6.1C11.9,6.1,11.9,6.1,12,6.1z"/>
	<path class="st1" d="M13.9,5.1C14,5.1,14,5.2,13.9,5.1C13.9,5.2,13.9,5.2,13.9,5.1z"/>
	<path class="st3" d="M19.4,28.5C19.4,28.5,19.5,28.4,19.4,28.5C19.5,28.5,19.5,28.5,19.4,28.5z"/>
	<path class="st7" d="M4,15.9C4,15.9,4,15.9,4,15.9C4,15.9,4,15.9,4,15.9C4,15.9,4,15.9,4,15.9z"/>
	<path class="st6" d="M4,16.3C4,16.3,3.9,16.3,4,16.3C3.9,16.3,3.9,16.3,4,16.3C4,16.3,4,16.3,4,16.3z"/>
	<path class="st5" d="M13.3,29C13.3,29,13.3,29,13.3,29C13.3,29,13.3,29,13.3,29z"/>
	<path class="st8" d="M21.9,7.9c0.5,0.3,0.9,0.7,1.3,1.1c-0.1,0.2,0,0.2,0.1,0.2l0,0c0,0.2,0.2,0.3,0.3,0.4c1.1,1.5,1.7,3.2,2.2,5
		c0.2,0.8,0.4,1.6,0.5,2.4c0.1,0.7,0,1.5-0.3,2.2c-0.1,0.4-0.2,0.7-0.5,1c0,0,0-0.1,0-0.1c0.3-1.2,0.4-2.5,0.3-3.8
		c-0.1-0.8-0.2-1.5-0.5-2.3c-0.6-1.8-1.5-3.3-2.8-4.6c-0.7-0.7-1.6-1.3-2.5-1.8c-1.9-0.9-3.9-1.2-6-1C12.3,7,10.8,7.7,9.4,8.7
		c-1.8,1.3-3,3-3.8,5.1c-0.3,0.9-0.5,1.8-0.6,2.7c-0.1,0.9,0,1.8,0.1,2.7c0.2,1.1,0.6,2.2,1.1,3.2C7,23.8,8,25,9.1,26
		c0.8,0.7,1.7,1,2.6,1.4c0.4,0.1,0.7,0.3,1.1,0.4c1.3,0.3,2.6,0.4,4,0.2c1.2-0.2,2.3-0.5,3.3-1c1.2-0.6,2.3-1.4,3.1-2.5
		c0.6-0.7,1.1-1.3,1.5-2.2c0.1-0.2,0.2-0.4,0.3-0.6c0.2,0,0.2,0.2,0.2,0.3c0,0.3-0.1,0.5-0.3,0.7c-0.4,0.4-0.7,0.9-1,1.3
		c-0.5,0.8-1.1,1.5-1.8,2.1c-0.7,0.6-1.5,1.2-2.3,1.7c-1.1,0.5-2.2,0.8-3.3,0.8c-0.5,0-0.9,0-1.4-0.1c-0.4,0-0.8,0-1.1-0.2
		c-0.3-0.2-0.7-0.2-1.1-0.3c-0.2,0-0.3-0.1-0.5-0.1c-0.9-0.2-1.7-0.7-2.5-1.1c-1.2-0.7-2.1-1.6-2.9-2.8c-0.2-0.3-0.3-0.7-0.6-0.9
		c0,0,0-0.1-0.1-0.1c0,0,0-0.1,0-0.1c0,0,0,0,0,0.1c0,0,0,0.1,0.1,0.1c0,0.4,0.2,0.6,0.3,1c0.1,0.3,0.3,0.6,0.3,1
		c-0.3-0.2-0.4-0.5-0.6-0.7c-1.2-1.6-1.9-3.3-2.2-5.3c-0.2-1.5-0.2-3,0.2-4.4c0.1-0.4,0.2-0.8,0.4-1.2c0.1,0,0.1-0.1,0.1-0.2l0,0
		C5,13.3,5,13.2,5,13.1c0.5-1.1,1-2.1,1.9-2.9c0.8-0.8,1.8-1.5,2.7-2.2c1.1-0.7,2.3-1.3,3.6-1.4c0.6-0.1,1.1-0.1,1.7-0.2
		c1-0.1,2-0.1,2.9,0c1,0.2,2,0.4,2.9,0.8c0.1,0.1,0.3,0.2,0.4,0.1l0,0c0.1,0.2,0.3,0.3,0.5,0.3c0,0,0,0,0,0c0,0,0,0,0.1,0.1
		c0,0,0,0,0,0C21.8,7.9,21.9,7.9,21.9,7.9z"/>
	<path class="st9" d="M25.5,20.2c0.3-0.3,0.3-0.7,0.5-1c0.2-0.7,0.3-1.5,0.3-2.2c-0.1-0.8-0.2-1.6-0.5-2.4c-0.5-1.8-1.2-3.5-2.2-5
		c-0.1-0.1-0.3-0.2-0.3-0.4c0.3,0.1,0.4,0.4,0.6,0.6c1.2,1.4,2,2.9,2.4,4.6c0,0,0,0.1,0,0.1c0,0,0,0.1,0,0.1c0,0,0,0.1,0,0.1
		c0,0.1,0,0.1,0,0.2c0,0,0,0.1,0,0.1c0,0.1,0,0.1,0,0.2c0,0,0,0,0,0.1c0,0.1,0,0.2,0,0.3c0,0.1,0,0.1,0,0.2c0,0.1,0,0.1,0,0.2
		c0,0.1,0,0.1,0,0.2c0,0,0,0,0,0.1c0,0.2,0,0.4,0,0.5c0,0.1,0,0.1,0,0.2c0,0.1,0,0.2,0,0.3c0,0.2,0,0.4,0,0.6c0,0,0,0.1,0,0.1
		c0,0.2,0,0.5,0,0.7c0,0,0,0,0,0.1c0,0.1,0,0.1,0,0.2c0,0.1,0,0.2,0,0.3c0,0,0,0.1,0,0.1c0,0.1,0,0.2,0,0.3c0,0-0.1,0.1,0,0.1
		c0,0.1,0,0.1,0,0.2c0,0,0,0.1,0,0.1c0,0.1,0,0.1,0,0.2c0,0,0,0,0,0.1c-0.2,1-0.6,1.9-1,2.8c-1.4,2.7-3.6,4.5-6.5,5.5
		c-0.2,0.1-0.4,0.1-0.6,0.2c-0.1,0-0.1,0-0.2,0.1c-0.1,0-0.2,0-0.3,0.1c0,0-0.1,0-0.1,0c-0.1,0-0.1,0-0.2,0c0,0-0.1,0-0.1,0
		c-0.1,0-0.2,0-0.2,0c-0.1,0-0.1,0-0.2,0c-0.1,0-0.2,0-0.2,0c-0.1,0-0.1,0-0.2,0c-0.1,0-0.3,0-0.4,0c-0.1,0-0.2,0-0.2,0
		c-0.1,0-0.2,0-0.2,0c-0.2,0-0.5,0-0.7,0c-0.1-0.1-0.2,0-0.3,0c-0.2,0-0.4,0-0.6,0c0,0-0.1,0-0.1,0l0,0l0,0c0,0,0,0-0.1,0
		c-0.1,0-0.2,0-0.2,0c-0.1-0.1-0.1-0.1-0.2,0c-0.1,0-0.1,0-0.2,0c0,0-0.1-0.1-0.1,0c-0.1,0-0.1,0-0.2,0c0,0-0.1,0-0.1,0
		C12,28.5,11,28.1,10,27.5c-1-0.6-1.9-1.3-2.7-2.2c0,0,0,0-0.1-0.1c0,0,0,0,0,0c0,0,0-0.1-0.1-0.1c0,0,0-0.1-0.1-0.1
		c0-0.4-0.2-0.7-0.3-1c-0.1-0.3-0.3-0.6-0.3-1l0,0c0.3,0.3,0.4,0.6,0.6,0.9c0.7,1.2,1.7,2.1,2.9,2.8c0.8,0.5,1.6,0.9,2.5,1.1
		c0.2,0,0.3,0.1,0.5,0.1c0.4,0.1,0.7,0.1,1.1,0.3c0.3,0.2,0.7,0.2,1.1,0.2c0.4,0,0.9,0.1,1.4,0.1c1.2,0,2.3-0.3,3.3-0.8
		c0.9-0.4,1.6-1,2.3-1.7c0.7-0.6,1.3-1.3,1.8-2.1c0.3-0.5,0.7-0.9,1-1.3c0.2-0.2,0.3-0.4,0.3-0.7c0-0.1,0-0.3-0.2-0.3
		c0,0,0-0.1,0.1-0.1c0,0,0,0,0-0.1c0,0,0,0,0-0.1l0,0c0.1-0.1,0.1-0.1,0.1-0.3c0,0,0,0,0,0c0.1,0,0.1-0.1,0.1-0.2c0,0,0,0,0-0.1
		c0.1-0.1,0.1-0.2,0.1-0.3C25.4,20.5,25.5,20.4,25.5,20.2z"/>
	<path class="st9" d="M21.3,7.5c-0.2,0-0.3-0.1-0.4-0.1c-0.9-0.4-1.9-0.7-2.9-0.8c-1-0.2-1.9-0.2-2.9,0c-0.6,0.1-1.1,0.1-1.7,0.2
		c-1.3,0.1-2.5,0.7-3.6,1.4c-1,0.7-1.9,1.4-2.7,2.2c-0.8,0.8-1.4,1.8-1.9,2.9c0,0.1,0,0.2-0.1,0.2c0.2-0.7,0.5-1.3,0.9-1.9
		c0.8-1.3,1.8-2.5,3-3.4c1.2-0.9,2.5-1.6,4-1.9c0.1,0,0.1,0,0.1,0c0.1,0,0.1,0,0.2,0c0,0,0.1,0,0.1,0c0.2,0,0.4-0.1,0.6-0.1
		c0,0,0.1,0,0.1,0c0.1,0,0.1,0,0.2,0c0.1,0,0.1,0,0.1,0c0.2,0,0.4,0,0.6,0c0,0,0,0,0.1,0c0,0,0.1,0,0.1,0c0.4,0,0.8,0,1.1,0
		c0.2,0,0.4,0,0.5,0c0.1,0.1,0.1,0.1,0.2,0c0.1,0,0.1,0,0.2,0C17,6,17.1,6,17.2,5.9c0.1,0,0.1,0,0.2,0c0,0,0,0,0.1,0
		c0.1,0,0.1,0,0.2,0c0,0,0.1,0,0.1,0c0.2,0,0.4,0.1,0.6,0.1c0,0,0.1,0.1,0.1,0C19.5,6.5,20.4,6.9,21.3,7.5
		C21.2,7.4,21.2,7.5,21.3,7.5z"/>
	<path class="st9" d="M15.6,2.7c0.1,0,0.2,0,0.4,0c0,0,0.1,0,0.1,0c0.7,0.2,1,0.6,1.2,1.2c0,0.1,0,0.2,0.1,0.3c0,0,0,0,0,0.1
		c0,0,0,0.1,0,0.1c0,0,0,0.1,0,0.1c0,0,0,0.1,0,0.1c0,0,0,0,0,0.1c0,0,0,0.1,0,0.1c0,0,0,0,0,0.1c0,0.1,0,0.2-0.1,0.2
		c-0.6,0-1.3-0.1-1.9-0.1c-0.2,0-0.4,0-0.6-0.1c-0.2,0-0.3-0.1-0.4-0.3c-0.1-0.3-0.2-0.6-0.2-0.9c0.2-0.7,0.7-1,1.4-1.1
		C15.5,2.7,15.5,2.7,15.6,2.7z M14.8,4.1c0,0.1,0,0.1,0,0.2c0,0.1,0,0.1,0,0.1C14.9,4.8,15.2,5,15.6,5c0.5,0,0.7-0.2,0.9-0.6
		c0,0,0,0,0,0c0,0,0,0,0,0c0,0,0-0.1,0-0.1c0,0,0,0,0,0c0,0,0,0,0,0c0-0.1-0.1-0.3-0.1-0.4c-0.1-0.3-0.3-0.5-0.7-0.5
		c-0.5,0-0.8,0.3-0.9,0.8C14.7,4,14.7,4,14.8,4.1z"/>
	<path class="st8" d="M14.1,3.8c0,0.3,0.1,0.6,0.2,0.9C14.3,4.9,14.5,5,14.6,5c0.2,0,0.4,0.1,0.6,0.1c0.6,0,1.3,0.1,1.9,0.1
		c-0.3,0.4-0.6,0.5-1,0.4c-0.5-0.1-0.9,0-1.4,0c-0.2,0-0.3,0-0.4-0.2C14.1,4.9,13.9,4.4,14.1,3.8z"/>
	<path class="st10" d="M16.1,5.8c-0.4,0-0.8,0-1.1,0C15.4,5.8,15.7,5.7,16.1,5.8z"/>
	<path class="st9" d="M21.7,7.8c-0.2,0-0.4-0.1-0.5-0.3C21.5,7.5,21.6,7.6,21.7,7.8z"/>
	<path class="st9" d="M23.3,9.1c-0.1,0-0.2,0-0.1-0.2C23.3,9,23.3,9.1,23.3,9.1z"/>
	<path class="st11" d="M26.7,17.2c-0.1-0.1,0-0.2,0-0.3c0,0,0,0,0,0C26.8,17,26.7,17.1,26.7,17.2z"/>
	<path class="st11" d="M14.8,28.9c0.1,0,0.2,0,0.3,0C15,29,14.9,29,14.8,28.9z"/>
	<path class="st8" d="M15.8,29c0.1-0.1,0.2,0,0.2,0c0,0,0,0,0,0C15.9,29,15.8,29,15.8,29z"/>
	<path class="st10" d="M16,29C16,29,16,28.9,16,29c0.1,0,0.2,0,0.2,0C16.2,29,16.1,29,16,29z"/>
	<path class="st9" d="M4.9,13.3c0,0.1,0,0.1-0.1,0.2C4.9,13.4,4.8,13.3,4.9,13.3z"/>
	<path class="st11" d="M16.6,28.9c0.1-0.1,0.1-0.1,0.2,0C16.8,28.9,16.7,28.9,16.6,28.9z"/>
	<path class="st10" d="M17.1,28.9c0.1,0,0.1-0.1,0.2,0C17.2,28.9,17.1,28.9,17.1,28.9z"/>
	<path class="st11" d="M13.6,28.8c0.1,0,0.1,0,0.2,0C13.7,28.9,13.7,28.9,13.6,28.8z"/>
	<path class="st10" d="M18.2,28.6c0.1,0,0.1-0.1,0.2-0.1C18.3,28.6,18.2,28.6,18.2,28.6z"/>
	<path class="st11" d="M26.7,18.8c0-0.1,0-0.1,0-0.2c0,0,0,0,0,0C26.7,18.7,26.7,18.8,26.7,18.8z"/>
	<path class="st11" d="M16.8,5.9c-0.1,0-0.1,0-0.2,0C16.7,5.8,16.8,5.8,16.8,5.9z"/>
	<path class="st11" d="M17.2,5.9c-0.1,0-0.1,0-0.2,0C17.1,5.9,17.1,5.9,17.2,5.9z"/>
	<path class="st11" d="M26.6,15.7c-0.1-0.1-0.1-0.1,0-0.2C26.6,15.6,26.6,15.7,26.6,15.7z"/>
	<path class="st10" d="M26.7,16.1c0-0.1,0-0.1,0-0.2C26.7,15.9,26.7,16,26.7,16.1C26.7,16.1,26.7,16.1,26.7,16.1z"/>
	<path class="st10" d="M26.8,16.9C26.7,16.8,26.7,16.8,26.8,16.9c0-0.1,0-0.1,0-0.2C26.8,16.7,26.8,16.8,26.8,16.9z"/>
	<path class="st8" d="M15.6,2.7c0,0-0.1,0-0.1,0C15.5,2.7,15.5,2.6,15.6,2.7z"/>
	<path class="st8" d="M16.1,2.7c0,0-0.1,0-0.1,0C16,2.6,16,2.7,16.1,2.7z"/>
	<path class="st8" d="M17.5,28.8c0,0,0.1,0,0.1,0C17.6,28.8,17.5,28.8,17.5,28.8z"/>
	<path class="st9" d="M21.9,7.9c-0.1,0-0.1,0-0.1-0.1C21.9,7.8,21.9,7.9,21.9,7.9z"/>
	<path class="st7" d="M13.3,28.8c0,0,0.1,0,0.1,0C13.4,28.8,13.4,28.8,13.3,28.8z"/>
	<path class="st10" d="M26.5,14.8c0,0-0.1-0.1,0-0.1C26.5,14.7,26.5,14.7,26.5,14.8z"/>
	<path class="st8" d="M13,6.1c0,0-0.1,0.1-0.1,0C12.9,6.1,12.9,6.1,13,6.1z"/>
	<path class="st7" d="M26.4,14.5c0,0-0.1-0.1,0-0.1C26.4,14.5,26.4,14.5,26.4,14.5z"/>
	<path class="st11" d="M17.8,6.1c-0.1,0-0.1,0-0.1,0C17.8,6,17.8,6,17.8,6.1z"/>
	<path class="st8" d="M13.9,5.9c0,0-0.1,0-0.1,0C13.8,5.9,13.9,5.9,13.9,5.9z"/>
	<path class="st10" d="M17.4,4.5c0,0,0-0.1,0-0.1C17.4,4.5,17.4,4.5,17.4,4.5z"/>
	<path class="st11" d="M14.2,5.9c0,0-0.1,0-0.1,0C14.1,5.8,14.2,5.8,14.2,5.9z"/>
	<path class="st11" d="M26.5,19.6c0-0.1,0-0.1,0-0.1C26.6,19.5,26.6,19.5,26.5,19.6z"/>
	<path class="st11" d="M26.5,19.9c0-0.1,0-0.1,0-0.1C26.5,19.8,26.5,19.8,26.5,19.9z"/>
	<path class="st8" d="M18.5,6.2c0,0-0.1,0-0.1,0C18.5,6.2,18.5,6.2,18.5,6.2z"/>
	<path class="st11" d="M26.6,19.2C26.6,19.1,26.6,19.1,26.6,19.2C26.6,19.1,26.6,19.1,26.6,19.2z"/>
	<path class="st10" d="M26.4,20.1C26.4,20.1,26.5,20.1,26.4,20.1C26.5,20.1,26.4,20.1,26.4,20.1z"/>
	<path class="st8" d="M17.3,4.9C17.3,4.9,17.3,4.9,17.3,4.9C17.3,4.9,17.3,4.9,17.3,4.9z"/>
	<path class="st8" d="M26.7,18.6C26.7,18.6,26.7,18.6,26.7,18.6C26.7,18.6,26.7,18.6,26.7,18.6C26.7,18.6,26.7,18.6,26.7,18.6z"/>
	<path class="st10" d="M17.4,4.7C17.4,4.7,17.4,4.7,17.4,4.7C17.4,4.7,17.4,4.7,17.4,4.7C17.4,4.7,17.4,4.7,17.4,4.7z"/>
	<path class="st10" d="M14.9,5.8C14.8,5.8,14.8,5.8,14.9,5.8C14.8,5.8,14.8,5.8,14.9,5.8z"/>
	<path class="st11" d="M17.5,6C17.4,6,17.4,6,17.5,6C17.4,6,17.5,6,17.5,6z"/>
	<path class="st11" d="M26.7,17.9C26.7,17.8,26.7,17.8,26.7,17.9C26.8,17.8,26.7,17.8,26.7,17.9z"/>
	<path class="st10" d="M13.2,6C13.2,6,13.2,6.1,13.2,6C13.2,6,13.2,6,13.2,6z"/>
	<path class="st10" d="M17.4,4.3C17.4,4.3,17.4,4.3,17.4,4.3C17.4,4.3,17.4,4.3,17.4,4.3C17.4,4.3,17.4,4.3,17.4,4.3z"/>
	<path class="st8" d="M7.2,25.2C7.2,25.2,7.2,25.2,7.2,25.2C7.2,25.2,7.2,25.2,7.2,25.2z"/>
	<path class="st11" d="M7.2,25.3C7.3,25.3,7.3,25.3,7.2,25.3C7.3,25.3,7.3,25.3,7.2,25.3z"/>
	<path class="st11" d="M26.5,15C26.5,15,26.5,15,26.5,15C26.5,15,26.5,15,26.5,15z"/>
	<path class="st7" d="M26.6,15.3C26.6,15.2,26.6,15.2,26.6,15.3C26.6,15.2,26.6,15.2,26.6,15.3z"/>
	<path class="st8" d="M13.1,28.7C13.1,28.7,13.1,28.7,13.1,28.7C13.1,28.7,13.1,28.7,13.1,28.7z"/>
	<path class="st11" d="M17.8,28.7C17.8,28.7,17.8,28.7,17.8,28.7C17.8,28.7,17.8,28.7,17.8,28.7z"/>
	<path class="st9" d="M21.8,7.8C21.8,7.8,21.8,7.8,21.8,7.8C21.8,7.8,21.8,7.8,21.8,7.8z"/>
	<path class="st8" d="M26.7,16.1C26.7,16.1,26.7,16.1,26.7,16.1C26.7,16.1,26.7,16.1,26.7,16.1C26.7,16.1,26.7,16.1,26.7,16.1z"/>
	<path class="st8" d="M14,28.9C14.1,28.9,14.1,28.9,14,28.9C14.1,28.9,14.1,28.9,14,28.9z"/>
	<path class="st8" d="M14.1,28.9C14.2,28.9,14.2,28.9,14.1,28.9C14.2,28.9,14.2,28.9,14.1,28.9z"/>
	<path class="st0" d="M25.2,21.2C25.2,21.2,25.2,21.2,25.2,21.2c-0.1,0.1-0.1,0.2-0.1,0.3l0,0c0,0,0,0-0.1,0.1c0,0,0,0,0,0.1
		c0,0,0,0.1-0.1,0.1c-0.1,0.2-0.2,0.4-0.3,0.6c-0.3,0.8-0.9,1.5-1.5,2.2c-0.9,1-1.9,1.9-3.1,2.5c-1,0.5-2.1,0.9-3.3,1
		c-1.3,0.2-2.7,0.1-4-0.2c-0.4-0.1-0.7-0.3-1.1-0.4C10.8,27,9.9,26.7,9.1,26C8,25,7,23.8,6.3,22.4c-0.5-1-0.9-2.1-1.1-3.2
		C5,18.4,5,17.5,5.1,16.5c0.1-0.9,0.2-1.9,0.6-2.7c0.7-2.1,2-3.8,3.8-5.1c1.4-1,2.9-1.7,4.6-1.9c2.1-0.3,4.1,0,6,1
		c0.9,0.5,1.8,1,2.5,1.8c1.3,1.3,2.3,2.8,2.8,4.6c0.2,0.7,0.4,1.5,0.5,2.3c0.1,1.3,0,2.5-0.3,3.8c0,0,0,0.1,0,0.1
		c0,0.1-0.1,0.3-0.1,0.4c-0.1,0.1-0.1,0.2-0.1,0.3c0,0,0,0,0,0.1C25.2,21,25.2,21.1,25.2,21.2z M14.4,7C14.4,7,14.3,7,14.4,7
		C14.2,7,14.1,7,14,7c0,0-0.1,0-0.1,0c-0.1,0-0.2,0-0.3,0c0,0-0.1,0-0.1,0c-0.2,0-0.5,0.1-0.7,0.1c-0.1,0-0.1,0-0.1,0
		c-0.2,0.1-0.5,0.1-0.7,0.2c0,0-0.1,0-0.1,0C10.9,8,10,8.5,9.1,9.2c-1.5,1.2-2.5,2.8-3.2,4.5c0,0,0,0,0,0.1c0,0,0,0,0,0
		c0,0-0.1,0.1,0,0.1c0,0,0,0,0,0.1c0,0-0.1,0.1,0,0.1c0,0,0,0,0,0c-0.1,0-0.1,0.1,0,0.1c0,0.2-0.1,0.4-0.1,0.6c0,0-0.1,0.1,0,0.1
		c0,0.1-0.1,0.3-0.1,0.4c-0.1,0.1-0.1,0.1,0,0.2c0,0.1,0,0.1,0,0.2c-0.1,0.1-0.1,0.1,0,0.2c0,0.1,0,0.1,0,0.2
		c-0.1,0.1-0.1,0.1,0,0.2c0,0.1,0,0.2,0,0.2c0,0.2,0,0.4,0,0.6c0,0.1,0.1,0.1,0,0.2c0,0,0,0,0,0.1c0,0.2,0,0.4,0,0.6
		c0,0.1,0,0.2,0,0.2c0,0,0,0.1,0,0.1c0,0.1,0,0.1,0,0.2c0,0,0,0,0,0.1c0,0.1,0,0.1,0,0.2c0,0.1,0,0.2,0,0.2c0,0.1,0,0.1,0,0.1
		c0,0.1,0.1,0.3,0.1,0.4c0,0.1,0,0.1,0,0.1c0,0.1,0.1,0.3,0.1,0.4c0,0.1,0,0.1,0,0.1c0,0,0,0,0,0.1c0,0.1,0,0.1,0,0.1c0,0,0,0,0,0
		c0,0.1,0,0.1,0,0.1C6,21.4,6.4,22,6.7,22.6c0.7,1.2,1.6,2.3,2.7,3.2c0.9,0.7,1.9,1.2,2.9,1.6c0,0,0.1,0.1,0.1,0
		c0.2,0,0.3,0.1,0.5,0.1c0,0,0.1,0.1,0.1,0c0,0,0.1,0,0.1,0c0,0,0.1,0.1,0.1,0c0.1,0,0.1,0,0.2,0c0,0,0.1,0.1,0.1,0
		c0.1,0,0.1,0,0.2,0c0,0,0.1,0.1,0.1,0c0.1,0,0.2,0,0.2,0c0,0,0.1,0,0.1,0c0.1,0,0.1,0,0.2,0c0,0,0.1,0,0.1,0c0.2,0,0.3,0,0.5,0
		c0.1,0.1,0.1,0,0.2,0c0.2,0,0.4,0,0.6,0c0,0,0.1,0,0.1,0c0.2,0,0.3,0,0.5,0c0.1,0,0.1,0,0.1,0c0.1,0,0.3,0,0.4-0.1
		c0.1,0,0.2,0,0.3,0c0,0,0.1,0,0.1,0c0.1,0,0.1,0,0.2,0c0.1,0,0.1,0,0.1,0c0,0,0.1,0,0.1,0c0.1,0,0.1,0,0.1,0c0,0,0.1,0,0.1,0
		c0.1,0,0.1,0,0.1,0c0,0,0.1,0,0.1,0c0,0,0.1,0,0.1,0c0,0,0.1,0,0.1,0c0,0,0.1,0,0.1,0c1.4-0.6,2.7-1.4,3.8-2.4
		c1.4-1.3,2.5-2.8,2.9-4.8c0,0,0.1-0.1,0-0.1c0-0.1,0.1-0.3,0.1-0.4c0,0,0,0,0-0.1c0-0.2,0.1-0.4,0.1-0.6c0,0,0-0.1,0-0.1
		c0-0.1,0-0.3,0-0.4c0,0,0,0,0-0.1c0-0.1,0-0.3,0.1-0.4c0,0,0,0,0-0.1c0-0.1-0.1-0.2-0.2-0.1l0,0l0,0c0.2,0,0.2-0.1,0.2-0.2
		c0-0.3,0-0.6,0-0.9c0-0.1,0-0.2,0-0.2c0-0.1,0-0.2,0-0.3c0-0.1,0-0.1,0-0.2c0-0.2,0-0.4-0.1-0.6c0,0,0-0.1,0-0.1c0-0.1,0-0.1,0-0.2
		c0,0,0-0.1,0-0.1c0,0,0-0.1,0-0.1c0-0.1,0-0.1,0-0.1c-0.1-0.5-0.4-0.9-0.5-1.4c-0.4-1.1-0.9-2-1.7-2.9c-1.5-1.7-3.2-2.8-5.4-3.3
		c0,0-0.1-0.1-0.1,0c-0.1,0-0.1,0-0.2,0c0,0-0.1-0.1-0.1,0c-0.1,0-0.1,0-0.2,0c0,0,0,0-0.1,0c-0.1,0-0.3,0-0.4-0.1c0,0,0,0-0.1,0
		c-0.2,0-0.3,0-0.5,0c-0.1-0.1-0.2-0.1-0.4,0c0,0-0.1,0-0.1,0c-0.1,0-0.1,0-0.2,0c-0.1,0-0.1,0-0.2,0c-0.2,0-0.3,0-0.5,0
		C14.5,7,14.5,7,14.4,7z"/>
	<path class="st9" d="M6.4,23c0.1,0,0.1,0.1,0.1,0.1l0,0C6.4,23.1,6.4,23.1,6.4,23L6.4,23z"/>
	<path class="st9" d="M6.4,23C6.4,23,6.4,23,6.4,23C6.4,22.9,6.4,23,6.4,23C6.4,23,6.4,23,6.4,23z"/>
	<path class="st11" d="M25.3,20.9c0-0.1,0-0.2,0.1-0.3C25.4,20.8,25.4,20.9,25.3,20.9z"/>
	<path class="st11" d="M25.1,21.5c0-0.1,0-0.2,0.1-0.3C25.2,21.3,25.2,21.4,25.1,21.5z"/>
	<path class="st11" d="M25.2,21.2c0-0.1,0-0.1,0.1-0.2C25.3,21.1,25.3,21.1,25.2,21.2z"/>
	<path class="st11" d="M25.1,21.5C25.1,21.5,25.1,21.5,25.1,21.5C25.1,21.5,25.1,21.5,25.1,21.5C25.1,21.5,25.1,21.5,25.1,21.5z"/>
	<path class="st8" d="M25.1,21.5C25.1,21.5,25.1,21.5,25.1,21.5C25.1,21.5,25.1,21.6,25.1,21.5C25.1,21.6,25.1,21.5,25.1,21.5z"/>
	<path class="st7" d="M14.8,4.2c0-0.1,0-0.1,0-0.2c0,0,0-0.1,0-0.1c0.1-0.5,0.4-0.8,0.9-0.8c0.4,0,0.5,0.2,0.7,0.5
		c0.1,0.1,0.1,0.3,0.1,0.4c0,0,0,0,0,0.1c0,0,0,0.1,0,0.1c0,0,0,0,0,0.1C16.4,4.8,16.1,5,15.6,5c-0.5,0-0.7-0.2-0.8-0.6
		C14.8,4.3,14.8,4.3,14.8,4.2z M16.2,4.3c0.1-0.1,0.1-0.2,0-0.4c0-0.4-0.3-0.5-0.6-0.5c-0.1-0.1-0.1-0.1-0.2,0
		c-0.3,0.1-0.4,0.3-0.5,0.5c0,0,0,0,0,0.1c0,0.1,0,0.2,0,0.3c0,0.1,0,0.1,0.1,0.2c0.2,0.3,0.5,0.4,0.8,0.3
		C16.1,4.7,16.2,4.6,16.2,4.3z"/>
	<path class="st11" d="M14.8,3.9c0,0,0,0.1,0,0.1C14.7,4,14.7,4,14.8,3.9z"/>
	<path class="st11" d="M14.8,4.2c0,0,0,0.1,0,0.1C14.8,4.3,14.7,4.3,14.8,4.2z"/>
	<path class="st8" d="M16.5,4.4C16.5,4.3,16.5,4.3,16.5,4.4C16.5,4.3,16.5,4.3,16.5,4.4C16.5,4.3,16.5,4.4,16.5,4.4z"/>
	<path class="st8" d="M16.5,4.2C16.5,4.2,16.5,4.1,16.5,4.2C16.5,4.1,16.5,4.1,16.5,4.2C16.5,4.2,16.5,4.2,16.5,4.2z"/>
	<path class="st12" d="M5.4,15.9c0-0.1,0-0.1,0-0.2c0-0.1,0.1-0.1,0-0.2c0-0.1,0.1-0.3,0.1-0.4c0,0,0.1-0.1,0-0.1
		c0-0.2,0.1-0.4,0.1-0.6c0,0,0-0.1,0-0.1c0,0,0,0,0,0c0,0,0.1-0.1,0-0.1c0,0,0,0,0-0.1c0,0,0.1-0.1,0-0.1c0,0,0,0,0,0
		c0,0,0.1,0,0-0.1c0.7-1.8,1.8-3.3,3.2-4.5C10,8.5,10.9,8,11.9,7.6c0,0,0.1,0,0.1,0c0.1,0,0.1,0.1,0.1,0.2c0,0.2,0.2,0.3,0.4,0.3
		c0.3,0.1,0.7,0,1,0.1c0.4,0.1,0.8,0.1,1.2,0.2c0,0.2,0,0.3,0,0.5c-0.1,0.1,0,0.1,0,0.2c0,0.1-0.1,0.3,0,0.4c0,0.1,0.1,0,0.1,0
		c0-0.1,0-0.2,0-0.3c0,0,0,0,0-0.1c0-0.1,0-0.1,0-0.2c0,0,0-0.1,0-0.1c0,0,0-0.1,0-0.1c0.1-0.1,0.1,0,0.1,0.1c0,0.1,0.1,0.2,0.1,0.3
		c0,0.1,0,0.1,0.1,0.1c0.1,0.2,0.1,0.4,0.4,0.4c0.2,0,0.2-0.3,0.2-0.4c0,0,0-0.1,0-0.1c0,0,0.1-0.1,0-0.1c0-0.1,0-0.1,0-0.2
		c0.1,0,0.2,0,0.3,0c1.1,0.4,2.1,0.7,3.1,1.3c1.3,0.7,2.2,1.8,2.9,3.1c0.6,1.1,0.9,2.2,1.1,3.4c0,0.1,0,0.3,0.1,0.4
		c0,0.1,0,0.3-0.1,0.4c0,0,0,0,0,0.1c0,0,0,0.1,0,0.1c0,0-0.1,0.1,0,0.1c0,0.1,0,0.2,0,0.3c-0.1,0.1-0.1,0.1,0,0.2c0,0,0,0.1,0,0.1
		c-0.1,0.1-0.1,0.1,0,0.2c0,0.1-0.1,0.3,0.1,0.4c0,0.1,0.1,0,0.2,0.1c0,0.5-0.1,0.9-0.1,1.4c0,0.3,0,0.5-0.1,0.8
		c-0.2,0.6-0.5,1.3-0.9,1.8c-0.2,0.3-0.4,0.6-0.6,0.9c-0.1-0.1-0.3-0.2-0.2,0.1c0,0,0,0.1,0,0.1c0,0,0,0,0,0.1
		c-0.3,0.3-0.5,0.7-0.8,1c-0.9,1.1-2.1,1.9-3.4,2.4c-0.1,0.1-0.4,0.1-0.4,0.3c-0.1,0.1-0.3,0-0.4,0.1c-0.1,0-0.1,0-0.1,0
		c-0.2,0-0.3,0-0.5,0c0,0-0.1,0-0.1,0c-0.2,0-0.4,0-0.6,0c-0.1,0-0.1,0-0.2,0c-0.2,0-0.3,0-0.5,0c0,0-0.1,0-0.1,0
		c-0.1,0-0.1,0-0.2,0c0,0-0.1,0-0.1,0c-0.1,0-0.2,0-0.2,0c0,0-0.1-0.1-0.1,0c-0.1,0-0.1,0-0.2,0c0,0-0.1-0.1-0.1,0
		c-0.1,0-0.1,0-0.2,0c0,0-0.1-0.1-0.1,0c0,0-0.1,0-0.1,0c0,0-0.1-0.1-0.1,0c-0.2,0-0.3-0.1-0.5-0.1c0,0-0.1-0.1-0.1,0
		c-1-0.4-2-0.9-2.9-1.6c-1.1-0.9-2-1.9-2.7-3.2C6.4,22,6,21.4,5.8,20.7c0-0.1,0-0.1,0-0.1c0,0,0,0,0,0c0,0,0-0.1,0-0.1
		c0,0,0,0,0-0.1c0-0.1,0-0.1,0-0.1c0-0.1-0.1-0.3-0.1-0.4c0-0.1,0-0.1,0-0.1c0-0.1-0.1-0.3-0.1-0.4c0-0.1,0-0.1,0-0.1
		c0-0.1,0-0.2,0-0.2c0-0.1,0-0.1,0-0.2c0,0,0-0.1,0-0.1c0-0.1,0-0.1,0-0.2c0,0,0-0.1,0-0.1c0-0.1,0-0.2,0-0.2c0-0.2,0-0.4,0-0.6
		c0,0,0.1,0,0.1,0c0,0,0.1,0,0.1,0c0.1,0,0.2,0,0.3,0c0.1,0.1,0.1,0.1,0.2,0c0.1-0.1,0.1-0.2-0.1-0.2c-0.1,0-0.3,0-0.4,0
		c0,0,0,0-0.1,0c-0.1,0-0.1,0-0.2,0c0-0.2,0-0.4,0-0.6c0.1-0.1,0.1-0.2,0-0.3c0-0.1,0-0.1,0-0.2c0-0.1,0-0.1,0-0.2
		C5.4,16,5.4,16,5.4,15.9z M11.8,19.6C11.8,19.6,11.8,19.6,11.8,19.6c0.2,0,0.3-0.1,0.4-0.1c0.1,0,0.1,0,0.2,0c0.1,0,0.2,0,0.3,0
		c0.1,0,0.2,0,0.2,0c0.3,0.2,0,0.3,0,0.4c-0.7,1.2-1.3,2.4-2,3.6c0,0.1-0.1,0.2,0,0.3c0.1,0.1,0.2-0.1,0.2-0.1
		c0.8-1,1.6-2.1,2.4-3.1c0.3-0.4,0.3-0.4,0.8-0.2c0,0,0,0,0.1,0c0,0,0.1,0,0.1,0c0,0,0.1,0.1,0.1,0c0,0,0.1,0,0.1,0c0,0,0,0.1,0,0.1
		c0,0,0,0.1,0,0.1c0,0.1,0,0.1,0,0.1c0,0.1,0,0.2,0,0.3c0,0.1,0,0.1,0,0.1c0,0.1,0,0.1,0,0.2c0,0.1,0,0.1,0,0.1c0,0.1,0,0.2,0,0.3
		c0,0,0,0.1,0,0.1c0.1,0.3,0.1,0.6,0.2,0.9c0,0,0,0.1,0,0.1c0,0,0,0.1,0,0.1c0,0.1,0,0.1,0,0.2c0,0,0,0.1,0,0.1c0,0.1,0,0.2,0,0.3
		c0,0,0,0,0,0.1c0,0.1,0,0.1,0,0.1c0,0.1,0,0.1,0,0.2c0,0,0,0.1,0,0.1c0,0.1,0,0.2,0,0.2c0,0.1,0,0.1,0,0.1c0.1,0.1,0.1,0,0.2-0.1
		c0,0,0.1-0.1,0-0.1c0,0,0-0.1,0-0.1c0.5,0,0.7-0.1,0.9-0.6c0.3-0.8,0.3-1.6,0.2-2.4c0-0.1-0.1-0.1,0-0.2c0.1,0,0.1,0,0.2,0.1
		c0,0,0,0,0.1,0.1c0.3,0.2,0.6,0.4,0.9,0.3c0.3-0.1,0.5-0.4,0.6-0.8c0.1-0.5,0-0.9-0.1-1.3c0-0.1,0-0.3,0.1-0.3
		c0.4-0.2,0.7-0.3,1.1-0.4c0.6-0.1,1.2-0.3,1.7-0.6c0.3-0.1,0.6-0.3,0.7-0.6c0,0,0,0,0.1-0.1c0.1,0,0.2,0,0.3,0c0,0,0.1,0,0.1,0
		c0.1,0,0.1,0,0.2-0.1c0.1,0,0.1-0.1,0-0.1c-0.4-0.1-0.8-0.1-1.1-0.2c-0.1-0.1-0.1-0.1-0.2,0c-0.1,0-0.2,0-0.2,0c0,0-0.1,0-0.1,0
		c-0.1,0-0.1,0-0.2,0c-0.1-0.1-0.1-0.1-0.2,0c-0.2,0-0.4-0.1-0.6-0.1c0,0-0.1-0.1-0.1,0c-0.1,0-0.2,0-0.3,0c-0.1-0.1-0.1-0.1-0.2,0
		c-0.2,0-0.4-0.1-0.6-0.1c-0.1,0-0.1-0.1-0.2-0.1c-0.2-0.7-0.2-0.7,0-1.5c0-0.1,0-0.1,0.1-0.2c0.1,0,0.1-0.1,0-0.1
		c-0.1-0.1-0.1-0.1-0.2,0c-0.1,0-0.1,0-0.2,0c-0.1,0-0.1,0-0.1,0c-0.1,0-0.3,0.1-0.4,0.1c0,0-0.1,0-0.1,0c-0.3-0.1-0.2-0.3-0.1-0.5
		c0.6-1.3,1.3-2.5,1.9-3.8c0.1-0.1,0.1-0.1,0-0.2c-0.2-0.1-0.2,0.1-0.3,0.2c-0.8,1.1-1.6,2.3-2.4,3.4c-0.1,0.1-0.1,0.2-0.2,0.1
		c0,0,0,0-0.1,0c0,0,0,0,0,0c0,0-0.1-0.1-0.1,0c0,0,0,0-0.1,0c0,0,0,0-0.1,0l0,0c0-0.1,0-0.1,0-0.1c0-0.1,0-0.1,0-0.2
		c0-0.1,0-0.1,0-0.2c0-0.1,0-0.2,0-0.2c0,0,0,0,0-0.1c0-0.1,0-0.1,0-0.1c0-0.1,0-0.1,0-0.2c0-0.1,0-0.1,0-0.1c0-0.2-0.1-0.4-0.1-0.6
		c0-0.1,0-0.1,0-0.2c0,0,0-0.1,0-0.1c0,0,0-0.1,0-0.1c0-0.1,0-0.1,0-0.1c0-0.1,0-0.1,0-0.2c0-0.1,0-0.1,0-0.2c0-0.2,0-0.4-0.1-0.5
		c0-0.1,0-0.1,0-0.2c0-0.1,0-0.1,0-0.2c0-0.1,0-0.1,0-0.2c0,0,0-0.1,0-0.1c0-0.1,0-0.2-0.2-0.2c-0.1,0-0.1,0.1-0.1,0.2
		c-0.1,0-0.1,0.1,0,0.1c0,0,0,0,0,0c0,0,0,0.1,0,0.1c0,0-0.1,0.1,0,0.1c0,0.1,0,0.2,0,0.3c0,0,0,0.1,0,0.1c0,0.1,0,0.1,0,0.2
		c0,0.1-0.1,0.1,0,0.2c0,0.1,0,0.2,0,0.2c-0.1,0-0.1,0.1,0,0.1c0,0.1,0,0.2,0,0.3c-0.1,0-0.1,0.1,0,0.1c0,0.1,0,0.1,0,0.2
		c0,0-0.1,0.1,0,0.1c0,0.1,0,0.2,0,0.3c0,0-0.1,0.1,0,0.1c0,0.1,0,0.1,0,0.2c0,0.1-0.1,0.1,0,0.2c0,0.2-0.1,0.3-0.1,0.5
		c-0.1,0-0.1,0.1,0,0.2c-0.3,0.1-0.6,0.2-0.8,0.4c-0.2,0.1-0.4,0.2-0.6,0l0,0l0,0c-0.1,0-0.2,0-0.3-0.1c-0.1,0-0.1,0-0.2-0.1
		c-0.2-0.1-0.2-0.1-0.2,0.2c0,0.1,0,0.1,0,0.1c0,0.2,0.1,0.3,0.1,0.5c0,0,0,0,0,0.1c0,0.1,0,0.2,0,0.3c-0.2,0.3-0.4,0.7-0.4,1
		c0,0.1-0.1,0.2-0.2,0.2c-0.1,0-0.1,0-0.2,0c-0.1,0-0.1,0-0.2,0c-0.1,0-0.1,0-0.2,0c-0.1,0-0.1,0-0.2,0c0,0-0.1,0-0.1,0
		c-0.1,0-0.1,0-0.2,0c-0.1,0-0.1,0-0.1,0c-0.1,0-0.2,0-0.3,0c-0.1,0-0.1,0-0.1,0c-0.1,0-0.1,0-0.2,0c-0.1,0-0.1,0-0.1,0
		c-0.1,0-0.1,0-0.2,0c-0.1,0-0.1,0-0.2,0c-0.1,0-0.1,0-0.2,0c-0.1,0-0.1,0-0.2,0c-0.2,0-0.4,0-0.6,0.1c-0.1,0-0.1,0-0.1,0
		c0,0-0.1,0-0.1,0c0,0-0.1,0-0.1,0c-0.1,0-0.3,0-0.4,0.1c-0.1,0-0.1,0.1,0,0.1c0,0,0,0,0.1,0.1c0.1,0.1,0.1,0.1,0.2,0c0,0,0,0,0.1,0
		c0.1,0,0.2,0,0.2,0c0.1,0.1,0.1,0.1,0.2,0c0.1,0,0.1,0,0.2,0c0,0,0.1,0.1,0.1,0l0,0c0,0,0,0,0,0c0.1,0,0.1,0,0.2,0
		c0.1,0.1,0.1,0.1,0.2,0c0.1,0,0.1,0,0.2,0c0,0,0.1,0,0.1,0c0,0,0,0,0.1,0c0.1,0,0.2,0,0.3,0c0,0,0.1,0,0.1,0c0.1,0,0.2,0,0.3,0
		c0,0,0.1,0.1,0.1,0c0,0,0,0,0.1,0c0.1,0,0.2,0,0.3,0c0,0,0.1,0,0.1,0c0,0,0,0,0.1,0c0.1,0,0.1,0,0.2,0c0.1,0.1,0.1,0.1,0.2,0l0,0
		l0,0c0,0.2-0.1,0.3,0.1,0.4c0.2,0.1,0.3-0.1,0.4-0.1c0,0,0,0,0.1,0c0.1,0.1,0,0.1,0,0.2c-0.2,0.3-0.4,0.7-0.5,1c0,0-0.1,0.1,0,0.1
		l0,0C11.7,19.7,11.7,19.6,11.8,19.6z M7.2,17.1c0-0.1,0.1-0.3,0-0.4c0,0-0.1-0.1-0.1,0c0,0-0.1,0,0,0.1c0,0.3-0.1,0.5-0.2,0.8
		c0,0.1,0,0.2-0.1,0.2c-0.1,0-0.1-0.1-0.1-0.2c-0.2-0.2-0.3-0.5-0.5-0.7c0,0-0.1,0-0.1,0c0,0,0,0,0,0.1c0.1,0.4,0.3,0.7,0.5,1
		c0,0.1,0.1,0.1,0.2,0.1c0,0,0.1,0,0.1,0C7,17.7,7,17.7,7.2,17.9c0,0,0,0,0.1,0c0.3-0.2,0.4-0.5,0.4-0.8c0.1-0.1,0.1-0.2,0-0.3
		c0-0.1-0.1-0.1-0.1,0c0,0-0.1,0.1,0,0.1c0,0.2-0.1,0.4-0.2,0.6c0,0-0.1,0-0.1,0c0-0.1,0-0.2,0-0.2C7.2,17.2,7.2,17.1,7.2,17.1z
		 M15.5,27.3c0-0.2,0-0.3,0-0.5c0,0,0-0.1,0-0.1c0,0,0-0.2-0.1-0.1c-0.1,0.1-0.1,0.2,0,0.2c0,0.2,0,0.4,0.1,0.6c0,0.1,0,0.1,0.1,0.1
		c0.1,0,0.1-0.1,0.1-0.2C15.6,27.5,15.6,27.4,15.5,27.3C15.6,27.4,15.6,27.3,15.5,27.3z M9.2,11c0-0.1,0-0.1-0.1-0.2
		c-0.3-0.2-0.5-0.4-0.8-0.5c-0.1,0-0.1-0.1-0.2,0c-0.1,0.1,0,0.1,0.1,0.2c0.2,0.2,0.5,0.4,0.8,0.6C9.1,11.1,9.1,11.1,9.2,11z
		 M15.7,25.4c-0.1-0.2-0.2-0.3-0.4-0.3c0-0.1-0.1-0.1-0.1,0c-0.1,0-0.1,0-0.2,0c0,0-0.1,0-0.1,0c-0.1,0-0.3,0.1-0.3,0.3
		c0,0.2,0.1,0.2,0.2,0.3c0.1,0.1,0.2,0.1,0.3,0.2c0.2,0.1,0.2,0.2,0,0.3c-0.1,0-0.3,0-0.4,0c0,0,0,0-0.1,0c-0.1,0-0.4-0.1-0.4,0
		c0,0.2,0.2,0.2,0.4,0.3c0,0,0.1,0,0.1,0c0.1,0.1,0.2,0.1,0.4,0c0.2,0,0.3-0.1,0.4-0.2c0,0,0,0,0-0.1c0,0,0-0.1,0-0.1
		c0,0,0-0.1,0-0.1c-0.1-0.2-0.3-0.3-0.5-0.4c-0.2-0.1-0.2-0.2,0-0.3c0.1,0,0.1,0,0.1,0c0,0,0.1,0,0.1,0c0,0,0,0,0.1,0
		c0.1,0,0.1,0.3,0.3,0.2C15.8,25.5,15.8,25.5,15.7,25.4z M8.4,24.3C8.4,24.3,8.5,24.3,8.4,24.3c0.3-0.3,0.5-0.5,0.7-0.8
		c0,0,0-0.1,0-0.1c0,0-0.1,0-0.1,0c-0.3,0.2-0.5,0.5-0.6,0.8C8.3,24.3,8.3,24.3,8.4,24.3z"/>
	<path class="st13" d="M17.1,27.7c0-0.2,0.3-0.2,0.4-0.3c1.3-0.6,2.4-1.4,3.4-2.4c0.3-0.3,0.6-0.7,0.8-1c0.1,0.1,0.2,0.2,0.4,0.3
		c0.1,0,0.1,0.1,0.2,0.1c0.1-0.1,0-0.2,0-0.2c-0.1-0.1-0.2-0.3-0.3-0.4c0.2-0.3,0.4-0.6,0.6-0.9c0.4-0.6,0.6-1.2,0.9-1.8
		c0.1-0.3,0.1-0.5,0.1-0.8c0-0.5,0.1-0.9,0.1-1.4c0,0,0,0,0.1-0.1c0.2,0,0.5-0.1,0.7-0.1c0.1,0,0.1,0,0.1,0c0.1,0,0.2-0.1,0.1-0.2
		c-0.1-0.1-0.1,0-0.1,0c-0.1,0-0.3,0.1-0.4,0.1c0,0-0.1,0-0.1,0c-0.4,0.1-0.4,0.1-0.3-0.3c0,0,0,0,0-0.1c0-0.1,0-0.2,0.1-0.3
		c0.1,0,0.3,0,0.4,0c0.1,0,0.2,0,0.4,0c0.2,0,0.2-0.1,0.1-0.2c0,0,0,0-0.1,0c-0.1,0-0.2,0-0.3,0c-0.1,0-0.1,0-0.1,0
		c-0.1,0-0.1,0-0.2,0c0,0,0,0,0,0c0-0.2,0-0.3,0.1-0.5c0,0,0,0,0-0.1c0-0.2,0-0.2,0.2-0.2c0.2,0,0.4,0,0.6,0c0,0,0.1,0,0.1,0
		c0,0,0,0,0,0c-0.1-0.1-0.2,0-0.3-0.1c0,0,0,0-0.1,0c0,0-0.1,0-0.1,0c-0.1,0-0.2,0-0.3,0c0,0-0.1,0-0.1,0c-0.1,0-0.1,0.1-0.2,0.2
		c-0.2-0.1-0.1-0.3-0.1-0.4c-0.2-1.2-0.5-2.3-1.1-3.4c-0.7-1.3-1.7-2.3-2.9-3.1c-1-0.6-2.1-0.9-3.1-1.3c-0.1,0-0.2,0-0.3,0
		c0-0.1,0-0.1,0-0.2c0,0,0,0,0-0.1c0-0.1,0-0.2,0-0.2C16,8.1,16,8,15.9,8c-0.1,0-0.1,0-0.1,0.1c0,0,0,0,0,0.1c0,0.1,0,0.2-0.1,0.3
		c-0.1,0-0.3,0.1-0.4-0.2c0.1-0.3,0-0.6,0-1c0,0,0-0.1,0-0.1c-0.1-0.1-0.1,0-0.1,0.1c0,0,0,0,0,0.1c0,0.2,0,0.5,0,0.7
		c0,0-0.1,0.1-0.1,0.1c0,0,0-0.1-0.1-0.1C15,8,14.9,8,14.9,8.1c0,0.1,0,0.2-0.1,0.2c-0.4-0.1-0.8-0.1-1.2-0.2c-0.3-0.1-0.7,0-1-0.1
		c-0.2-0.1-0.3-0.1-0.4-0.3c0-0.1-0.1-0.1-0.1-0.2c0.2-0.1,0.5-0.1,0.7-0.2c0.1,0,0.1,0,0.1,0c0.2,0,0.5-0.1,0.7-0.1
		c0,0,0.1,0,0.1,0c0.1,0,0.2,0,0.3,0c0,0,0.1,0,0.1,0c0.1,0,0.2,0,0.3,0c0,0,0,0,0.1,0c0.1,0,0.1,0,0.2,0c0.2,0,0.3,0,0.5,0
		c0.1,0,0.1,0,0.2,0c0.1,0,0.1,0,0.2,0c0,0,0.1,0,0.1,0c0.1,0.1,0.2,0,0.4,0c0.2,0,0.3,0,0.5,0c0,0,0,0,0.1,0c0.1,0,0.3,0,0.4,0.1
		c0,0,0,0,0.1,0c0.1,0,0.1,0,0.2,0c0,0,0.1,0.1,0.1,0c0.1,0,0.1,0,0.2,0c0,0,0.1,0.1,0.1,0c2.2,0.5,3.9,1.6,5.4,3.3
		c0.7,0.8,1.3,1.8,1.7,2.9c0.2,0.5,0.5,0.9,0.5,1.4c0,0.1,0,0.1,0,0.1c0,0,0,0.1,0,0.1c0,0,0,0.1,0,0.1c0,0.1,0,0.1,0,0.2
		c0,0,0,0.1,0,0.1c0,0.2,0.1,0.4,0.1,0.6c0,0.1,0,0.1,0,0.2c0,0.1,0,0.2,0,0.3c0,0.1,0,0.2,0,0.2c0,0.3,0,0.6,0,0.9
		c0,0.1,0,0.2-0.2,0.2c0-0.1,0-0.1,0-0.2c-0.1,0-0.1,0-0.2,0c0-0.1-0.1-0.1-0.1,0c0,0-0.1,0-0.1,0c-0.1,0-0.4,0-0.3,0.2
		c0,0.2,0.2,0.1,0.4,0.1c0.1,0,0.1,0,0.2,0c0.1,0,0.1,0,0.2,0c0.1-0.1,0.2,0,0.2,0.1c0,0,0,0,0,0.1c0,0.1,0,0.3-0.1,0.4
		c0,0,0,0,0,0.1c0,0.1,0,0.3,0,0.4c0,0-0.1,0.1,0,0.1c0,0.2-0.1,0.4-0.1,0.6c0,0,0,0,0,0.1c0,0.1-0.1,0.3-0.1,0.4c0,0-0.1,0.1,0,0.1
		c-0.4,1.9-1.5,3.4-2.9,4.8c-1.1,1.1-2.4,1.9-3.8,2.4c0,0-0.1,0-0.1,0c0,0-0.1,0-0.1,0c0,0-0.1,0-0.1,0c0,0-0.1,0-0.1,0
		c-0.1,0-0.1,0-0.1,0c0,0-0.1,0-0.1,0c-0.1,0-0.1,0-0.1,0c0,0-0.1,0-0.1,0c-0.1,0-0.1,0-0.1,0c-0.1,0-0.1,0-0.2,0c0,0-0.1,0-0.1,0
		C17.2,27.7,17.2,27.7,17.1,27.7z M22.5,10.3c-0.1-0.1-0.1-0.1-0.2-0.1c-0.2,0.1-0.4,0.4-0.7,0.5c0,0,0,0.1,0,0.1c0,0.1,0.1,0,0.2,0
		C22,10.8,22.2,10.6,22.5,10.3C22.5,10.4,22.5,10.4,22.5,10.3z"/>
	<path class="st7" d="M25.1,17.8c-0.1,0-0.3,0.1-0.4-0.1c0-0.1,0.2-0.1,0.3-0.2c0,0,0.1,0,0.1,0c0,0,0.1,0,0.1,0c0.1,0,0.1,0,0.2,0
		c0,0,0,0.1,0,0.1l0,0c-0.1,0-0.1,0-0.2,0C25.2,17.8,25.2,17.8,25.1,17.8z"/>
	<path class="st2" d="M15.3,27.8c0.2,0,0.4,0,0.6,0c0,0,0,0,0,0C15.7,27.8,15.5,27.8,15.3,27.8C15.3,27.8,15.3,27.8,15.3,27.8z"/>
	<path class="st5" d="M5.3,17.3c0.1,0,0.1,0,0.2,0c0,0,0,0,0,0c-0.1,0-0.2,0-0.1,0.1c0,0,0,0-0.1,0C5.4,17.4,5.3,17.3,5.3,17.3z"/>
	<path class="st2" d="M15.9,6.9c-0.1,0-0.3,0-0.4,0C15.6,6.9,15.8,6.9,15.9,6.9z"/>
	<path class="st5" d="M5.3,16.4c0,0.1,0,0.2,0,0.3C5.3,16.6,5.3,16.5,5.3,16.4C5.3,16.4,5.3,16.4,5.3,16.4z"/>
	<path class="st5" d="M25.6,16.7c-0.1-0.1-0.1-0.2,0-0.2C25.6,16.5,25.6,16.6,25.6,16.7z"/>
	<path class="st4" d="M5.3,18.1c0.1,0.1,0.1,0.2,0,0.2c0,0,0,0,0,0C5.3,18.3,5.3,18.2,5.3,18.1z"/>
	<path class="st3" d="M15.3,27.8C15.3,27.8,15.3,27.8,15.3,27.8c-0.1,0-0.1,0.1-0.2,0C15.2,27.8,15.2,27.8,15.3,27.8z"/>
	<path class="st4" d="M14.3,27.7c0.1,0,0.1,0,0.2,0c0,0,0,0,0,0C14.4,27.8,14.3,27.8,14.3,27.7C14.3,27.8,14.3,27.8,14.3,27.7z"/>
	<path class="st2" d="M5.4,18.7c0,0.1,0,0.1,0,0.2C5.3,18.9,5.3,18.8,5.4,18.7C5.4,18.7,5.4,18.7,5.4,18.7z"/>
	<path class="st3" d="M15.2,7c-0.1,0-0.1,0-0.2,0C15.1,6.9,15.2,6.9,15.2,7C15.2,6.9,15.2,6.9,15.2,7z"/>
	<path class="st2" d="M15.2,7C15.2,6.9,15.2,6.9,15.2,7c0.1,0,0.1,0,0.2,0C15.4,7,15.3,7,15.2,7z"/>
	<path class="st4" d="M14.6,7C14.5,7,14.5,7,14.4,7c0,0,0,0,0,0C14.5,7,14.5,7,14.6,7z"/>
	<path class="st4" d="M5.4,15.5c0,0.1,0,0.1,0,0.2C5.4,15.6,5.4,15.5,5.4,15.5z"/>
	<path class="st4" d="M5.4,15.9c0,0.1,0,0.1,0,0.2C5.3,16,5.3,15.9,5.4,15.9z"/>
	<path class="st2" d="M25.6,16.1c-0.1-0.1-0.1-0.1,0-0.2C25.6,15.9,25.6,16,25.6,16.1z"/>
	<path class="st14" d="M5.3,16.4C5.3,16.4,5.3,16.4,5.3,16.4c-0.1,0-0.1-0.1,0-0.2C5.3,16.3,5.3,16.4,5.3,16.4z"/>
	<path class="st1" d="M15.9,27.8C15.9,27.8,15.9,27.8,15.9,27.8c0,0,0.1,0,0.1,0C16,27.9,15.9,27.9,15.9,27.8z"/>
	<path class="st5" d="M16.5,27.8c0-0.1,0.1-0.1,0.1,0C16.6,27.8,16.6,27.8,16.5,27.8z"/>
	<path class="st2" d="M12.9,7.3c0,0-0.1,0.1-0.1,0C12.8,7.3,12.8,7.3,12.9,7.3z"/>
	<path class="st4" d="M17.7,7.2c-0.1,0-0.1,0-0.1,0C17.6,7.1,17.6,7.1,17.7,7.2z"/>
	<path class="st6" d="M14.5,27.8C14.5,27.8,14.5,27.8,14.5,27.8c0-0.1,0.1,0,0.1,0C14.5,27.8,14.5,27.8,14.5,27.8z"/>
	<path class="st1" d="M14.3,27.7C14.3,27.8,14.3,27.8,14.3,27.7c0,0.1-0.1,0.1-0.1,0C14.2,27.8,14.2,27.7,14.3,27.7z"/>
	<path class="st2" d="M13.8,27.7c0.1,0,0.1,0,0.1,0C13.9,27.7,13.8,27.7,13.8,27.7z"/>
	<path class="st2" d="M17.3,7.1c-0.1,0-0.1,0-0.1,0C17.2,7.1,17.3,7.1,17.3,7.1z"/>
	<path class="st6" d="M13.5,27.6c0.1,0,0.1,0,0.1,0C13.6,27.7,13.5,27.7,13.5,27.6z"/>
	<path class="st2" d="M17.6,27.6c0,0,0.1-0.1,0.1,0C17.7,27.6,17.6,27.6,17.6,27.6z"/>
	<path class="st2" d="M13.2,27.6c0.1,0,0.1,0,0.1,0C13.3,27.6,13.2,27.6,13.2,27.6z"/>
	<path class="st2" d="M17.8,27.5c0,0,0.1-0.1,0.1,0C17.9,27.6,17.9,27.6,17.8,27.5z"/>
	<path class="st2" d="M13,27.5c0.1,0,0.1,0,0.1,0C13,27.6,13,27.6,13,27.5z"/>
	<path class="st2" d="M18.1,27.5c0,0,0.1-0.1,0.1,0C18.2,27.5,18.1,27.5,18.1,27.5z"/>
	<path class="st2" d="M12.3,27.3c0.1,0,0.1,0,0.1,0C12.4,27.4,12.3,27.4,12.3,27.3z"/>
	<path class="st5" d="M5.6,14.9c0,0.1,0,0.1,0,0.1C5.5,15,5.5,15,5.6,14.9z"/>
	<path class="st13" d="M5.3,17.4C5.3,17.4,5.3,17.4,5.3,17.4L5.3,17.4c0.1,0,0.1,0,0.1,0C5.4,17.5,5.3,17.5,5.3,17.4
		C5.3,17.5,5.3,17.5,5.3,17.4z"/>
	<path class="st2" d="M25.3,14.8c-0.1,0-0.1-0.1,0-0.1C25.3,14.7,25.3,14.8,25.3,14.8z"/>
	<path class="st6" d="M5.5,19.7c0.1,0,0.1,0.1,0,0.1C5.5,19.8,5.5,19.7,5.5,19.7z"/>
	<path class="st4" d="M25.5,17.8c0,0,0-0.1,0-0.1C25.5,17.7,25.5,17.7,25.5,17.8L25.5,17.8z"/>
	<path class="st3" d="M5.7,14.2c0,0,0,0.1,0,0.1C5.7,14.3,5.7,14.3,5.7,14.2z"/>
	<path class="st4" d="M5.8,14.1c0,0.1,0,0.1,0,0.1C5.7,14.1,5.8,14.1,5.8,14.1z"/>
	<path class="st4" d="M5.8,20.6c0,0,0.1,0.1,0,0.1C5.8,20.7,5.7,20.6,5.8,20.6z"/>
	<path class="st1" d="M5.3,18.4C5.3,18.4,5.3,18.4,5.3,18.4c0,0.1,0,0.1,0,0.1C5.3,18.5,5.3,18.4,5.3,18.4z"/>
	<path class="st3" d="M5.7,20.4c0,0,0,0.1,0,0.1C5.7,20.5,5.7,20.5,5.7,20.4z"/>
	<path class="st2" d="M25.5,18.9c0-0.1,0-0.1,0-0.1C25.5,18.8,25.5,18.9,25.5,18.9z"/>
	<path class="st3" d="M5.6,20.2c0,0,0.1,0.1,0,0.1C5.6,20.3,5.6,20.3,5.6,20.2z"/>
	<path class="st3" d="M25.2,20.2c0-0.1,0-0.1,0-0.1C25.3,20.1,25.3,20.1,25.2,20.2z"/>
	<path class="st4" d="M5.4,19.2c0,0,0.1,0.1,0,0.1C5.4,19.2,5.4,19.2,5.4,19.2z"/>
	<path class="st4" d="M5.9,13.9c0,0.1,0,0.1,0,0.1C5.8,14,5.8,13.9,5.9,13.9z"/>
	<path class="st6" d="M5.4,18.7C5.4,18.7,5.4,18.7,5.4,18.7C5.3,18.7,5.3,18.7,5.4,18.7C5.4,18.7,5.4,18.7,5.4,18.7z"/>
	<path class="st2" d="M25.4,19.6C25.3,19.6,25.3,19.6,25.4,19.6C25.4,19.6,25.4,19.6,25.4,19.6z"/>
	<path class="st4" d="M25.5,18.4C25.5,18.4,25.5,18.3,25.5,18.4C25.6,18.4,25.6,18.4,25.5,18.4z"/>
	<path class="st1" d="M25.6,17.9C25.6,17.9,25.6,17.9,25.6,17.9C25.6,17.9,25.6,17.9,25.6,17.9z"/>
	<path class="st4" d="M5.9,13.8C5.9,13.8,5.9,13.8,5.9,13.8C5.9,13.8,5.9,13.8,5.9,13.8z"/>
	<path class="st14" d="M14.4,7C14.4,7,14.4,7,14.4,7C14.4,7,14.3,7,14.4,7C14.3,7,14.4,7,14.4,7z"/>
	<path class="st3" d="M18.5,27.4C18.5,27.4,18.5,27.3,18.5,27.4C18.5,27.4,18.5,27.4,18.5,27.4z"/>
	<path class="st2" d="M18.3,27.4C18.3,27.4,18.3,27.4,18.3,27.4C18.3,27.4,18.3,27.4,18.3,27.4z"/>
	<path class="st1" d="M16.5,7C16.4,7,16.4,7,16.5,7C16.4,7,16.4,7,16.5,7z"/>
	<path class="st5" d="M14,7C14,7.1,13.9,7.1,14,7C13.9,7,13.9,7,14,7z"/>
	<path class="st5" d="M25.4,15C25.3,15,25.3,15,25.4,15C25.4,15,25.4,15,25.4,15z"/>
	<path class="st6" d="M16.9,7.1C16.9,7.1,16.9,7.1,16.9,7.1C16.9,7,16.9,7,16.9,7.1z"/>
	<path class="st2" d="M13.6,7.1C13.6,7.1,13.6,7.1,13.6,7.1C13.6,7.1,13.6,7.1,13.6,7.1z"/>
	<path class="st2" d="M17.3,27.7C17.4,27.6,17.4,27.6,17.3,27.7C17.4,27.7,17.4,27.7,17.3,27.7z"/>
	<path class="st4" d="M25.4,15.3C25.4,15.3,25.4,15.3,25.4,15.3C25.4,15.3,25.5,15.3,25.4,15.3z"/>
	<path class="st7" d="M16.2,4.3c0-0.1,0-0.2,0-0.4C16.3,4.1,16.3,4.2,16.2,4.3z"/>
	<path class="st7" d="M15.6,3.4c-0.1,0-0.1,0-0.2,0C15.5,3.3,15.6,3.3,15.6,3.4z"/>
	<path class="st0" d="M11.7,19.4c0.2-0.3,0.3-0.7,0.5-1c0-0.1,0.1-0.1,0-0.2c0-0.2-0.1-0.2-0.2-0.3c0,0,0,0-0.1,0c0,0,0,0-0.1,0
		c-0.1,0-0.2,0-0.2,0l0,0l0,0c-0.1,0-0.1-0.1-0.2,0c-0.1,0-0.1,0-0.2,0c0,0,0,0-0.1,0c0,0-0.1,0-0.1,0c-0.1,0-0.2,0-0.3,0
		c0,0,0,0-0.1,0c0,0-0.1,0-0.1,0c-0.1,0-0.2,0-0.3,0c0,0-0.1,0-0.1,0c-0.1,0-0.2,0-0.3,0c0,0,0,0-0.1,0c0,0-0.1,0-0.1,0
		c-0.1,0-0.1,0-0.2,0c-0.1-0.1-0.1,0-0.2,0c-0.1,0-0.1,0-0.2,0c0,0,0,0-0.1,0c0,0-0.1,0-0.1,0c-0.1,0-0.1,0-0.2,0
		c-0.1-0.1-0.1-0.1-0.2,0c-0.1,0-0.2,0-0.2,0c0,0,0,0-0.1,0c-0.1,0-0.1,0-0.2,0c0,0,0,0-0.1-0.1c0,0,0-0.1,0-0.1
		c0.1-0.1,0.3,0,0.4-0.1c0,0,0.1,0,0.1,0c0,0,0.1,0,0.1,0c0.1,0,0.1,0,0.1,0c0.2,0,0.4,0,0.6-0.1c0.1,0,0.1,0,0.2,0
		c0.1,0,0.1,0,0.2,0c0.1,0,0.1,0,0.2,0c0.1,0,0.1,0,0.2,0c0.1,0,0.1,0,0.1,0c0.1,0,0.1,0,0.2,0c0.1,0,0.1,0,0.1,0c0.1,0,0.2,0,0.3,0
		c0.1,0,0.1,0,0.1,0c0.1,0,0.1,0,0.2,0c0,0,0.1,0,0.1,0c0.1,0,0.1,0,0.2,0c0.1,0,0.1,0,0.2,0c0.1,0,0.1,0,0.2,0c0.1,0,0.1,0,0.2,0
		c0.2,0,0.2-0.1,0.2-0.2c0.1-0.4,0.2-0.7,0.4-1c0.1-0.1,0-0.2,0-0.3c0,0,0-0.1,0-0.1c0-0.2-0.1-0.3-0.1-0.5c0-0.1,0-0.1,0-0.1
		c0-0.3,0-0.3,0.2-0.2c0,0,0,0.1,0,0.1c-0.1,0.3,0,0.5,0.1,0.8c0,0,0,0,0,0c0,0,0,0,0,0c0.1-0.1,0.2-0.3,0.3-0.3
		c0.2-0.2,0.2-0.2,0-0.3c0,0,0,0,0,0c0,0,0,0,0.1-0.1c0,0,0,0,0,0c0.2,0.1,0.4,0.1,0.6,0c0.2-0.2,0.5-0.2,0.8-0.4
		c0.1,0,0.1-0.1,0-0.2c0-0.2,0.1-0.3,0.1-0.5c0.1-0.1,0.1-0.1,0-0.2c0-0.1,0-0.1,0-0.2c0,0,0-0.1,0-0.1c0-0.1,0-0.2,0-0.3
		c0,0,0-0.1,0-0.1c0-0.1,0-0.1,0-0.2c0,0,0.1-0.1,0-0.1c0-0.1,0-0.2,0-0.3c0,0,0-0.1,0-0.1c0-0.1,0-0.2,0-0.2c0.1-0.1,0.1-0.1,0-0.2
		c0-0.1,0-0.1,0-0.2c0,0,0-0.1,0-0.1c0-0.1,0-0.2,0-0.3c0,0,0-0.1,0-0.1c0,0,0-0.1,0-0.1c0,0,0,0,0-0.1c0,0,0-0.1,0-0.1
		c0-0.1,0-0.2,0.1-0.2c0.2,0,0.1,0.1,0.2,0.2c0,0,0,0,0,0.1c0,0.1,0,0.1,0,0.2c0,0.1,0,0.1,0,0.2c0,0.1,0,0.1,0,0.2
		c0,0.2,0,0.4,0.1,0.5c0,0.1,0,0.1,0,0.2c0,0.1,0,0.1,0,0.2c0,0,0,0.1,0,0.1c0,0.1,0,0.1,0,0.1c0,0,0,0.1,0,0.1c0,0.1,0,0.1,0,0.2
		c0,0.2,0.1,0.4,0.1,0.6c0,0.1,0,0.1,0,0.1c0,0.1,0,0.1,0,0.2c0,0,0,0.1,0,0.1c0,0,0,0.1,0,0.1c0,0.1,0,0.2,0,0.2c0,0.1,0,0.1,0,0.2
		c0,0.1,0,0.1,0,0.2c0,0.1,0,0.1,0,0.1c0,0,0,0,0,0c0,0,0,0.1,0.1,0c0,0,0,0,0.1,0c0,0,0.1,0.1,0.1,0c0,0,0,0,0,0c0,0,0,0.1,0.1,0
		c0.1,0.1,0.2-0.1,0.2-0.1c0.8-1.1,1.6-2.3,2.4-3.4c0.1-0.1,0.1-0.2,0.3-0.2c0,0.1,0,0.1,0,0.2c-0.6,1.3-1.3,2.5-1.9,3.8
		c-0.1,0.2-0.1,0.4,0.1,0.5c0,0.1,0.1,0,0.1,0c0.1,0,0.3-0.1,0.4-0.1c0.1,0,0.1,0,0.1,0c0.1,0,0.1,0,0.2,0c0.1,0,0.1,0,0.1,0.1
		c0,0.1,0,0.1-0.1,0.2c-0.3,0.8-0.3,0.8,0,1.5c0,0.1,0.1,0.1,0.2,0.1c0.2,0,0.4,0,0.6,0.1c0.1,0.1,0.1,0.1,0.2,0c0.1,0,0.2,0,0.3,0
		c0,0,0.1,0,0.1,0c0.2,0,0.4,0.1,0.6,0.1c0.1,0.1,0.1,0.1,0.2,0c0.1,0,0.1,0,0.2,0c0,0,0.1,0,0.1,0c0.1,0,0.2,0,0.2,0
		c0.1,0,0.1,0.1,0.2,0c0.4,0.1,0.8,0.1,1.1,0.2c0,0,0,0.1,0,0.1c0,0.1-0.1,0-0.2,0.1c0,0-0.1,0-0.1,0c-0.1,0-0.2,0-0.3,0
		c-0.1,0-0.1,0-0.1,0c-0.1,0-0.1,0-0.2,0c0,0-0.1,0-0.1,0c0,0-0.1,0-0.1,0c-0.1,0-0.2,0-0.2,0c-0.1,0-0.1,0-0.1,0
		c-0.1,0-0.1,0-0.2,0c0,0-0.1,0-0.1,0c-0.2,0-0.4,0.1-0.6,0.1c0,0-0.1,0-0.1,0c-0.1,0-0.2,0-0.3,0c0,0-0.1,0-0.1,0
		c-0.4,0.1-0.8,0.1-1.3,0.2c0,0-0.1,0-0.1,0c-0.1,0-0.2,0.1-0.2,0.2c0,0-0.1,0.1,0,0.1c-0.1,0.4-0.3,0.7-0.6,1
		c-0.1,0.1-0.2,0.2-0.1,0.4c0,0,0,0.1,0,0.1c0,0.2,0,0.4,0.1,0.6c0,0.1,0,0.2,0,0.3c-0.2,0.1-0.3-0.1-0.5-0.2c0,0,0-0.1,0-0.1
		c0,0,0.1,0,0.1,0.1c0.2,0.1,0.2,0.1,0.2-0.1c0-0.2,0-0.4-0.1-0.6c0-0.1-0.1-0.1-0.1,0c-0.2,0.2-0.4,0.3-0.6,0.5c0,0,0,0-0.1,0.1
		c0,0,0,0-0.1,0c0,0,0,0-0.1,0c-0.2,0.1-0.4,0.1-0.4,0.4c0,0-0.1,0.1,0,0.1c0,0.2-0.1,0.4-0.1,0.6c0,0,0,0,0,0.1c0,0.1,0,0.1,0,0.2
		c0,0,0,0.1,0,0.1c0,0.1,0,0.2,0,0.3c0,0,0,0,0,0.1c0,0.2-0.1,0.4-0.1,0.6c0,0-0.1,0.1,0,0.1c0,0.1,0,0.2,0,0.3
		c-0.1,0-0.1,0.1,0,0.1c0,0.1,0,0.1,0,0.2c0,0,0,0,0,0.1c0,0.2,0,0.4-0.1,0.6c0,0,0,0.1,0,0.1c0,0,0,0.1,0,0.1
		c0,0.1-0.1,0.2-0.2,0.1c0,0,0-0.1,0-0.1c0-0.1,0-0.2,0-0.2c0,0,0-0.1,0-0.1c0-0.1,0-0.1,0-0.2c0,0,0-0.1,0-0.1c0,0,0-0.1,0-0.1
		c0-0.1,0-0.2,0-0.3c0,0,0-0.1,0-0.1c0-0.1,0-0.1,0-0.2c0,0,0,0,0-0.1c0-0.1,0-0.1,0-0.1C15.1,22.6,15,22.3,15,22c0,0,0-0.1,0-0.1
		c0-0.1,0-0.2,0-0.3c0-0.1,0-0.1,0-0.1c0-0.1,0-0.1,0-0.2c0-0.1,0-0.1,0-0.1c0-0.1,0-0.2,0-0.3c0-0.1,0-0.1,0-0.1c0,0,0-0.1,0-0.1
		c0,0,0-0.1,0-0.1c0,0-0.1,0-0.1,0c0,0-0.1-0.1-0.1,0c0,0-0.1,0-0.1,0c0,0,0,0-0.1,0c-0.5-0.2-0.5-0.2-0.8,0.2
		c-0.8,1.1-1.6,2.1-2.4,3.1c-0.1,0.1-0.1,0.2-0.2,0.1c-0.1-0.1,0-0.2,0-0.3c0.7-1.2,1.4-2.4,2-3.6c0.1-0.1,0.3-0.3,0-0.4
		c-0.1-0.1-0.2-0.1-0.2,0c-0.1,0-0.2,0-0.3,0c-0.1,0-0.1,0-0.2,0c-0.1,0-0.2,0-0.3,0c0,0,0,0-0.1,0c0,0-0.1,0-0.1,0c0,0,0,0,0,0
		C11.7,19.5,11.7,19.5,11.7,19.4z M16.6,14.5C16.5,14.5,16.5,14.6,16.6,14.5c-0.5,0.5-0.8,1.1-1.1,1.6c-0.2,0.2-0.2,0.2,0.2,0.3
		c0.1,0.1,0.2,0.1,0.2,0.2c0.1,0.2,0.1,0.1,0.2,0c0.2-0.3,0.3-0.6,0.5-0.9c0.3-0.7,0.7-1.4,1-2.1c0.2-0.4,0.4-0.7,0.6-1.1
		c0.1-0.1,0.2-0.2,0.1-0.4c0,0,0,0,0.1,0c0,0,0.1-0.1,0.1-0.1c0,0,0,0,0,0c0,0,0.1-0.1,0-0.1c0,0-0.1,0.1-0.1,0.1c0,0,0,0,0,0.1
		c0,0-0.1,0-0.1,0.1c0,0-0.1,0-0.1,0.1c-0.4,0.4-0.7,0.9-1,1.4c0,0,0,0-0.1,0.1c0,0.1-0.1,0.1-0.1,0.2c0,0,0,0,0,0.1
		c0,0-0.1,0.1-0.1,0.1C16.8,14.1,16.7,14.2,16.6,14.5C16.6,14.5,16.6,14.5,16.6,14.5L16.6,14.5z M16,20.7C16,20.7,16,20.6,16,20.7
		c0-0.1,0-0.2,0-0.3c0,0,0,0-0.1,0c0,0-0.1,0-0.1,0c0,0,0,0-0.1,0c-0.3,0-0.5,0-0.8,0c-0.1,0-0.1,0.1,0,0.1c0,0.1,0,0.2,0,0.2
		c0,0.1,0,0.1,0,0.2c0,0,0,0.1,0,0.1c0,0.1,0,0.1,0,0.1c0,0.1,0,0.2,0,0.3c0,0.1,0,0.1,0,0.1c0,0.1,0,0.1,0,0.2c0,0,0,0.1,0,0.1
		c0,0,0,0.1,0,0.1c0,0.1,0,0.2,0,0.2c0,0,0,0.1,0,0.1c0,0,0,0.1,0,0.1c0,0,0,0,0,0.1c0,0,0,0.1,0,0.1c0,0,0,0.1,0,0.1
		c0,0.1,0,0.2,0,0.3c0,0,0,0.1,0,0.1c0,0.1,0,0.2,0,0.2c0,0.1,0,0.1,0.1,0.2c0-0.1,0-0.1,0-0.2c0,0,0,0,0-0.1c0-0.1,0-0.1,0-0.2
		c0.1-0.1,0.1-0.1,0-0.2c0-0.1,0-0.1,0-0.2c0,0,0.1-0.1,0-0.1c0.1-0.3,0.1-0.7,0.2-1c0,0,0,0,0-0.1c0-0.1,0-0.2,0-0.3
		c0,0,0-0.1,0-0.1C15.9,20.9,15.9,20.8,16,20.7C16,20.7,16,20.7,16,20.7z M12.1,21.8C12.1,21.8,12.1,21.9,12.1,21.8
		C12.1,21.9,12.1,21.9,12.1,21.8C12.2,21.9,12.3,21.8,12.1,21.8z M14.9,12.9c0,0,0,0.1,0,0.1c0,0.1,0,0.2,0,0.2
		c-0.1,0.1-0.1,0.1,0,0.2c0,0.1,0,0.1,0,0.2c0,0.1-0.1,0.2,0.1,0.2c0,0,0,0,0.1,0c0.2,0,0.4,0,0.5,0c0.1,0,0.1,0,0.2,0
		c0.1,0,0.1,0.1,0.2,0c0-0.1,0-0.1,0-0.2c0-0.1,0-0.2,0-0.3c0,0,0-0.1,0-0.1c0-0.1,0-0.1,0-0.2c0-0.1,0-0.1,0-0.2c0-0.1,0-0.2,0-0.3
		c0-0.1,0-0.1,0-0.1c0-0.1,0-0.1,0-0.2c0-0.1,0-0.1,0-0.1c0-0.1,0-0.2,0-0.3c0-0.1,0-0.1,0-0.1c0,0,0-0.1,0-0.1c0-0.1,0-0.2,0-0.3
		c0,0,0,0,0-0.1c0-0.1,0-0.2,0-0.3c0,0,0-0.1,0-0.1c0-0.1,0-0.2-0.1-0.2c0,0,0,0,0-0.1c0,0,0,0.1,0,0.1c0,0.1,0,0.1,0,0.2
		c0,0.1,0,0.1,0,0.2c-0.1,0.1-0.1,0.1,0,0.2c0,0.1,0,0.1,0,0.2c-0.1,0.1-0.1,0.1,0,0.2c0,0.1,0,0.1,0,0.2c0,0,0,0.1,0,0.1
		c0,0.1,0,0.2,0,0.2c-0.1,0.1-0.1,0.2,0,0.2c0,0.1,0,0.1,0,0.2c0,0,0,0.1,0,0.1C15,12.8,15,12.8,14.9,12.9
		C15,12.9,14.9,12.9,14.9,12.9z M9.3,17.2c0,0-0.1,0-0.1,0c-0.1,0-0.1,0-0.2,0c0,0-0.1,0-0.1,0c0,0-0.1,0-0.1,0c0,0,0.1,0,0.1,0
		c0,0,0.1,0,0.1,0c0.1,0,0.1,0,0.2,0c0.1,0,0.1,0.1,0.2,0c0.1,0,0.2,0,0.3,0c0,0,0.1,0,0.1,0c0.1,0,0.2,0,0.3,0c0,0,0.1,0.1,0.1,0
		c0.1,0,0.2,0,0.2,0c0.1,0.1,0.1,0.1,0.2,0c0.1,0,0.1,0,0.2,0c0,0,0,0,0.1,0c0.1,0.1,0.2,0.1,0.2,0c0.1,0,0.1,0,0.2,0
		c0.1,0.1,0.1,0.1,0.2,0l0,0c0,0,0,0,0,0c0.1,0,0.1,0,0.2,0c0,0,0.1,0,0.1,0c0.1,0,0.1,0.1,0.2-0.1c0,0,0-0.1,0-0.1
		c0-0.1,0-0.1,0-0.2c0-0.1,0-0.1,0-0.2c0-0.1,0-0.2,0-0.2c0.1-0.1,0.1-0.2,0-0.2c-0.1,0-0.2,0-0.3,0c0,0-0.1,0-0.1,0
		c-0.1,0-0.1,0-0.2,0c-0.1,0-0.1,0-0.1,0c-0.1,0-0.1,0-0.2,0c-0.1,0-0.1,0-0.2,0c-0.1,0-0.2,0-0.2,0c-0.1,0-0.1,0-0.1,0
		c-0.2,0-0.4,0-0.6,0.1c-0.1,0-0.1,0-0.1,0c0,0-0.1,0-0.1,0c0,0,0,0-0.1,0c-0.1,0-0.1,0-0.1,0c-0.1,0-0.1,0-0.2,0
		C9.4,17.2,9.3,17.2,9.3,17.2z M19,16.8C19,16.8,19,16.8,19,16.8c-0.1,0-0.2,0-0.3,0c-0.2,0-0.1,0.2-0.1,0.3c0,0.1,0,0.2,0,0.2
		c-0.1,0.1,0,0.2,0,0.2c0,0.1,0,0.2,0,0.2c0.1,0.1,0.1,0.1,0.2,0c0.1,0,0.2,0,0.3,0c0.1,0,0.1,0,0.1,0c0,0,0.1,0,0.1,0
		c0.1,0,0.1,0,0.2,0c0.1,0,0.1,0,0.2,0c0.1,0,0.1,0,0.2,0c0,0,0,0,0.1,0c0,0,0.1,0,0.1,0c0.1,0,0.1,0,0.1,0c0,0,0.1,0,0.1,0
		c0.1,0,0.2,0,0.2,0l0,0c0.1,0,0.2,0,0.2,0c0.1,0,0.1,0,0.1,0c0,0,0,0,0.1,0c0,0,0.1,0,0.1,0c0.1,0,0.1,0,0.2,0l0,0
		c0.1,0,0.3,0,0.4-0.1c0,0,0.1,0,0.1,0c0,0-0.1,0-0.1,0c-0.1,0-0.2,0-0.3-0.1c-0.1-0.1-0.1-0.1-0.2,0c0,0,0,0,0,0c0,0,0,0-0.1,0
		c-0.1,0-0.1,0-0.2,0c-0.1-0.1-0.2-0.1-0.2,0c-0.1,0-0.1,0-0.2,0c-0.1-0.1-0.2-0.1-0.2,0c-0.1,0-0.1,0-0.2,0c0,0-0.1-0.1-0.1,0
		c-0.1,0-0.1,0-0.2,0c-0.1-0.1-0.1-0.1-0.2,0c-0.1,0-0.2,0-0.2,0C19.1,16.8,19.1,16.8,19,16.8z M15.1,16.7c-0.1-0.1-0.1-0.1-0.2,0
		c-0.1,0.1-0.2,0.2-0.2,0.3c0,0.1,0,0.1,0.1,0.1c0.1,0,0.1,0,0.1,0C14.9,16.9,15.1,16.8,15.1,16.7z M17.9,14.8c-0.1,0-0.3,0-0.1,0.2
		c0.1,0.1,0.1,0.1,0.2,0.2c0.2,0.3,0.2,0.3,0.4,0c0.1-0.1,0.2-0.3,0.1-0.4c-0.1-0.1-0.3,0-0.4,0C18,14.8,17.9,14.8,17.9,14.8z
		 M14.3,18c-0.4,0.6-0.8,1.3-1.1,1.9c-0.3,0.6-0.6,1.1-1,1.7c0,0-0.1,0.1,0,0.1c0,0,0.1,0,0.1-0.1c0.7-0.9,1.3-1.7,1.9-2.6
		c0.3-0.3,0.5-0.6,0.7-0.9c0,0,0.1-0.1,0.1-0.1c0.1-0.1,0.2-0.2,0.2-0.3c0-0.1-0.2,0-0.3-0.1c0,0-0.1-0.1-0.2-0.1
		c-0.2-0.2-0.2-0.2-0.3,0.1c0,0.1,0,0.1-0.1,0.2C14.4,17.9,14.3,17.9,14.3,18z M11.9,19.4c0.1,0,0.2,0,0.3,0c0.2,0,0.4,0,0.5-0.1
		c0.1-0.1-0.2-0.3-0.2-0.4c0-0.1-0.1-0.2-0.1-0.2c-0.1-0.1-0.1-0.1-0.1,0c-0.1,0.2-0.2,0.5-0.3,0.7C11.9,19.4,11.8,19.4,11.9,19.4z
		 M16.4,16.4L16.4,16.4c-0.2,0.3-0.3,0.7-0.6,1c-0.5,0.7-1,1.3-1.5,1.9c-0.2,0.3-0.2,0.3,0.1,0.3c0.1,0.1,0.2,0.1,0.3,0.1
		c0,0,0,0,0.1,0c0.3,0,0.6,0.1,0.9,0c0,0,0,0,0.1,0c0.1,0,0.2-0.1,0.3-0.1c0,0,0.1,0,0.1,0c0.3-0.1,0.5-0.3,0.8-0.4
		c0.1,0,0.1-0.2,0.2-0.1c0.2,0.1,0,0.2-0.1,0.2c-0.7,0.6-1.5,0.8-2.4,0.6c-0.2,0-0.4-0.1-0.6-0.2c-0.1,0-0.1,0-0.1,0
		c0,0.1,0,0.1,0.1,0.1c0.2,0.1,0.3,0.1,0.5,0.2c1.3,0.3,2.5-0.2,3.3-1.4c0.8-1.2,0.6-3-0.5-3.9c0,0-0.1-0.2-0.2-0.1
		c-0.1,0.1,0,0.1,0.1,0.2c0.5,0.5,0.8,1.1,0.9,1.8c0.1,0.9-0.1,1.7-0.7,2.3c0,0.1-0.1,0.2-0.2,0c0-0.1,0.1-0.2,0.1-0.3
		c0.3-0.4,0.5-0.8,0.6-1.3c0,0,0,0,0-0.1c0.1-0.8-0.2-1.6-0.7-2.2c-0.1-0.1-0.2-0.2-0.3,0c-0.1,0.3-0.3,0.6-0.4,1c0,0,0,0,0,0
		C16.4,16.3,16.4,16.3,16.4,16.4z M14.9,14.5C14.9,14.4,14.9,14.5,14.9,14.5c-1.2,0.1-2.1,1.2-2.3,2.3c0,0,0,0,0,0.1
		c-0.1,0.5,0,0.9,0.2,1.3c0,0,0,0,0,0c0,0.1,0,0.1,0,0.1c0.1,0.2,0.2,0.4,0.4,0.6c0.1,0.1,0.1,0.1,0.2,0c0.3-0.6,0.7-1.2,1-1.8
		c0.1,0,0.1-0.1,0-0.1c0-0.2,0.1-0.3,0.2-0.4c0.3-0.3,0.5-0.6,0.8-1c0.2-0.3,0.4-0.5,0.6-0.8c0.1-0.1,0.1-0.2-0.1-0.2
		C15.7,14.4,15.3,14.4,14.9,14.5z M15.3,14.1c-0.4,0-0.8,0.1-1.1,0.2c-2,0.8-2.6,3.3-1.2,4.9c0.1,0.1,0.1,0.2,0.2,0.2
		c0.1-0.1,0-0.2-0.1-0.3c-1-1.2-0.9-2.9,0.1-3.9c0.8-0.8,1.8-1.1,2.9-0.8c0.1,0,0.2,0.1,0.2,0c0-0.1-0.1-0.1-0.2-0.1
		C15.9,14.1,15.6,14,15.3,14.1z M15,17.4C15,17.4,15,17.3,15,17.4c-0.1-0.1-0.2-0.1-0.2,0c0,0.1,0,0.1,0.1,0.1
		C15,17.5,15,17.5,15,17.4z M12,22.1C12,22.1,12,22.1,12,22.1C12.1,22,12.1,22,12,22.1C12,22,12,22,12,22.1C12,22.1,12,22.1,12,22.1
		z"/>
	<path class="st13" d="M18.7,18c0.4-0.1,0.8-0.1,1.3-0.2c0,0,0.1,0,0.1,0c0.1,0,0.2,0,0.3,0c0,0,0.1,0,0.1,0c0.2,0,0.4-0.1,0.6-0.1
		c0,0,0.1,0,0.1,0c0.1,0,0.1,0,0.2,0c0.1,0,0.1,0,0.1,0c0.1,0,0.2,0,0.2,0c0,0,0,0,0,0l0,0c0.1,0,0.1,0,0.1,0c0.1,0,0.1,0,0.2,0
		c0,0,0,0,0.1,0c-0.1,0.3-0.4,0.5-0.7,0.6c-0.5,0.3-1.1,0.4-1.7,0.6c-0.4,0.1-0.7,0.3-1.1,0.4c-0.2,0.1-0.1,0.2-0.1,0.3
		c0,0.4,0.1,0.9,0.1,1.3c-0.1,0.4-0.2,0.7-0.6,0.8c-0.3,0.1-0.7,0-0.9-0.3c0,0,0,0-0.1-0.1c-0.1,0-0.1-0.1-0.2-0.1
		c-0.1,0,0,0.1,0,0.2c0.1,0.8,0.1,1.6-0.2,2.4c-0.2,0.5-0.3,0.6-0.9,0.6c0-0.2,0-0.4,0.1-0.6c0,0,0,0,0-0.1c0-0.1,0-0.1,0-0.2
		c0,0,0.1-0.1,0-0.1c0-0.1,0-0.2,0-0.3c0,0,0-0.1,0-0.1c0-0.2,0.1-0.4,0.1-0.6c0,0,0,0,0-0.1c0-0.1,0-0.2,0-0.3c0,0,0-0.1,0-0.1
		c0-0.1,0-0.1,0-0.2c0,0,0,0,0-0.1c0-0.2,0.1-0.4,0.1-0.6c0,0,0.1-0.1,0-0.1c0-0.3,0.2-0.3,0.4-0.4l0,0l0,0c0,0,0,0,0.1,0
		c0.2,0.1,0.3,0.2,0.5,0.3c0.2,0.1,0.3,0.2,0.5,0.2c0.1-0.1,0.1-0.2,0-0.3c0-0.2,0-0.4-0.1-0.6c0,0,0-0.1,0-0.1c0-0.1,0-0.3,0.1-0.4
		c0.3-0.3,0.4-0.6,0.6-1c0,0,0.1-0.1,0-0.1C18.4,18.1,18.5,18,18.7,18C18.6,18,18.6,18,18.7,18z"/>
	<path class="st7" d="M24.5,16.8c-0.2,0-0.4,0-0.6,0c-0.2,0-0.2,0.1-0.2,0.2c0,0,0,0,0,0.1c0,0.2,0,0.3-0.1,0.5c0,0,0,0.1,0,0
		c0.1,0,0.1,0,0.2,0c0.1,0,0.1,0,0.1,0c0.1,0,0.2,0,0.3,0c0,0,0,0,0.1,0c0.1,0.1,0.1,0.2-0.1,0.2c-0.1,0-0.2,0-0.4,0
		c-0.1,0-0.3-0.1-0.4,0c0,0.1,0,0.2-0.1,0.3c0,0,0,0,0,0.1c0,0.4,0,0.4,0.3,0.3c0,0,0.1,0,0.1,0c0.1,0,0.3-0.1,0.4-0.1
		c0,0,0.1,0,0.1,0c0.1,0.1,0.1,0.2-0.1,0.2c-0.1,0-0.1,0-0.1,0c-0.2,0-0.5,0.1-0.7,0.1c-0.1,0-0.2,0-0.3,0c-0.2-0.1-0.1-0.2-0.1-0.4
		c0.1-0.1,0.1-0.1,0-0.2c0,0,0-0.1,0-0.1c0-0.1,0.1-0.1,0-0.2c0-0.1,0-0.2,0-0.3c0,0,0-0.1,0-0.1c0,0,0-0.1,0-0.1c0,0,0,0,0-0.1
		c0-0.1,0-0.3,0.1-0.4c0.1-0.1,0.1-0.2,0.2-0.2c0,0,0.1,0,0.1,0c0.1,0,0.2,0,0.3,0c0,0,0.1,0,0.1,0c0,0,0,0,0.1,0
		C24.4,16.7,24.5,16.6,24.5,16.8C24.5,16.7,24.5,16.8,24.5,16.8z"/>
	<path class="st7" d="M7.7,17.1c-0.1,0.3-0.1,0.6-0.4,0.8c0,0,0,0-0.1,0C7,17.7,7,17.7,6.8,18c0,0-0.1,0-0.1,0c-0.1,0-0.2,0-0.2-0.1
		c-0.2-0.3-0.4-0.6-0.5-1c0,0,0,0,0-0.1c0.2,0.2,0.3,0.5,0.5,0.7c0,0.1,0,0.2,0.1,0.2c0.1,0,0.1-0.1,0.1-0.2
		c0.1-0.3,0.2-0.5,0.2-0.8c0,0,0,0,0-0.1c0-0.1,0.1,0,0.1,0c0,0.1,0,0.2,0,0.4c0,0.1,0,0.1,0,0.2c0,0.1,0,0.2,0,0.2c0,0,0,0,0,0.1
		c0,0,0,0,0,0c0,0,0,0,0,0c0.1,0,0.1,0,0.1-0.1c0.1-0.2,0.2-0.4,0.2-0.6c0,0,0.1-0.1,0-0.1c0-0.1,0.1-0.1,0.1,0
		C7.6,16.9,7.7,17,7.7,17.1z"/>
	<path class="st7" d="M15,8.1c0,0,0,0.1,0.1,0.1c0,0.1,0,0.2,0.1,0.1l0,0c0,0.3,0.1,0.5,0.2,0.8c0,0,0,0.1,0.1,0.1
		c0.1,0,0.1,0,0.1-0.1c0-0.2,0.1-0.4,0.1-0.6c0.1-0.1,0.1-0.2,0.1-0.3c0,0,0,0,0-0.1c0-0.1,0-0.1,0.1-0.1C16,8,16,8.1,16,8.1
		c0,0.1,0,0.2,0,0.2c0,0,0,0,0,0.1c0,0.1,0,0.1,0,0.2c0,0.1,0,0.1,0,0.2c0,0-0.1,0.1,0,0.1c0,0,0,0.1,0,0.1c-0.1,0.1,0,0.4-0.2,0.4
		c-0.2,0-0.3-0.2-0.4-0.4c0-0.1,0-0.1-0.1-0.1c0-0.1-0.1-0.2-0.1-0.3c0,0,0-0.1-0.1-0.1c0,0,0,0.1,0,0.1c0,0,0,0.1,0,0.1
		c0,0.1,0,0.1,0,0.2c0,0,0,0,0,0.1c0,0.1,0,0.2,0,0.3c0,0-0.1,0.1-0.1,0c0-0.1,0-0.3,0-0.4c0-0.1,0-0.1,0-0.2c0-0.2,0-0.3,0-0.5
		c0-0.1,0-0.2,0.1-0.2C14.9,8.1,15,8.1,15,8.1z"/>
	<path class="st0" d="M15.6,26.3c-0.1,0.1-0.2,0.2-0.4,0.2c-0.1,0-0.2,0-0.4,0c0,0-0.1,0-0.1,0c-0.2-0.1-0.4-0.1-0.4-0.3
		c0-0.1,0.2,0,0.4,0c0,0,0,0,0.1,0c0.1,0.1,0.3,0.1,0.4,0c0.2-0.1,0.2-0.2,0-0.3c-0.1-0.1-0.2-0.1-0.3-0.2c-0.1-0.1-0.3-0.2-0.2-0.3
		c0-0.2,0.1-0.2,0.3-0.3c0,0,0.1,0,0.1,0c0.1,0,0.1,0,0.2,0c0,0,0.1,0,0.1,0c0.2,0,0.3,0.1,0.4,0.3c0,0,0,0.1,0,0.1
		c-0.2,0.1-0.2-0.2-0.3-0.2c0,0,0,0-0.1,0c0,0-0.1,0-0.1,0c-0.1,0-0.1,0-0.1,0c-0.2,0.1-0.3,0.1,0,0.3c0.2,0.1,0.4,0.2,0.5,0.4
		c0,0,0,0.1,0,0.1C15.6,26.1,15.6,26.2,15.6,26.3C15.6,26.2,15.6,26.2,15.6,26.3z"/>
	<path class="st7" d="M9,11.1c-0.3-0.2-0.5-0.4-0.8-0.6c0,0-0.1-0.1-0.1-0.2c0,0,0.1,0,0.2,0c0.3,0.2,0.5,0.4,0.8,0.5
		c0.1,0,0.1,0.1,0.1,0.2C9.1,11,9.1,11,9,11.1z"/>
	<path class="st7" d="M8.4,24.3c-0.1,0-0.1-0.1-0.1-0.1c0.1-0.3,0.3-0.6,0.6-0.8c0,0,0.1,0,0.1,0c0,0,0,0.1,0,0.1
		C8.9,23.8,8.7,24,8.4,24.3C8.5,24.3,8.4,24.3,8.4,24.3z"/>
	<path class="st13" d="M11.6,18c0.1,0,0.2,0,0.2,0c0,0,0,0,0.1,0c0,0,0,0,0.1,0c0.2,0,0.2,0.1,0.2,0.3c0,0,0,0-0.1,0
		c-0.1,0.1-0.2,0.2-0.4,0.1C11.6,18.3,11.6,18.1,11.6,18z"/>
	<path class="st7" d="M21.9,23.7c0.1,0.1,0.2,0.3,0.3,0.4c0.1,0.1,0.1,0.1,0,0.2c-0.1,0.1-0.1,0-0.2-0.1c-0.1-0.1-0.2-0.2-0.4-0.3
		c0,0,0,0,0-0.1c0,0,0,0,0-0.1C21.6,23.5,21.7,23.6,21.9,23.7z"/>
	<path class="st7" d="M15.6,27.4c0,0,0,0.1,0,0.1c0,0.1,0,0.1-0.1,0.2c-0.1,0-0.1-0.1-0.1-0.1c-0.1-0.2,0-0.4-0.1-0.6
		c0-0.1,0-0.2,0-0.2c0.1-0.1,0.1,0,0.1,0.1c0,0,0,0.1,0,0.1C15.5,27,15.5,27.2,15.6,27.4C15.5,27.4,15.5,27.4,15.6,27.4z"/>
	<path class="st0" d="M5.4,17.4c-0.1-0.1,0-0.1,0.1-0.1c0,0,0,0,0,0l0,0c0.1,0,0.3,0,0.4,0c0.1,0,0.2,0.1,0.1,0.2
		c-0.1,0-0.1,0-0.2,0c-0.1,0-0.2,0-0.3,0C5.5,17.4,5.4,17.4,5.4,17.4L5.4,17.4z"/>
	<path class="st5" d="M15.2,26.3c-0.1,0.1-0.3,0.1-0.4,0C14.9,26.3,15.1,26.3,15.2,26.3z"/>
	<path class="st2" d="M14.8,9c0,0.1,0,0.3,0,0.4C14.7,9.3,14.8,9.1,14.8,9C14.8,9,14.8,9,14.8,9z"/>
	<path class="st2" d="M14.9,26.5c0.1,0,0.2,0,0.4,0C15.1,26.6,15,26.6,14.9,26.5z"/>
	<path class="st0" d="M12.9,14.2c0.1,0,0.2,0,0.3,0.1l0,0c0,0,0,0-0.1,0.1C13,14.3,12.9,14.3,12.9,14.2
		C12.9,14.3,12.9,14.2,12.9,14.2z"/>
	<path class="st2" d="M7.1,17.1c0-0.1,0-0.2,0-0.4C7.2,16.8,7.2,17,7.1,17.1C7.1,17.1,7.1,17.1,7.1,17.1z"/>
	<path class="st2" d="M12.6,15c0,0.1,0.1,0.2,0,0.3C12.6,15.2,12.6,15.1,12.6,15C12.6,15,12.6,15,12.6,15z"/>
	<path class="st3" d="M18.6,14.7c0-0.1-0.1-0.1-0.1-0.1c0.1-0.1,0.1-0.1,0.2,0C18.7,14.6,18.7,14.7,18.6,14.7z"/>
	<path class="st7" d="M12.9,14.2C12.9,14.2,12.9,14.3,12.9,14.2C12.8,14.3,12.8,14.3,12.9,14.2c-0.1,0.1-0.1,0.1-0.1,0
		c0,0,0,0-0.1,0c0,0,0-0.1,0-0.1C12.7,14.2,12.8,14.2,12.9,14.2z"/>
	<path class="st3" d="M7.7,17.1c0-0.1,0-0.2,0-0.3C7.7,16.9,7.7,17,7.7,17.1z"/>
	<path class="st2" d="M23.3,18.8c0.1,0,0.2,0,0.3,0c0,0,0,0-0.1,0.1C23.4,18.8,23.4,18.8,23.3,18.8z"/>
	<path class="st14" d="M12.7,19.5c0.1-0.1,0.2-0.1,0.2,0C12.9,19.5,12.8,19.5,12.7,19.5z"/>
	<path class="st6" d="M15.3,26.7c0,0.1,0,0.2,0,0.2C15.3,26.9,15.3,26.8,15.3,26.7z"/>
	<path class="st6" d="M11.6,16.6c-0.1,0-0.1,0.1-0.2,0C11.4,16.6,11.5,16.6,11.6,16.6z"/>
	<path class="st2" d="M14.7,13c0,0.1,0,0.1,0,0.2C14.7,13.1,14.7,13,14.7,13z"/>
	<path class="st6" d="M16,13.5c0-0.1-0.1-0.1,0-0.2C16.1,13.4,16.1,13.5,16,13.5z"/>
	<path class="st6" d="M14.6,13.7c0,0.1,0,0.1,0,0.2C14.6,13.8,14.5,13.8,14.6,13.7z"/>
	<path class="st5" d="M12.2,19.6c0.1-0.1,0.1,0,0.2,0C12.3,19.6,12.3,19.6,12.2,19.6z"/>
	<path class="st4" d="M23.3,18.2c0,0.1,0,0.1,0,0.2C23.2,18.3,23.2,18.3,23.3,18.2z"/>
	<path class="st5" d="M15.8,12c-0.1-0.1-0.1-0.1,0-0.2C15.8,11.9,15.8,11.9,15.8,12z"/>
	<path class="st6" d="M23.3,17.9c0,0.1,0,0.1,0,0.2C23.3,18,23.3,18,23.3,17.9z"/>
	<path class="st6" d="M11.4,17.9c0.1,0,0.1,0,0.2,0C11.5,18,11.4,18,11.4,17.9z"/>
	<path class="st5" d="M9.3,17.6c0.1,0,0.1,0,0.2,0C9.4,17.7,9.4,17.7,9.3,17.6z"/>
	<path class="st5" d="M8.5,17.5c0.1,0,0.1,0,0.2,0C8.6,17.6,8.6,17.6,8.5,17.5z"/>
	<path class="st5" d="M5.8,17.5c0.1,0,0.1,0,0.2,0C5.9,17.6,5.9,17.6,5.8,17.5z"/>
	<path class="st5" d="M8.1,17.4c0.1,0,0.1,0,0.2,0c0,0,0,0,0,0C8.2,17.5,8.1,17.5,8.1,17.4z"/>
	<path class="st2" d="M15.7,11.3c-0.1-0.1-0.1-0.1,0-0.2C15.7,11.2,15.7,11.2,15.7,11.3z"/>
	<path class="st2" d="M15,11c0,0.1,0,0.1,0,0.2C15,11.2,15,11.1,15,11z"/>
	<path class="st1" d="M7.1,17.1C7.1,17.1,7.1,17.1,7.1,17.1c0,0.1,0,0.1,0,0.2C7.1,17.2,7.1,17.1,7.1,17.1z"/>
	<path class="st2" d="M9.5,17C9.4,17,9.4,17,9.3,17C9.4,17,9.4,16.9,9.5,17z"/>
	<path class="st2" d="M9,11.1c0.1,0,0.1,0,0.2,0C9.1,11.1,9.1,11.1,9,11.1z"/>
	<path class="st6" d="M21.5,16.9c-0.1,0-0.1,0-0.2,0C21.4,16.9,21.4,16.9,21.5,16.9z"/>
	<path class="st6" d="M9.8,16.9c-0.1,0-0.1,0.1-0.2,0C9.7,16.9,9.8,16.9,9.8,16.9z"/>
	<path class="st5" d="M15.6,10.6c0-0.1-0.1-0.1,0-0.2C15.6,10.4,15.6,10.5,15.6,10.6z"/>
	<path class="st4" d="M20.7,16.8c-0.1,0-0.1,0-0.2,0C20.6,16.8,20.7,16.8,20.7,16.8z"/>
	<path class="st1" d="M19.4,10.5c0-0.1,0-0.1,0-0.2C19.5,10.3,19.4,10.4,19.4,10.5z"/>
	<path class="st6" d="M14.8,9C14.8,9,14.8,9,14.8,9c-0.1-0.1-0.1-0.1,0-0.2C14.8,8.9,14.8,8.9,14.8,9z"/>
	<path class="st5" d="M19.4,16.7c-0.1,0-0.1,0-0.2,0C19.3,16.6,19.4,16.6,19.4,16.7z"/>
	<path class="st2" d="M15.5,10.2c-0.1-0.1-0.1-0.1,0-0.2c0,0,0,0,0,0C15.5,10.1,15.5,10.2,15.5,10.2z"/>
	<path class="st2" d="M11.9,16.6c-0.1,0-0.1,0.1-0.2,0C11.8,16.5,11.8,16.5,11.9,16.6z"/>
	<path class="st4" d="M15.9,12.8c0,0,0-0.1,0-0.1C15.9,12.7,15.9,12.7,15.9,12.8z"/>
	<path class="st2" d="M16.4,14c-0.1,0-0.1,0-0.1,0C16.3,13.9,16.3,14,16.4,14z"/>
	<path class="st5" d="M15.9,13.1c0,0,0-0.1,0-0.1C16,13,16,13,15.9,13.1C16,13.1,16,13.1,15.9,13.1z"/>
	<path class="st5" d="M19.9,16.7c-0.1,0-0.1,0-0.1,0C19.8,16.7,19.9,16.7,19.9,16.7z"/>
	<path class="st5" d="M15.2,10.3c0,0.1,0,0.1,0,0.1C15.1,10.4,15.1,10.3,15.2,10.3z"/>
	<path class="st2" d="M15.2,9c0,0,0.1,0.1,0.1,0.1C15.2,9.1,15.2,9,15.2,9z"/>
	<path class="st2" d="M15.8,9c0-0.1,0-0.1,0-0.1C15.9,8.9,15.9,8.9,15.8,9z"/>
	<path class="st3" d="M10.9,16.7c0,0.1-0.1,0.1-0.1,0C10.8,16.7,10.9,16.7,10.9,16.7z"/>
	<path class="st1" d="M7.5,16.8c0,0.1,0,0.1,0,0.1C7.5,16.9,7.5,16.8,7.5,16.8z"/>
	<path class="st3" d="M14.9,8.9c0-0.1,0-0.1,0-0.1C15,8.8,15,8.8,14.9,8.9z"/>
	<path class="st3" d="M10.5,16.8c0,0.1-0.1,0.1-0.1,0C10.4,16.8,10.4,16.8,10.5,16.8z"/>
	<path class="st4" d="M10.1,16.9c0,0-0.1,0.1-0.1,0C10,16.8,10.1,16.8,10.1,16.9z"/>
	<path class="st5" d="M14.8,12.6c0,0.1,0,0.1,0,0.1C14.7,12.7,14.7,12.7,14.8,12.6z"/>
	<path class="st13" d="M21.1,16.9c0,0-0.1,0-0.1,0C21,16.8,21,16.8,21.1,16.9z"/>
	<path class="st5" d="M8.7,17.1c0,0-0.1,0.1-0.1,0C8.6,17.1,8.7,17.1,8.7,17.1z"/>
	<path class="st4" d="M14.9,12.2c0,0.1,0,0.1,0,0.1C14.8,12.3,14.8,12.3,14.9,12.2z"/>
	<path class="st2" d="M22.6,17.3c0,0,0-0.1,0-0.1C22.7,17.2,22.7,17.2,22.6,17.3z"/>
	<path class="st2" d="M8,17.3c0,0,0,0.1,0,0.1C7.9,17.3,7.9,17.3,8,17.3z"/>
	<path class="st3" d="M22,17.4C22,17.4,22,17.4,22,17.4C22,17.4,22,17.4,22,17.4C22.1,17.4,22.1,17.4,22,17.4z"/>
	<path class="st3" d="M5.4,17.4c0.1,0,0.1,0,0.1,0C5.5,17.5,5.4,17.5,5.4,17.4C5.4,17.5,5.4,17.5,5.4,17.4z"/>
	<path class="st5" d="M15,11.5c0,0.1,0,0.1,0,0.1C14.9,11.5,14.9,11.5,15,11.5z"/>
	<path class="st6" d="M15.7,25.6c0,0,0-0.1,0-0.1C15.8,25.5,15.8,25.5,15.7,25.6z"/>
	<path class="st3" d="M17.7,14.7c0,0-0.1,0.1-0.1,0C17.6,14.7,17.7,14.7,17.7,14.7z"/>
	<path class="st6" d="M7.3,17.5C7.3,17.5,7.3,17.6,7.3,17.5L7.3,17.5C7.2,17.5,7.2,17.5,7.3,17.5C7.2,17.5,7.3,17.5,7.3,17.5z"/>
	<path class="st2" d="M18.2,14.6c0,0-0.1,0.1-0.1,0C18.1,14.6,18.2,14.6,18.2,14.6z"/>
	<path class="st5" d="M15.1,25.4c0-0.1,0.1-0.1,0.1,0C15.2,25.4,15.1,25.4,15.1,25.4z"/>
	<path class="st6" d="M23.4,17.5c0,0.1,0,0.1,0,0.1C23.3,17.6,23.3,17.5,23.4,17.5z"/>
	<path class="st6" d="M15.3,25.1c0,0-0.1,0-0.1,0C15.3,25.1,15.3,25.1,15.3,25.1z"/>
	<path class="st1" d="M15.4,24.4c0,0,0.1,0.1,0,0.1C15.3,24.5,15.3,24.5,15.4,24.4z"/>
	<path class="st4" d="M8.9,17.6c0,0,0.1,0,0.1,0c0,0,0,0,0,0C9,17.6,9,17.6,8.9,17.6z"/>
	<path class="st4" d="M15.6,24.5c0-0.1,0-0.1,0-0.1C15.6,24.4,15.6,24.5,15.6,24.5z"/>
	<path class="st5" d="M15.7,11.6c0,0,0-0.1,0-0.1C15.7,11.5,15.8,11.5,15.7,11.6C15.7,11.6,15.7,11.6,15.7,11.6z"/>
	<path class="st4" d="M15.3,23.8c0,0,0,0.1,0,0.1C15.2,23.9,15.2,23.8,15.3,23.8C15.2,23.8,15.3,23.8,15.3,23.8z"/>
	<path class="st3" d="M15.1,22.9c0.1,0,0.1,0.1,0,0.1c0,0,0,0,0,0C15.1,23,15.1,23,15.1,22.9z"/>
	<path class="st5" d="M9.7,17.7c0,0,0.1,0,0.1,0c0,0,0,0,0,0C9.8,17.7,9.7,17.7,9.7,17.7z"/>
	<path class="st3" d="M15.7,11.6C15.7,11.6,15.7,11.6,15.7,11.6c0,0.1,0,0.1,0,0.1C15.7,11.7,15.7,11.6,15.7,11.6z"/>
	<path class="st3" d="M12.5,14.4c0.1,0,0.1,0.1,0,0.1C12.4,14.5,12.4,14.4,12.5,14.4z"/>
	<path class="st4" d="M10.5,17.8c0,0,0.1,0,0.1,0c0,0,0,0,0,0C10.6,17.9,10.6,17.8,10.5,17.8z"/>
	<path class="st3" d="M16.1,13.9c-0.1,0-0.1-0.1,0-0.1C16.1,13.8,16.1,13.8,16.1,13.9z"/>
	<path class="st4" d="M11,17.9c0,0,0.1,0,0.1,0c0,0,0,0,0,0C11.1,17.9,11,17.9,11,17.9z"/>
	<path class="st6" d="M14.9,21.5c0,0,0.1,0.1,0,0.1C14.9,21.6,14.9,21.5,14.9,21.5z"/>
	<path class="st4" d="M14.8,21.1c0,0,0,0.1,0,0.1C14.8,21.2,14.8,21.1,14.8,21.1z"/>
	<path class="st6" d="M14.9,11.9c0,0.1,0,0.1,0,0.1C14.9,12,14.9,11.9,14.9,11.9z"/>
	<path class="st3" d="M14.8,20.6c0.1,0,0.1,0.1,0,0.1C14.7,20.7,14.7,20.7,14.8,20.6z"/>
	<path class="st6" d="M14.7,20.4c0.1,0,0.1,0.1,0,0.1C14.7,20.5,14.7,20.5,14.7,20.4z"/>
	<path class="st5" d="M15.2,10c0,0,0,0.1,0,0.1c0,0,0,0,0,0C15.2,10.1,15.2,10,15.2,10z"/>
	<path class="st5" d="M14.4,20.3c0.1,0,0.1,0,0.1,0C14.5,20.4,14.5,20.4,14.4,20.3z"/>
	<path class="st4" d="M11.7,19.4c0,0,0,0.1,0,0.1C11.6,19.5,11.6,19.5,11.7,19.4z"/>
	<path class="st4" d="M11.7,19.6c0,0,0.1,0,0.1,0c0,0,0,0,0,0C11.7,19.6,11.7,19.7,11.7,19.6z"/>
	<path class="st6" d="M11.8,19.6C11.8,19.6,11.8,19.6,11.8,19.6C11.8,19.6,11.8,19.6,11.8,19.6C11.8,19.6,11.8,19.6,11.8,19.6z"/>
	<path class="st3" d="M14.3,20.3C14.3,20.3,14.3,20.3,14.3,20.3C14.3,20.3,14.3,20.3,14.3,20.3z"/>
	<path class="st3" d="M16.2,13.9C16.1,14,16.1,13.9,16.2,13.9C16.1,13.9,16.1,13.9,16.2,13.9z"/>
	<path class="st7" d="M15.2,10.1C15.2,10.1,15.2,10.1,15.2,10.1C15.2,10.1,15.2,10.1,15.2,10.1C15.2,10.1,15.2,10.1,15.2,10.1z"/>
	<path class="st6" d="M15.5,10.1C15.5,10,15.5,10,15.5,10.1C15.5,10,15.5,10,15.5,10.1C15.5,10,15.5,10,15.5,10.1z"/>
	<path class="st2" d="M16.5,14.1C16.4,14.1,16.4,14.1,16.5,14.1C16.4,14,16.5,14,16.5,14.1z"/>
	<path class="st14" d="M6.7,18C6.7,18,6.7,18,6.7,18C6.8,18,6.7,18,6.7,18z"/>
	<path class="st3" d="M11.1,17.9C11.1,17.9,11.1,17.9,11.1,17.9C11.2,17.9,11.2,17.9,11.1,17.9C11.2,17.9,11.2,17.9,11.1,17.9z"/>
	<path class="st6" d="M7.2,17.9C7.2,17.9,7.2,17.9,7.2,17.9C7.2,17.9,7.2,17.9,7.2,17.9z"/>
	<path class="st6" d="M14.9,21.9C15,21.9,15,22,14.9,21.9C14.9,22,14.9,21.9,14.9,21.9z"/>
	<path class="st15" d="M13.1,14.3L13.1,14.3L13.1,14.3L13.1,14.3C13.1,14.3,13.1,14.3,13.1,14.3z"/>
	<path class="st1" d="M10.7,17.8C10.7,17.8,10.7,17.8,10.7,17.8C10.7,17.8,10.7,17.8,10.7,17.8C10.7,17.8,10.7,17.8,10.7,17.8z"/>
	<path class="st1" d="M9.8,17.7C9.8,17.7,9.8,17.7,9.8,17.7C9.9,17.7,9.9,17.7,9.8,17.7C9.9,17.7,9.9,17.7,9.8,17.7z"/>
	<path class="st6" d="M15.1,23.1C15.1,23.1,15.1,23.1,15.1,23.1C15.2,23.1,15.2,23.1,15.1,23.1C15.1,23.1,15.1,23.1,15.1,23.1z"/>
	<path class="st1" d="M15.2,23.3C15.2,23.3,15.2,23.3,15.2,23.3C15.2,23.4,15.2,23.3,15.2,23.3z"/>
	<path class="st13" d="M21.6,23.8C21.6,23.8,21.6,23.9,21.6,23.8C21.6,23.9,21.6,23.9,21.6,23.8z"/>
	<path class="st6" d="M15.3,24.1C15.3,24.1,15.3,24.2,15.3,24.1C15.3,24.2,15.3,24.1,15.3,24.1z"/>
	<path class="st14" d="M9.1,17.6C9.1,17.6,9.1,17.6,9.1,17.6C9.1,17.6,9.1,17.6,9.1,17.6C9.1,17.6,9.1,17.6,9.1,17.6L9.1,17.6z"/>
	<path class="st3" d="M15.1,25.2C15,25.2,15,25.2,15.1,25.2C15,25.2,15,25.1,15.1,25.2z"/>
	<path class="st5" d="M15.3,25.3C15.4,25.3,15.4,25.3,15.3,25.3C15.4,25.4,15.4,25.4,15.3,25.3z"/>
	<path class="st3" d="M15.6,26.1C15.6,26.1,15.6,26,15.6,26.1C15.6,26,15.6,26.1,15.6,26.1z"/>
	<path class="st3" d="M15.6,26.3C15.6,26.2,15.6,26.2,15.6,26.3C15.6,26.2,15.6,26.2,15.6,26.3z"/>
	<path class="st14" d="M8.2,17.5C8.2,17.5,8.2,17.5,8.2,17.5C8.3,17.4,8.3,17.4,8.2,17.5C8.3,17.5,8.3,17.5,8.2,17.5z"/>
	<path class="st1" d="M23.4,17.3C23.5,17.3,23.4,17.4,23.4,17.3C23.4,17.4,23.4,17.3,23.4,17.3z"/>
	<path class="st14" d="M15.5,26.9C15.5,26.8,15.5,26.8,15.5,26.9C15.5,26.8,15.5,26.8,15.5,26.9z"/>
	<path class="st6" d="M22.4,17.4C22.4,17.3,22.4,17.3,22.4,17.4C22.4,17.4,22.4,17.4,22.4,17.4z"/>
	<path class="st6" d="M15.6,27.4C15.5,27.4,15.5,27.4,15.6,27.4C15.6,27.3,15.6,27.4,15.6,27.4z"/>
	<path class="st16" d="M12.6,15C12.6,15,12.6,15,12.6,15C12.6,15,12.6,15,12.6,15C12.6,15,12.6,15,12.6,15z"/>
	<path class="st13" d="M5.5,17.3L5.5,17.3C5.5,17.3,5.5,17.3,5.5,17.3C5.5,17.3,5.5,17.3,5.5,17.3C5.5,17.3,5.5,17.3,5.5,17.3z"/>
	<path class="st14" d="M8.5,17.2C8.5,17.2,8.4,17.2,8.5,17.2C8.4,17.2,8.4,17.1,8.5,17.2z"/>
	<path class="st6" d="M15.1,10.7C15.1,10.8,15.1,10.8,15.1,10.7C15,10.8,15.1,10.8,15.1,10.7z"/>
	<path class="st7" d="M6,16.9C6,16.9,6,16.9,6,16.9C6,16.9,6.1,16.9,6,16.9C6.1,16.9,6,16.9,6,16.9z"/>
	<path class="st14" d="M7,16.7C7,16.8,7,16.8,7,16.7C6.9,16.8,7,16.7,7,16.7z"/>
	<path class="st6" d="M14.9,9.1C14.9,9.1,14.9,9.1,14.9,9.1C15,9.1,15,9.1,14.9,9.1z"/>
	<path class="st1" d="M15.9,13.1C16,13.1,16,13.1,15.9,13.1C16,13.1,16,13.1,15.9,13.1C15.9,13.1,15.9,13.1,15.9,13.1z"/>
	<path class="st14" d="M11.2,16.7C11.2,16.7,11.1,16.7,11.2,16.7C11.1,16.7,11.2,16.7,11.2,16.7z"/>
	<path class="st6" d="M10.2,17.8C10.2,17.7,10.3,17.7,10.2,17.8C10.2,17.8,10.2,17.8,10.2,17.8z"/>
	<path class="st1" d="M15.3,23.8C15.3,23.8,15.2,23.8,15.3,23.8C15.2,23.7,15.2,23.7,15.3,23.8C15.3,23.7,15.3,23.7,15.3,23.8z"/>
	<path class="st12" d="M15.7,8.5c0,0.2-0.1,0.4-0.1,0.6c0,0,0,0.1-0.1,0.1c0,0,0,0-0.1-0.1c-0.1-0.3-0.3-0.5-0.2-0.8
		c0,0,0.1,0,0.1,0C15.4,8.6,15.6,8.5,15.7,8.5z"/>
	<path class="st7" d="M22.5,10.3C22.5,10.4,22.5,10.4,22.5,10.3c-0.3,0.3-0.5,0.4-0.8,0.6c-0.1,0-0.1,0-0.2,0c0,0,0-0.1,0-0.1
		c0.2-0.2,0.4-0.4,0.7-0.5C22.4,10.2,22.4,10.2,22.5,10.3z"/>
	<path class="st7" d="M15.3,8.4c0,0-0.1,0-0.1,0c0,0,0,0,0,0c0-0.1,0-0.2,0-0.2c0-0.2,0-0.5,0-0.7c0,0,0,0,0-0.1c0,0,0-0.1,0.1-0.1
		c0,0,0,0.1,0,0.1C15.4,7.7,15.5,8,15.3,8.4z"/>
	<path class="st6" d="M15.2,8.1c0,0.1,0,0.2,0,0.2c-0.1,0-0.1-0.1-0.1-0.1C15.1,8.2,15.2,8.1,15.2,8.1z"/>
	<path class="st2" d="M23.6,17.8c0.1-0.1,0.2,0,0.4,0C23.8,17.8,23.7,17.8,23.6,17.8z"/>
	<path class="st3" d="M25.1,17.8c0.1-0.1,0.1,0,0.2,0C25.2,17.9,25.2,17.9,25.1,17.8z"/>
	<path class="st3" d="M15,8.1c-0.1,0-0.1,0-0.2,0C14.9,8,15,8,15,8.1z"/>
	<path class="st3" d="M24.2,16.7c0,0-0.1,0-0.1,0C24.1,16.6,24.2,16.6,24.2,16.7C24.2,16.6,24.2,16.6,24.2,16.7z"/>
	<path class="st14" d="M15.4,7.4c0,0,0-0.1,0-0.1C15.4,7.3,15.4,7.3,15.4,7.4z"/>
	<path class="st3" d="M23.9,17.6c0,0-0.1,0-0.1,0C23.8,17.6,23.9,17.6,23.9,17.6z"/>
	<path class="st5" d="M25.3,17.6c0,0-0.1,0-0.1,0C25.2,17.5,25.2,17.5,25.3,17.6z"/>
	<path class="st2" d="M24.5,18.4c0,0-0.1,0-0.1,0C24.4,18.3,24.4,18.3,24.5,18.4z"/>
	<path class="st3" d="M24.3,18.6c0,0,0.1-0.1,0.1,0C24.4,18.6,24.3,18.6,24.3,18.6z"/>
	<path class="st5" d="M23.9,18.5C23.9,18.5,23.8,18.5,23.9,18.5C23.8,18.5,23.8,18.4,23.9,18.5z"/>
	<path class="st14" d="M23.5,18.2C23.4,18.1,23.5,18.1,23.5,18.2C23.5,18.1,23.5,18.1,23.5,18.2z"/>
	<path class="st6" d="M23.6,17.6C23.6,17.6,23.6,17.6,23.6,17.6C23.6,17.6,23.6,17.6,23.6,17.6z"/>
	<path class="st5" d="M24.3,17.5C24.3,17.5,24.3,17.5,24.3,17.5C24.3,17.5,24.3,17.5,24.3,17.5z"/>
	<path class="st2" d="M15.3,7.3C15.3,7.3,15.3,7.4,15.3,7.3C15.2,7.4,15.2,7.3,15.3,7.3z"/>
	<path class="st4" d="M23.7,17.1C23.6,17.1,23.6,17,23.7,17.1C23.7,17,23.7,17.1,23.7,17.1z"/>
	<path class="st1" d="M15.8,8.1C15.8,8.2,15.8,8.2,15.8,8.1C15.8,8.2,15.8,8.2,15.8,8.1z"/>
	<path class="st3" d="M15.9,8.5C15.9,8.4,15.9,8.4,15.9,8.5C16,8.4,16,8.4,15.9,8.5z"/>
	<path class="st3" d="M24.5,16.8C24.5,16.8,24.5,16.7,24.5,16.8C24.5,16.7,24.6,16.7,24.5,16.8C24.6,16.8,24.5,16.8,24.5,16.8z"/>
	<path class="st4" d="M24.2,16.7C24.2,16.6,24.2,16.6,24.2,16.7C24.2,16.6,24.3,16.6,24.2,16.7C24.3,16.7,24.2,16.7,24.2,16.7z"/>
	<path class="st3" d="M23.8,16.6C23.7,16.7,23.7,16.7,23.8,16.6C23.7,16.6,23.7,16.6,23.8,16.6z"/>
	<path class="st17" d="M16.5,16.2C16.5,16.2,16.5,16.2,16.5,16.2c0.2-0.1,0.3,0.1,0.4,0.2c0.2,0.2,0.3,0.5,0.4,0.8
		c0.2,0.6-0.1,1.2-0.4,1.7c-0.2,0.3-0.5,0.5-0.8,0.8c0,0,0,0,0,0c-0.1,0-0.2,0.1-0.3,0.1c0,0,0,0-0.1,0c-0.3,0.1-0.6,0.1-0.9,0
		c0,0,0,0-0.1,0c-0.1,0-0.2,0-0.3-0.1c0.1,0,0.2-0.1,0.2-0.2c0.2-0.3,0.4-0.7,0.6-1c0.1-0.2,0.2-0.4,0.5-0.5
		c0.3-0.1,0.5-0.3,0.5-0.6c0-0.3,0-0.6,0.1-0.9l0,0C16.5,16.4,16.5,16.3,16.5,16.2z"/>
	<path class="st17" d="M12.9,18.2C12.8,18.2,12.8,18.2,12.9,18.2c0.1-0.3,0-0.6,0.1-0.9c0.2-1,0.8-1.7,1.7-1.8
		c0.3,0,0.6-0.1,0.8,0.1c-0.2,0.3-0.4,0.7-0.8,1c-0.1,0.1-0.2,0.2-0.2,0.4c0,0,0,0.1,0,0.1c-0.3,0.6-0.7,1.2-1,1.8
		c-0.1,0.1-0.1,0.1-0.2,0c-0.2-0.2-0.3-0.4-0.4-0.6C12.9,18.3,12.9,18.2,12.9,18.2z"/>
	<path class="st18" d="M15.5,15.6c-0.3-0.1-0.6-0.1-0.8-0.1c-1,0.2-1.6,0.8-1.7,1.8c0,0.3,0,0.6-0.1,0.8c-0.2-0.4-0.3-0.9-0.2-1.3
		c0,0,0,0,0-0.1c0.1-1.2,1.1-2.2,2.2-2.3c0,0,0,0,0.1,0c0.4-0.1,0.7,0,1.1,0.1c0.2,0,0.2,0.1,0.1,0.2C15.9,15,15.7,15.3,15.5,15.6z"
		/>
	<path class="st18" d="M16.2,19.7c0.2-0.3,0.5-0.5,0.8-0.8c0.3-0.5,0.6-1,0.4-1.7c-0.1-0.3-0.2-0.5-0.4-0.8
		c-0.1-0.1-0.2-0.2-0.4-0.2c0.1-0.3,0.3-0.6,0.4-1c0.1-0.2,0.2-0.1,0.3,0c0.6,0.6,0.8,1.4,0.7,2.2c0,0,0,0.1,0,0.1
		c-0.1,0.5-0.3,0.9-0.6,1.3c-0.1,0.1-0.2,0.1-0.1,0.3l0,0c-0.1-0.1-0.2,0.1-0.2,0.1C16.8,19.4,16.5,19.6,16.2,19.7
		C16.2,19.7,16.2,19.7,16.2,19.7z"/>
	<path class="st19" d="M14.4,17.9c0-0.1,0-0.1,0.1-0.2c0.1-0.3,0.1-0.3,0.3-0.1c0.1,0,0.1,0.1,0.2,0.1c0.1,0.1,0.3,0,0.3,0.1
		c0,0.1-0.1,0.2-0.2,0.3c0,0-0.1,0.1-0.1,0.1c-0.1,0-0.1-0.1-0.2,0c-0.2,0.3-0.4,0.5-0.5,0.9c-0.6,0.9-1.3,1.7-1.9,2.6
		c0,0-0.1,0.1-0.1,0.1c0,0,0-0.1,0-0.1c0.3-0.6,0.6-1.1,1-1.7c0.1,0,0.1,0,0.2-0.1c0.4-0.6,0.7-1.1,1-1.7
		C14.4,18,14.5,17.9,14.4,17.9z"/>
	<path class="st20" d="M11.4,16.9c0.1,0,0.1,0,0.2,0c0,0,0.1,0,0.1,0c0.1,0,0.2,0,0.3,0c0,0.1,0,0.2,0,0.2c0,0.1,0,0.2,0,0.2
		c0,0.1,0,0.1,0,0.2c0,0.1,0,0.1,0,0.2c-0.1,0-0.3-0.1-0.4,0.1l0,0l0,0c-0.1-0.1-0.1-0.1-0.2,0c-0.1,0-0.1,0-0.2,0
		c-0.1-0.1-0.2-0.1-0.2,0c0,0,0,0-0.1,0c0-0.1-0.1-0.1-0.2,0c-0.1,0-0.1,0-0.2,0c-0.1,0-0.2,0-0.2,0c0,0-0.1-0.1-0.1,0
		c-0.1,0-0.2,0-0.3,0c0,0-0.1,0-0.1,0c-0.1,0-0.2,0-0.3,0c-0.1-0.1-0.1-0.1-0.2,0c-0.1,0-0.1,0-0.2,0c0,0,0-0.1,0-0.1
		c0.1,0,0.1,0,0.2,0c0,0,0.1,0,0.1,0c0,0,0.1,0,0.1,0c0.1,0,0.1,0,0.2,0c0,0,0.1,0,0.1,0c0,0,0,0,0.1,0c0,0,0.1,0,0.1,0
		c0.1,0,0.1,0,0.1,0c0.2,0,0.4,0,0.6-0.1c0,0,0.1,0,0.1,0c0.1,0,0.2,0,0.2,0c0.1,0,0.1,0,0.2,0c0.1,0,0.1,0,0.2,0
		C11.4,16.9,11.4,16.9,11.4,16.9z"/>
	<path class="st15" d="M17.2,19.2c0.1,0.1,0.1,0,0.2,0c0.6-0.7,0.8-1.5,0.7-2.3c-0.1-0.7-0.4-1.3-0.9-1.8c-0.1-0.1-0.2-0.1-0.1-0.2
		c0.1-0.1,0.1,0,0.2,0.1c1.1,0.9,1.3,2.7,0.5,3.9c-0.8,1.1-2,1.7-3.3,1.4c-0.2,0-0.4-0.1-0.5-0.2c-0.1,0-0.1,0-0.1-0.1
		c0-0.1,0.1-0.1,0.1,0c0.2,0.1,0.4,0.1,0.6,0.2c0.9,0.2,1.7,0,2.4-0.6C17.2,19.3,17.4,19.3,17.2,19.2L17.2,19.2z"/>
	<path class="st15" d="M15.3,14.1c0.3,0,0.6,0,0.9,0.1c0.1,0,0.2,0,0.2,0.1c0,0.2-0.2,0.1-0.2,0c-1.1-0.3-2.1-0.1-2.9,0.8
		c-1,1.1-1.1,2.7-0.1,3.9c0.1,0.1,0.2,0.2,0.1,0.3c-0.1,0.1-0.2-0.1-0.2-0.2c-1.4-1.6-0.8-4.1,1.2-4.9C14.6,14.1,14.9,14,15.3,14.1z
		"/>
	<path class="st20" d="M20.8,17.1c0.1,0,0.1,0,0.2,0c0,0,0,0,0.1,0c0,0,0,0,0,0c0,0,0.1,0,0.1,0.1c0,0.1,0,0.1-0.1,0.2l0,0
		c-0.1,0-0.1,0-0.2,0c-0.1-0.1-0.1,0-0.1,0c0,0,0,0-0.1,0c0,0-0.1,0-0.1,0c-0.1-0.1-0.2-0.1-0.2,0.1l0,0c-0.1,0-0.2,0-0.2,0
		c0,0-0.1,0-0.1,0c0,0-0.1,0-0.1,0c-0.1-0.1-0.1,0-0.1,0c0,0,0,0-0.1,0c-0.1,0-0.1,0-0.2,0c-0.1-0.1-0.2-0.1-0.2-0.1
		c-0.2,0-0.4,0.1-0.5,0.1c-0.1,0-0.2,0-0.2-0.1c0-0.1,0-0.1,0-0.2c0-0.1,0-0.2,0-0.2c0-0.1,0-0.2,0.1-0.3c0.1,0,0.2,0,0.3,0
		c0,0,0,0,0.1,0c0,0,0.1,0,0.1,0c0.1,0,0.2,0,0.2,0c0.1,0,0.1,0.1,0.2,0c0.1,0,0.1,0,0.2,0c0,0,0.1,0.1,0.1,0c0.1,0,0.1,0,0.2,0
		c0.1,0.1,0.2,0.1,0.2,0c0.1,0,0.1,0,0.2,0C20.6,17.1,20.7,17.1,20.8,17.1z"/>
	<path class="st20" d="M15,12.6c0-0.1,0-0.1,0-0.2c0.1-0.1,0.1-0.2,0-0.2c0-0.1,0-0.2,0-0.2c0,0,0.1-0.1,0-0.1c0-0.1,0-0.1,0-0.2
		c0.1-0.1,0.1-0.1,0-0.2c0-0.1,0-0.1,0-0.2c0.1-0.1,0.1-0.1,0-0.2c0-0.1,0-0.1,0-0.2c0.1,0,0.1,0,0.1,0.1c0,0,0,0.1,0,0.1
		c0,0.1,0,0.2,0,0.3c0,0,0,0,0,0.1c0,0.1,0,0.2,0,0.3c0,0,0,0.1,0,0.1c0,0,0,0.1,0,0.1c-0.1,0.1,0,0.2-0.1,0.3c0,0.5,0.1,1,0.1,1.5
		c-0.2,0-0.4,0-0.5,0c0,0,0,0-0.1,0c-0.1,0,0-0.1-0.1-0.2c0-0.1,0-0.1,0-0.2c0-0.1,0.1-0.1,0-0.2c0-0.1,0-0.2,0-0.2c0,0,0-0.1,0-0.1
		c0,0,0,0,0,0c0-0.1,0-0.1,0-0.2C15,12.7,15,12.6,15,12.6z"/>
	<path class="st21" d="M17.5,13.6c-0.3,0.7-0.7,1.4-1,2.1c-0.1,0.3-0.3,0.6-0.5,0.9c0,0.1-0.1,0.2-0.2,0c0-0.1-0.1-0.2-0.2-0.2
		c-0.1-0.2,0.1-0.3,0.1-0.4c0.3-0.5,0.7-0.9,0.9-1.4c0,0,0,0,0,0c0.2-0.1,0.3-0.3,0.4-0.5c0,0,0,0,0-0.1c0.1-0.1,0.2-0.2,0.2-0.3
		c0,0,0.1-0.1,0.1-0.1C17.4,13.6,17.5,13.6,17.5,13.6z"/>
	<path class="st18" d="M16.4,16.4c-0.1,0.3,0,0.6-0.1,0.9c0,0.3-0.2,0.5-0.5,0.6c-0.3,0.1-0.4,0.3-0.5,0.5c-0.2,0.4-0.4,0.7-0.6,1
		c-0.1,0.1-0.1,0.2-0.2,0.2c-0.3-0.1-0.3-0.1-0.1-0.3c0.5-0.6,1-1.3,1.5-1.9C16.1,17.1,16.2,16.8,16.4,16.4z"/>
	<path class="st20" d="M15,20.8c0-0.1,0-0.2,0-0.2c0,0,0-0.1,0-0.1c0.3,0,0.5,0,0.8,0c-0.1,0.6-0.2,1.2-0.3,1.8c0,0.1,0,0.3-0.1,0.3
		c0,0,0,0,0-0.1c0,0,0,0,0-0.1c0,0,0-0.1,0-0.1c0-0.1,0-0.2,0-0.2c0,0,0,0,0-0.1c0,0,0-0.1,0-0.1c0-0.1,0-0.1,0-0.2
		c0-0.1,0-0.1,0-0.1c0-0.1,0-0.2,0-0.3c0-0.1,0-0.1,0-0.1c0,0,0-0.1,0-0.1C15.1,20.9,15.1,20.9,15,20.8z"/>
	<path class="st22" d="M15.3,22.5c0.2,0,0.1-0.2,0.1-0.3c0.1-0.6,0.2-1.2,0.3-1.8c0,0,0,0,0.1,0c0,0,0.1,0,0.1,0c0,0,0.1,0,0.1,0
		c0,0.1,0,0.2,0,0.2c0,0,0,0,0,0.1c0,0,0,0,0,0.1c0,0.1,0,0.1,0,0.2c0,0,0,0.1,0,0.1c0,0.1,0,0.2,0,0.3c0,0,0,0,0,0.1
		c-0.1,0.3-0.1,0.7-0.2,1c0,0-0.1,0.1,0,0.1c0,0.1,0,0.1,0,0.2c-0.1,0.1-0.1,0.1,0,0.2c0,0.1,0,0.1,0,0.2c0,0,0,0,0,0.1
		c0,0.1,0,0.1,0,0.2c-0.1-0.1-0.1-0.1-0.1-0.2c0-0.1,0-0.2,0-0.2c0,0,0-0.1,0-0.1c0-0.1,0-0.2,0-0.3c0,0,0-0.1,0-0.1
		C15.3,22.6,15.3,22.6,15.3,22.5z"/>
	<path class="st15" d="M16.8,20.2c0.2-0.2,0.5-0.3,0.6-0.5c0.1-0.1,0.1-0.1,0.1,0c0,0.2,0,0.4,0.1,0.6c0,0.2,0,0.3-0.2,0.1
		c0,0-0.1,0-0.1-0.1C17.1,20.3,17,20.2,16.8,20.2z"/>
	<path class="st22" d="M15.5,13.8c0-0.5-0.1-1-0.1-1.5c0-0.1,0-0.2,0.1-0.3l0,0l0,0c0,0.1,0,0.2,0,0.3c0,0.1,0,0.1,0,0.1
		c0,0.1,0,0.1,0,0.2c0,0.1,0,0.1,0,0.1c0,0.1,0,0.2,0,0.3c0,0.1,0,0.1,0,0.2c0,0.1,0,0.1,0,0.2c0,0,0,0.1,0,0.1c0,0.1,0,0.2,0,0.3
		c0,0.1,0,0.2-0.1,0.2C15.6,13.8,15.6,13.8,15.5,13.8z"/>
	<path class="st12" d="M16.7,14.6c-0.3,0.5-0.6,0.9-0.9,1.4c-0.1,0-0.1,0.2-0.3,0.1c0.3-0.5,0.7-1,1.1-1.5c0,0,0.1,0,0.1-0.1l0,0
		C16.6,14.5,16.6,14.5,16.7,14.6C16.7,14.5,16.7,14.6,16.7,14.6z"/>
	<path class="st15" d="M11.9,19.3c0.1-0.2,0.2-0.5,0.3-0.7c0.1-0.1,0.1-0.1,0.1,0c0,0.1,0.1,0.2,0.1,0.2c0.1,0.2,0.3,0.3,0.2,0.4
		c-0.1,0.1-0.3,0.1-0.5,0.1c-0.1,0-0.2,0-0.3,0C11.9,19.4,11.9,19.4,11.9,19.3z"/>
	<path class="st12" d="M14.4,18.1c-0.3,0.6-0.6,1.2-1,1.7c-0.1,0.1-0.1,0.1-0.2,0.1c0.3-0.7,0.7-1.3,1.1-1.9
		C14.4,18,14.4,18,14.4,18.1z"/>
	<path class="st19" d="M17.5,13.6c0,0-0.1,0-0.1,0c0,0,0-0.1-0.1-0.1c0,0,0,0,0,0c0.3-0.5,0.6-1,1-1.4c0,0,0,0,0,0
		c0,0.2-0.1,0.3-0.1,0.4C17.9,12.9,17.7,13.2,17.5,13.6z"/>
	<path class="st15" d="M12.7,14.2C12.7,14.2,12.7,14.2,12.7,14.2c0.1,0,0.1,0,0.1,0.1c0,0,0,0,0.1,0c0.1,0,0.1,0,0.2,0.1
		c0,0,0,0,0,0c0.2,0.1,0.3,0.1,0,0.3c-0.1,0.1-0.2,0.2-0.3,0.3c0,0,0,0-0.1,0C12.7,14.8,12.6,14.5,12.7,14.2z"/>
	<path class="st15" d="M18,14.8c0.1,0,0.3-0.1,0.4,0c0.1,0.1-0.1,0.3-0.1,0.4c-0.1,0.3-0.1,0.3-0.4,0c-0.1-0.1-0.1-0.1-0.2-0.2
		c-0.2-0.2,0-0.1,0.1-0.2C17.9,14.8,18,14.8,18,14.8z"/>
	<path class="st21" d="M14.3,19.1c0.1-0.3,0.3-0.6,0.5-0.9c0.1-0.1,0.1,0,0.2,0C14.7,18.5,14.5,18.8,14.3,19.1z"/>
	<path class="st19" d="M17.1,14.1c-0.1,0.2-0.1,0.4-0.4,0.5c0-0.1,0-0.1-0.1-0.1c0,0,0,0,0,0c0.1-0.2,0.2-0.4,0.4-0.5c0,0,0,0,0,0
		C17,14,17,14.1,17.1,14.1z"/>
	<path class="st22" d="M18.6,17.5c0,0.1,0.1,0.1,0.2,0.1c0.2,0,0.4-0.1,0.5-0.1c0.1,0,0.2,0,0.2,0.1c0,0,0,0,0,0.1
		c-0.1,0-0.1,0-0.2,0c-0.1,0-0.1,0-0.2,0c0,0-0.1,0-0.1,0c-0.1,0-0.1,0-0.1,0c-0.1,0-0.2,0-0.3,0c-0.1,0-0.1,0-0.2,0
		C18.5,17.7,18.5,17.6,18.6,17.5C18.6,17.5,18.6,17.5,18.6,17.5z"/>
	<path class="st12" d="M15.1,16.7c0,0.2-0.2,0.2-0.2,0.4c0,0-0.1,0.1-0.1,0c-0.1,0-0.1-0.1-0.1-0.1c0-0.2,0.1-0.3,0.2-0.3
		C15,16.7,15,16.7,15.1,16.7z"/>
	<path class="st19" d="M15.5,16.1c0.2,0.2,0.2-0.1,0.3-0.1c0,0.1-0.2,0.2-0.1,0.4C15.3,16.3,15.3,16.3,15.5,16.1z"/>
	<path class="st7" d="M16.8,20.2c0.2,0,0.3,0.2,0.5,0.3c0,0,0,0.1,0,0.1C17,20.5,16.9,20.3,16.8,20.2C16.7,20.2,16.7,20.2,16.8,20.2
		z"/>
	<path class="st22" d="M21.1,17.3c0-0.1,0-0.1,0.1-0.2c0,0,0,0,0.1,0c0.1,0,0.2,0,0.3,0.1c0,0,0,0,0,0.1
		C21.4,17.3,21.3,17.3,21.1,17.3z"/>
	<path class="st22" d="M11.6,17.7c0.1-0.2,0.3-0.1,0.4-0.1c0,0,0,0,0,0c0,0,0,0.1,0,0.1c-0.1,0-0.1,0-0.2,0c0,0-0.1,0-0.1,0
		C11.7,17.7,11.7,17.7,11.6,17.7z"/>
	<path class="st22" d="M20.4,17.4c0-0.2,0.1-0.1,0.2-0.1c0,0,0,0,0,0.1C20.6,17.4,20.5,17.4,20.4,17.4z"/>
	<path class="st12" d="M15,17.4c0,0.1-0.1,0.1-0.1,0.1c-0.1,0-0.1-0.1-0.1-0.1C14.9,17.3,14.9,17.3,15,17.4C15,17.3,15,17.4,15,17.4
		z"/>
	<path class="st23" d="M15.7,13.8c0.1,0,0.1-0.1,0.1-0.2c0.1,0.1,0.1,0.1,0,0.2C15.8,13.9,15.7,13.9,15.7,13.8z"/>
	<path class="st23" d="M15.4,10.9c0,0-0.1-0.1-0.1-0.1c0-0.1,0-0.1,0-0.2c0,0,0,0,0.1,0C15.4,10.8,15.4,10.8,15.4,10.9z"/>
	<path class="st24" d="M18.7,16.8c-0.1,0.1,0,0.2-0.1,0.3C18.5,16.9,18.4,16.8,18.7,16.8z"/>
	<path class="st23" d="M14.9,13.6c0,0.1,0,0.2,0.1,0.2c0,0,0,0,0,0C14.7,13.9,14.8,13.7,14.9,13.6z"/>
	<path class="st21" d="M18.4,12C18.4,12,18.4,12,18.4,12c0-0.1,0-0.2,0.1-0.2C18.5,11.9,18.4,11.9,18.4,12C18.4,12,18.4,12,18.4,12
		L18.4,12z"/>
	<path class="st25" d="M15.5,11.3c-0.1-0.1-0.1-0.2,0-0.3C15.5,11.1,15.5,11.2,15.5,11.3z"/>
	<path class="st25" d="M15.5,11.7c-0.1-0.1-0.1-0.2,0-0.3C15.5,11.5,15.5,11.6,15.5,11.7z"/>
	<path class="st26" d="M14.4,18.1c0,0,0-0.1-0.1-0.1c0,0,0-0.1,0.1-0.1C14.5,17.9,14.4,18,14.4,18.1z"/>
	<path class="st2" d="M17.7,20.4c0.1,0.1,0.1,0.2,0,0.3C17.7,20.6,17.7,20.5,17.7,20.4z"/>
	<path class="st18" d="M16.5,16.2c0,0.1,0,0.2-0.1,0.2C16.4,16.3,16.4,16.3,16.5,16.2z"/>
	<path class="st24" d="M18.6,17.5C18.6,17.5,18.6,17.5,18.6,17.5c-0.1-0.1-0.1-0.1,0-0.2C18.6,17.3,18.6,17.4,18.6,17.5z"/>
	<path class="st19" d="M17.1,13.7c0-0.1,0.1-0.1,0.1-0.2c0,0,0,0,0,0c0,0,0,0,0,0.1C17.2,13.7,17.2,13.7,17.1,13.7
		C17.1,13.8,17.1,13.8,17.1,13.7z"/>
	<path class="st24" d="M12,17c0-0.1,0-0.2,0-0.2C12.1,16.9,12.1,16.9,12,17z"/>
	<path class="st25" d="M20.3,17c-0.1,0-0.2,0-0.2,0C20.2,17,20.2,16.9,20.3,17z"/>
	<path class="st23" d="M20.8,17.1c-0.1,0-0.2,0-0.2,0C20.6,17,20.7,17,20.8,17.1z"/>
	<path class="st22" d="M20.8,17.4c0-0.1,0-0.1,0.1,0c0,0,0,0,0,0C20.9,17.4,20.9,17.4,20.8,17.4z"/>
	<path class="st22" d="M19.8,17.5c0-0.1,0-0.1,0.1,0c0,0,0,0,0,0C19.9,17.5,19.9,17.5,19.8,17.5z"/>
	<path class="st23" d="M20.2,17.5c0.1-0.1,0.2-0.1,0.2,0C20.4,17.5,20.3,17.5,20.2,17.5z"/>
	<path class="st23" d="M10.9,17.6c0.1,0,0.2,0,0.2,0C11.1,17.7,11,17.7,10.9,17.6z"/>
	<path class="st21" d="M12,22.1C12,22.1,12,22.1,12,22.1C12,22,12,22,12,22.1C12.1,22,12.1,22,12,22.1C12,22.1,12,22.1,12,22.1z"/>
	<path class="st23" d="M15.1,12.2c0,0.1,0,0.2,0,0.2C15,12.3,15,12.2,15.1,12.2z"/>
	<path class="st25" d="M21.6,17.3C21.6,17.2,21.6,17.2,21.6,17.3c0-0.1,0.1-0.1,0.1,0C21.7,17.3,21.6,17.3,21.6,17.3z"/>
	<path class="st23" d="M15.7,13.1c-0.1-0.1-0.1-0.1,0-0.2C15.8,13,15.8,13.1,15.7,13.1z"/>
	<path class="st23" d="M14.9,13.3c0,0.1,0,0.1,0,0.2C14.9,13.4,14.9,13.3,14.9,13.3z"/>
	<path class="st23" d="M15.6,23.1c0-0.1,0-0.1,0-0.2C15.6,22.9,15.6,23,15.6,23.1z"/>
	<path class="st22" d="M15,20.8c0.1,0,0,0.1,0,0.2C15,20.9,15,20.9,15,20.8z"/>
	<path class="st23" d="M18.5,17.7c0.1,0,0.1,0,0.2,0C18.7,17.8,18.6,17.8,18.5,17.7z"/>
	<path class="st25" d="M11.9,17.7c0.1,0,0.1,0,0.2,0C12.1,17.9,12,17.8,11.9,17.7C11.9,17.8,11.9,17.8,11.9,17.7z"/>
	<path class="st25" d="M11.4,17.7c0.1,0,0.1,0,0.2,0C11.5,17.7,11.4,17.7,11.4,17.7z"/>
	<path class="st23" d="M19.2,17.7c0.1-0.1,0.1-0.1,0.2,0C19.4,17.7,19.3,17.7,19.2,17.7z"/>
	<path class="st23" d="M19.6,17.6C19.6,17.6,19.6,17.6,19.6,17.6c0.1,0,0.1,0,0.2,0C19.7,17.6,19.7,17.6,19.6,17.6z"/>
	<path class="st22" d="M10.7,17.6c0.1,0,0.1,0,0.2,0C10.8,17.6,10.7,17.6,10.7,17.6C10.7,17.6,10.7,17.6,10.7,17.6z"/>
	<path class="st23" d="M10.7,17.6C10.7,17.6,10.7,17.6,10.7,17.6c-0.1,0.1-0.1,0.1-0.2,0C10.5,17.6,10.6,17.6,10.7,17.6z"/>
	<path class="st25" d="M15.2,11.4c0,0.1,0,0.1,0,0.2C15.2,11.6,15.2,11.5,15.2,11.4z"/>
	<path class="st25" d="M12.1,17.6C12.1,17.6,12,17.6,12.1,17.6c0-0.1,0-0.1,0-0.2c0,0,0,0,0,0C12.1,17.5,12.1,17.6,12.1,17.6z"/>
	<path class="st25" d="M9.2,17.4c0.1,0,0.1,0,0.2,0C9.4,17.4,9.3,17.4,9.2,17.4z"/>
	<path class="st23" d="M21,17.4C21,17.4,21,17.3,21,17.4c0.1,0,0.1,0,0.2,0C21.1,17.4,21,17.4,21,17.4z"/>
	<path class="st24" d="M9,17.4c0,0-0.1,0-0.1,0C8.8,17.3,8.9,17.3,9,17.4C8.9,17.3,8.9,17.4,9,17.4z"/>
	<path class="st24" d="M12.1,17.4C12.1,17.4,12,17.4,12.1,17.4c0-0.1,0-0.1,0-0.2C12.1,17.3,12.1,17.4,12.1,17.4z"/>
	<path class="st25" d="M15.3,11c0,0.1,0,0.1,0,0.2C15.2,11.2,15.2,11.1,15.3,11z"/>
	<path class="st23" d="M21.3,17.1C21.2,17.1,21.2,17.1,21.3,17.1c-0.1,0-0.2,0-0.2,0C21.1,17.1,21.2,17.1,21.3,17.1z"/>
	<path class="st25" d="M11.1,16.9C11.1,17,11,17,11,17C11,16.9,11.1,16.9,11.1,16.9z"/>
	<path class="st23" d="M19.5,16.9c-0.1,0-0.1,0-0.2,0C19.4,16.8,19.5,16.8,19.5,16.9z"/>
	<path class="st6" d="M15.1,16.7c-0.1,0-0.1,0-0.2,0C15,16.6,15,16.5,15.1,16.7z"/>
	<path class="st21" d="M18.3,12.1C18.3,12,18.3,12,18.3,12.1L18.3,12.1C18.4,12,18.3,12.1,18.3,12.1C18.3,12.1,18.3,12.1,18.3,12.1z
		"/>
	<path class="st23" d="M19,17.7c0,0,0.1,0,0.1,0C19.1,17.7,19.1,17.7,19,17.7z"/>
	<path class="st25" d="M11.7,16.8c0,0-0.1,0-0.1,0C11.6,16.8,11.7,16.8,11.7,16.8z"/>
	<path class="st23" d="M19.1,16.8c0,0-0.1,0-0.1,0c0,0,0,0,0,0C19.1,16.8,19.1,16.8,19.1,16.8z"/>
	<path class="st23" d="M11.4,16.9c0,0-0.1,0.1-0.1,0C11.3,16.8,11.4,16.8,11.4,16.9z"/>
	<path class="st24" d="M15.3,10.7C15.3,10.7,15.3,10.7,15.3,10.7C15.3,10.7,15.3,10.6,15.3,10.7C15.3,10.6,15.3,10.7,15.3,10.7z"/>
	<path class="st25" d="M15,12.6c0,0.1,0,0.1,0,0.1C15,12.7,15,12.6,15,12.6z"/>
	<path class="st23" d="M19.9,17c-0.1,0-0.1,0-0.1,0C19.8,16.9,19.9,16.9,19.9,17z"/>
	<path class="st25" d="M10.7,17c0,0-0.1,0-0.1,0C10.6,17,10.7,17,10.7,17z"/>
	<path class="st27" d="M14.5,17.1c0,0,0-0.1,0-0.1C14.6,17,14.6,17.1,14.5,17.1z"/>
	<path class="st23" d="M15.7,12.7c0,0-0.1-0.1,0-0.1C15.7,12.6,15.7,12.6,15.7,12.7z"/>
	<path class="st24" d="M10,17.1c0,0-0.1,0-0.1,0C9.9,17.1,10,17.1,10,17.1z"/>
	<path class="st23" d="M15.6,12.4c0,0-0.1-0.1,0-0.1C15.6,12.3,15.6,12.3,15.6,12.4z"/>
	<path class="st23" d="M9.7,17.2c0,0-0.1,0-0.1,0C9.6,17.1,9.7,17.1,9.7,17.2C9.7,17.2,9.7,17.2,9.7,17.2z"/>
	<path class="st23" d="M9.3,17.3c0,0-0.1,0-0.1,0C9.2,17.2,9.3,17.2,9.3,17.3C9.3,17.2,9.3,17.2,9.3,17.3z"/>
	<path class="st25" d="M9,17.4C8.9,17.4,8.9,17.3,9,17.4C9,17.3,9,17.3,9,17.4c0.1-0.1,0.1,0,0.1,0C9,17.4,9,17.4,9,17.4z"/>
	<path class="st23" d="M20.7,17.4C20.7,17.4,20.7,17.4,20.7,17.4c0,0,0.1,0,0.1,0C20.8,17.4,20.7,17.4,20.7,17.4z"/>
	<path class="st28" d="M18,14.8c0,0-0.1,0.1-0.1,0C17.9,14.8,18,14.8,18,14.8z"/>
	<path class="st25" d="M9.7,17.5c0.1,0,0.1,0,0.1,0C9.8,17.5,9.7,17.5,9.7,17.5z"/>
	<path class="st4" d="M21.8,17.5c0,0-0.1,0.1-0.1,0c0,0,0,0,0,0C21.7,17.4,21.8,17.4,21.8,17.5z"/>
	<path class="st23" d="M10.1,17.5c0.1,0,0.1,0,0.1,0C10.2,17.6,10.2,17.6,10.1,17.5z"/>
	<path class="st23" d="M19.9,17.5C20,17.5,20,17.5,19.9,17.5c0,0,0.1,0,0.1,0C20,17.6,20,17.6,19.9,17.5z"/>
	<path class="st2" d="M21.4,17.5c0,0-0.1,0.1-0.1,0C21.3,17.5,21.3,17.5,21.4,17.5z"/>
	<path class="st3" d="M15.8,23.2c0,0.1,0,0.1,0,0.1C15.7,23.3,15.7,23.3,15.8,23.2z"/>
	<path class="st25" d="M9.3,17.3C9.3,17.2,9.3,17.2,9.3,17.3c0,0,0.1,0,0.1,0C9.4,17.3,9.3,17.3,9.3,17.3z"/>
	<path class="st25" d="M15,12.9c0,0.1,0,0.1,0,0.1C14.9,13,14.9,13,15,12.9C14.9,12.9,15,12.9,15,12.9z"/>
	<path class="st24" d="M11.9,17.7C11.9,17.8,11.9,17.8,11.9,17.7c0,0.1-0.1,0-0.1,0C11.8,17.8,11.9,17.8,11.9,17.7z"/>
	<path class="st3" d="M15.9,22.8c0,0.1,0,0.1,0,0.1C15.8,22.9,15.8,22.9,15.9,22.8z"/>
	<path class="st23" d="M15.6,22.7c0-0.1,0-0.1,0-0.1C15.7,22.6,15.7,22.6,15.6,22.7z"/>
	<path class="st25" d="M15.2,22.3c0,0,0,0.1,0,0.1c0,0,0,0,0,0C15.2,22.4,15.2,22.3,15.2,22.3z"/>
	<path class="st25" d="M15.2,21.9c0,0,0,0.1,0,0.1c0,0,0,0,0,0C15.2,21.9,15.2,21.9,15.2,21.9z"/>
	<path class="st21" d="M12.1,21.9C12.1,21.9,12.1,21.9,12.1,21.9C12.1,21.9,12.1,21.8,12.1,21.9C12.1,21.8,12.1,21.9,12.1,21.9z"/>
	<path class="st5" d="M16,21.6c0,0,0,0.1,0,0.1C16,21.7,16,21.7,16,21.6z"/>
	<path class="st25" d="M15.1,21.5c0,0,0.1,0.1,0,0.1C15.1,21.6,15.1,21.6,15.1,21.5z"/>
	<path class="st25" d="M15.1,21.1c0,0,0.1,0.1,0,0.1C15,21.2,15,21.2,15.1,21.1z"/>
	<path class="st25" d="M15.1,11.8c0,0.1,0,0.1,0,0.1C15.1,11.9,15.1,11.8,15.1,11.8z"/>
	<path class="st24" d="M15.9,21.1c0-0.1,0-0.1,0-0.1C15.9,21,15.9,21.1,15.9,21.1z"/>
	<path class="st19" d="M17,13.9C17,13.9,17,13.9,17,13.9c0.1-0.1,0.1-0.1,0.1-0.1C17.1,13.9,17.1,13.9,17,13.9
		C17,13.9,17,14,17,13.9C17,13.9,17,13.9,17,13.9z"/>
	<path class="st23" d="M15.6,11.9L15.6,11.9L15.6,11.9c0,0,0-0.1,0-0.1C15.6,11.8,15.6,11.9,15.6,11.9z"/>
	<path class="st18" d="M12.9,18.2c0,0,0.1,0.1,0,0.1C12.9,18.3,12.9,18.3,12.9,18.2z"/>
	<path class="st2" d="M18.4,18.2c0,0.1,0,0.1,0,0.1C18.3,18.3,18.4,18.2,18.4,18.2z"/>
	<path class="st2" d="M16.2,20.6c0,0.1,0,0.1,0,0.1C16.2,20.6,16.2,20.6,16.2,20.6z"/>
	<path class="st23" d="M15,20.5c0,0,0,0.1,0,0.1C14.9,20.5,14.9,20.5,15,20.5z"/>
	<path class="st7" d="M16,20.4C15.9,20.4,15.9,20.4,16,20.4L16,20.4C15.9,20.4,15.9,20.4,16,20.4z"/>
	<path class="st29" d="M11.9,19.3c0,0,0,0.1,0,0.1C11.8,19.4,11.9,19.4,11.9,19.3z"/>
	<path class="st4" d="M20.4,17.7C20.4,17.7,20.3,17.7,20.4,17.7C20.3,17.7,20.3,17.7,20.4,17.7z"/>
	<path class="st27" d="M16.2,19.7C16.2,19.7,16.2,19.7,16.2,19.7C16.2,19.7,16.2,19.7,16.2,19.7C16.1,19.7,16.1,19.7,16.2,19.7z"/>
	<path class="st5" d="M17.7,19.7C17.7,19.7,17.7,19.7,17.7,19.7C17.7,19.7,17.7,19.7,17.7,19.7z"/>
	<path class="st27" d="M14.8,19.8C14.8,19.8,14.9,19.8,14.8,19.8C14.8,19.9,14.8,19.8,14.8,19.8z"/>
	<path class="st18" d="M15.8,19.8C15.8,19.8,15.8,19.8,15.8,19.8C15.8,19.8,15.8,19.8,15.8,19.8z"/>
	<path class="st7" d="M16.6,20.2L16.6,20.2L16.6,20.2C16.6,20.2,16.6,20.2,16.6,20.2z"/>
	<path class="st24" d="M15.9,20.4L15.9,20.4C15.9,20.4,15.8,20.4,15.9,20.4C15.8,20.4,15.9,20.4,15.9,20.4z"/>
	<path class="st25" d="M15.9,20.7C15.9,20.7,16,20.7,15.9,20.7C16,20.6,16,20.7,15.9,20.7C16,20.7,16,20.7,15.9,20.7z"/>
	<path class="st1" d="M18.7,18C18.6,18,18.6,18,18.7,18C18.6,18,18.6,18,18.7,18z"/>
	<path class="st24" d="M15.9,20.7C16,20.7,16,20.7,15.9,20.7C16,20.7,16,20.7,15.9,20.7C15.9,20.7,15.9,20.7,15.9,20.7z"/>
	<path class="st1" d="M12,18C12,18,11.9,18,12,18C11.9,18,11.9,18,12,18C11.9,18,12,18,12,18z"/>
	<path class="st4" d="M11.9,18C11.9,18,11.9,18,11.9,18C11.9,18,11.9,18,11.9,18C11.9,18,11.9,18,11.9,18z"/>
	<path class="st24" d="M14.9,13.9C14.9,13.9,14.9,13.9,14.9,13.9C14.9,13.8,15,13.8,14.9,13.9C15,13.9,14.9,13.9,14.9,13.9z"/>
	<path class="st19" d="M17,13.8C17.1,13.8,17.1,13.8,17,13.8C17.1,13.8,17.1,13.8,17,13.8C17.1,13.8,17.1,13.8,17,13.8
		C17.1,13.8,17.1,13.8,17,13.8z"/>
	<path class="st2" d="M16.1,21.3C16.1,21.4,16.1,21.4,16.1,21.3C16.1,21.4,16.1,21.4,16.1,21.3z"/>
	<path class="st24" d="M15.8,21.5C15.8,21.5,15.8,21.5,15.8,21.5C15.9,21.5,15.9,21.5,15.8,21.5z"/>
	<path class="st19" d="M12.1,21.9C12.1,21.9,12.1,21.8,12.1,21.9C12.3,21.8,12.2,21.9,12.1,21.9z"/>
	<path class="st24" d="M15.2,22C15.2,22,15.2,22,15.2,22C15.2,22,15.2,22,15.2,22C15.2,22,15.2,22,15.2,22z"/>
	<path class="st3" d="M16,22.1C16,22.1,16,22.2,16,22.1C15.9,22.2,15.9,22.1,16,22.1z"/>
	<path class="st24" d="M15.2,22.4C15.2,22.4,15.3,22.4,15.2,22.4C15.3,22.4,15.3,22.5,15.2,22.4C15.2,22.5,15.2,22.4,15.2,22.4z"/>
	<path class="st4" d="M20,17.8C20,17.8,20,17.8,20,17.8C20,17.7,20,17.7,20,17.8z"/>
	<path class="st25" d="M15.3,22.6C15.3,22.7,15.3,22.7,15.3,22.6C15.3,22.7,15.3,22.7,15.3,22.6z"/>
	<path class="st27" d="M14.9,14.5C14.9,14.5,14.9,14.5,14.9,14.5C14.9,14.5,14.9,14.4,14.9,14.5z"/>
	<path class="st19" d="M16.6,14.5C16.6,14.5,16.6,14.5,16.6,14.5C16.6,14.5,16.6,14.5,16.6,14.5C16.6,14.5,16.6,14.5,16.6,14.5
		C16.6,14.5,16.6,14.5,16.6,14.5z"/>
	<path class="st25" d="M15.4,23.1C15.4,23.1,15.4,23.1,15.4,23.1C15.4,23.1,15.4,23.1,15.4,23.1z"/>
	<path class="st23" d="M15.5,23.4C15.5,23.3,15.5,23.3,15.5,23.4C15.6,23.3,15.6,23.3,15.5,23.4z"/>
	<path class="st1" d="M15.7,23.6C15.7,23.6,15.7,23.6,15.7,23.6C15.7,23.6,15.7,23.6,15.7,23.6z"/>
	<path class="st4" d="M21,17.6C21,17.6,21,17.6,21,17.6C21,17.6,21,17.6,21,17.6z"/>
	<path class="st19" d="M16.6,14.5C16.6,14.6,16.6,14.6,16.6,14.5C16.5,14.6,16.5,14.5,16.6,14.5z"/>
	<path class="st14" d="M18,17.6C18,17.5,18,17.5,18,17.6C18,17.5,18,17.5,18,17.6z"/>
	<path class="st14" d="M21.7,17.4C21.7,17.5,21.7,17.5,21.7,17.4C21.7,17.5,21.6,17.5,21.7,17.4C21.6,17.5,21.6,17.5,21.7,17.4
		C21.6,17.4,21.6,17.4,21.7,17.4z"/>
	<path class="st19" d="M18.3,12.1C18.3,12.1,18.3,12.1,18.3,12.1C18.3,12.1,18.3,12.1,18.3,12.1C18.2,12.1,18.2,12.1,18.3,12.1
		C18.2,12.1,18.3,12.1,18.3,12.1z"/>
	<path class="st28" d="M12.7,15C12.8,15,12.8,15,12.7,15C12.8,15,12.8,15,12.7,15C12.7,15,12.7,15,12.7,15z"/>
	<path class="st22" d="M9.7,17.2C9.7,17.2,9.7,17.2,9.7,17.2C9.7,17.2,9.8,17.2,9.7,17.2C9.8,17.2,9.7,17.2,9.7,17.2z"/>
	<path class="st23" d="M21,17.1C21,17.1,21,17.1,21,17.1C21,17.1,21,17.1,21,17.1z"/>
	<path class="st19" d="M17.2,13.6C17.2,13.6,17.3,13.5,17.2,13.6C17.3,13.5,17.3,13.5,17.2,13.6C17.3,13.6,17.3,13.6,17.2,13.6
		C17.2,13.6,17.2,13.6,17.2,13.6z"/>
	<path class="st22" d="M19,16.8C19,16.8,19,16.8,19,16.8C19,16.8,19,16.8,19,16.8C19,16.8,19,16.8,19,16.8z"/>
	<path class="st27" d="M12.7,16.8C12.7,16.8,12.7,16.8,12.7,16.8C12.6,16.8,12.6,16.8,12.7,16.8z"/>
	<path class="st23" d="M15.8,13.4C15.8,13.3,15.8,13.3,15.8,13.4C15.8,13.3,15.8,13.3,15.8,13.4z"/>
	<path class="st7" d="M15,12.9C15,12.9,14.9,12.9,15,12.9C14.9,12.9,15,12.9,15,12.9C15,12.9,15,12.9,15,12.9z"/>
	<path class="st12" d="M7.2,17.6L7.2,17.6C7.2,17.6,7.2,17.6,7.2,17.6C7.2,17.6,7.2,17.6,7.2,17.6z"/>
	<path class="st0" d="M12.8,14.3C12.8,14.3,12.8,14.3,12.8,14.3C12.8,14.3,12.8,14.3,12.8,14.3z"/>
	<path class="st13" d="M17.1,13.8C17.1,13.8,17.1,13.8,17.1,13.8c0.1-0.1,0.1-0.1,0.2-0.2c0,0,0,0,0.1,0.1c0,0.1-0.1,0.2-0.2,0.3
		C17.1,14,17.1,14,17.1,13.8C17.1,13.9,17.1,13.9,17.1,13.8z"/>
	<path class="st26" d="M17.3,13.7C17.3,13.7,17.3,13.7,17.3,13.7c-0.1-0.1-0.1-0.1-0.1-0.1c0,0,0,0,0.1-0.1c0,0,0.1,0,0.1,0.1
		C17.4,13.6,17.3,13.7,17.3,13.7z"/>
	<path class="st26" d="M17.1,13.9C17.1,14,17.1,14,17.1,13.9c0.1,0.1,0.1,0.1,0.1,0.1C17,14.1,17,14,17.1,13.9
		C17,14,17,13.9,17.1,13.9z"/>
	<path class="st26" d="M16.6,14.5C16.6,14.5,16.6,14.5,16.6,14.5c0.1-0.1,0.1,0,0.1,0.1C16.7,14.6,16.7,14.6,16.6,14.5
		C16.7,14.6,16.7,14.5,16.6,14.5z"/>
</g>
</svg>
