<?xml version="1.0" encoding="utf-8"?>
<!-- Generator: Adobe Illustrator 27.3.1, SVG Export Plug-In . SVG Version: 6.00 Build 0)  -->
<svg version="1.1" id="katman_1" xmlns="http://www.w3.org/2000/svg" xmlns:xlink="http://www.w3.org/1999/xlink" x="0px" y="0px"
	 viewBox="0 0 32 32" style="enable-background:new 0 0 32 32;" xml:space="preserve">
<style type="text/css">
	.st0{fill:#F29226;}
	.st1{fill:#EB6811;}
</style>
<g>
	<path class="st0" d="M19.1,25.5c0.1-0.3,0.1-0.4-0.2-0.4c-0.5,0-0.9,0-1.4,0c-1.6,0.1-3.2,0.6-4.6,1.4c-0.1,0-0.1,0.1-0.2,0.1
		c-0.1,0-0.1,0-0.2,0c-0.1-0.1,0-0.1,0.1-0.1c0.2-0.2,0.4-0.4,0.6-0.5c1.1-0.8,2.3-1.3,3.6-1.7c0.9-0.3,1.7-0.4,2.6-0.5
		c0.6-0.1,0.8-0.2,0.9-0.8c0.1-0.6,0.2-1.2,0.3-1.8c0.3-2.3,0.4-4.6,0.4-6.9c0-0.3,0-0.7-0.1-1c-0.1,0-0.1,0-0.1,0.1
		c-0.2,0.2-0.4,0.5-0.6,0.7C20.1,14,20.1,14.1,20,14c-0.1-0.1,0-0.2,0-0.2c0.1-0.2,0.2-0.4,0.2-0.7c0.4-1.5,0.4-3,0.3-4.5
		c-0.1-1.4-0.4-2.8-0.7-4.2c0-0.1,0-0.1-0.1-0.1c0,0.3,0,0.5,0,0.8c0.1,2.2-0.2,4.3-0.7,6.4c-0.5,2.3-1.4,4.3-2.6,6.4
		c-1.1,2-2.3,4-3.2,6c-0.5,1-0.9,2.1-1.3,3.1C12,27,12,27,12,27c1,0.4,2.1,0.6,3.2,0.6c0.9,0,1.8,0.1,2.6-0.1c0.2,0-0.1,0,0.3,0h0
		c0-0.1,0.1-0.2,0.1-0.2C18.6,26.7,18.9,26.1,19.1,25.5"/>
	<path class="st1" d="M16.1,2.6C8.9,2.6,3,8.3,3,15.5c0,7.2,5.8,13,13,13c7.2,0,13-5.8,13-12.9C29,8.4,23.2,2.6,16.1,2.6 M9.9,25.9
		c-0.1-0.5-0.3-0.9-0.5-1.4c0-0.1,0-0.2-0.1-0.2C9.2,24.7,9.1,25,9,25.4c-0.8-0.6-1.5-1.2-2.1-1.9c-1.6-1.8-2.6-4-2.9-6.4
		C3.3,12.3,5.7,7.4,10,5c2.2-1.3,4.7-1.8,7.2-1.5c0.6,0.1,1.3,0.2,1.9,0.3c0.1,0,0.2,0.1,0.1,0.2c0,0.5,0,0.9-0.1,1.4
		c-0.3,1.4-0.9,2.7-1.6,4c-0.2,0.3-0.3,0.7-0.2,1.1c0.1,0.4,0.1,0.8,0.2,1.3c0,0.9,0,1.9-0.2,2.8c0,0.1-0.1,0.2-0.1,0.3
		c0,0,0,0.1-0.1,0.1c0-1.3,0-2.5-0.3-3.8c-0.2,0.4-0.5,0.8-0.7,1.2c-0.5,0.8-1,1.5-1.5,2.2c-0.3,0.4-0.4,0.8-0.4,1.2
		c0.1,1.2,0.1,2.4,0,3.6c0,0.3,0,0.6-0.2,0.9c-0.1-0.1,0-0.2,0-0.3c0-1.3-0.1-2.5-0.4-3.7c0-0.1,0-0.2-0.1-0.2
		c-0.1,0-0.1,0.1-0.2,0.2c-0.5,0.8-1.1,1.6-1.6,2.4c-0.7,1.1-1.2,2.2-1.7,3.4c-0.3,0.8-0.4,1.6-0.1,2.4c0.2,0.6,0.3,1.1,0.4,1.7
		C10.1,26.2,10,26.1,9.9,25.9 M18.4,27.5l-0.2,0c0,0,0,0,0,0c-0.3,0-0.1,0-0.3,0c-0.9,0.2-1.8,0.2-2.6,0.1c-1.1-0.1-2.2-0.3-3.2-0.6
		c0,0-0.1,0-0.1-0.1c-0.3-0.1-0.3,0-0.2-0.3c1.2-3.1,2.7-6.1,4.4-9c1.5-2.5,2.5-5.2,3-8.1c0.3-1.9,0.4-3.8,0.2-5.7
		C20,4,20.5,4.2,21,4.5c3.9,1.9,6.2,4.9,7,9.1C29.1,20,24.8,26.2,18.4,27.5"/>
</g>
</svg>
